<?xml version="1.0" encoding="utf-8"?><svg xmlns="http://www.w3.org/2000/svg" xmlns:xlink="http://www.w3.org/1999/xlink"><symbol viewBox="0 0 219.151 219.151" id="back-a" xmlns="http://www.w3.org/2000/svg"><path d="M109.576 219.151c60.419 0 109.573-49.156 109.573-109.576C219.149 49.156 169.995 0 109.576 0S.002 49.156.002 109.575c0 60.42 49.155 109.576 109.574 109.576zm0-204.151c52.148 0 94.573 42.426 94.574 94.575 0 52.149-42.425 94.575-94.574 94.576-52.148-.001-94.573-42.427-94.573-94.577C15.003 57.427 57.428 15 109.576 15z"/><path d="M94.861 156.507a7.502 7.502 0 0010.606 0 7.499 7.499 0 00-.001-10.608l-28.82-28.819 83.457-.008a7.5 7.5 0 00-.001-15l-83.46.008 28.827-28.825a7.5 7.5 0 00-10.607-10.608l-41.629 41.628a7.495 7.495 0 00-2.197 5.303 7.51 7.51 0 002.198 5.305l41.627 41.624z"/></symbol><symbol viewBox="0 -23 512.001 512" id="callHead" xmlns="http://www.w3.org/2000/svg"><path d="M428.324 39.977H59.964c-11.019 0-19.987 8.968-19.987 19.992v255.465C16.71 307.184 0 284.964 0 258.906V59.97C0 26.902 26.902 0 59.965 0h311.828c26.059 0 48.277 16.71 56.531 39.977zm-3.086 252.234l-28.27 28.27 38.321 38.32H286.84v39.98h148.82l-38.69 38.689 28.27 28.27L512 378.972zm-285.316 66.64h105.941v39.926H139.922c-33.067 0-59.965-26.847-59.965-59.914V139.922c0-33.067 26.898-59.965 59.965-59.965H451.75c33.066 0 59.965 26.898 59.965 59.965V321.82l-39.977-39.976V150.066l-175.902 130.84-175.902-130.84v188.797c0 11.024 8.968 19.989 19.988 19.989zm155.914-127.769l149.43-111.148h-298.86zm0 0"/></symbol><symbol viewBox="0 0 512.001 512.001" id="close" xmlns="http://www.w3.org/2000/svg"><path d="M284.286 256.002L506.143 34.144c7.811-7.811 7.811-20.475 0-28.285-7.811-7.81-20.475-7.811-28.285 0L256 227.717 34.143 5.859c-7.811-7.811-20.475-7.811-28.285 0-7.81 7.811-7.811 20.475 0 28.285l221.857 221.857L5.858 477.859c-7.811 7.811-7.811 20.475 0 28.285a19.938 19.938 0 0014.143 5.857 19.94 19.94 0 0014.143-5.857L256 284.287l221.857 221.857c3.905 3.905 9.024 5.857 14.143 5.857s10.237-1.952 14.143-5.857c7.811-7.811 7.811-20.475 0-28.285L284.286 256.002z"/></symbol><symbol viewBox="0 0 512.011 512.011" id="down" xmlns="http://www.w3.org/2000/svg"><path d="M505.755 123.592c-8.341-8.341-21.824-8.341-30.165 0L256.005 343.176 36.421 123.592c-8.341-8.341-21.824-8.341-30.165 0s-8.341 21.824 0 30.165l234.667 234.667a21.275 21.275 0 0015.083 6.251 21.275 21.275 0 0015.083-6.251l234.667-234.667c8.34-8.341 8.34-21.824-.001-30.165z"/></symbol><symbol viewBox="0 0 511 511.9" id="insta" xmlns="http://www.w3.org/2000/svg"><path d="M510.95 150.5c-1.2-27.2-5.598-45.898-11.9-62.102-6.5-17.199-16.5-32.597-29.6-45.398-12.802-13-28.302-23.102-45.302-29.5-16.296-6.3-34.898-10.7-62.097-11.898C334.648.3 325.949 0 256.449 0s-78.199.3-105.5 1.5c-27.199 1.2-45.898 5.602-62.097 11.898-17.204 6.5-32.602 16.5-45.403 29.602-13 12.8-23.097 28.3-29.5 45.3-6.3 16.302-10.699 34.9-11.898 62.098C.75 177.801.449 186.5.449 256s.301 78.2 1.5 105.5c1.2 27.2 5.602 45.898 11.903 62.102 6.5 17.199 16.597 32.597 29.597 45.398 12.801 13 28.301 23.102 45.301 29.5 16.3 6.3 34.898 10.7 62.102 11.898 27.296 1.204 36 1.5 105.5 1.5s78.199-.296 105.5-1.5c27.199-1.199 45.898-5.597 62.097-11.898a130.934 130.934 0 0074.903-74.898c6.296-16.301 10.699-34.903 11.898-62.102 1.2-27.3 1.5-36 1.5-105.5s-.102-78.2-1.3-105.5zm-46.098 209c-1.102 25-5.301 38.5-8.801 47.5-8.602 22.3-26.301 40-48.602 48.602-9 3.5-22.597 7.699-47.5 8.796-27 1.204-35.097 1.5-103.398 1.5s-76.5-.296-103.403-1.5c-25-1.097-38.5-5.296-47.5-8.796C94.551 451.5 84.45 445 76.25 436.5c-8.5-8.3-15-18.3-19.102-29.398-3.5-9-7.699-22.602-8.796-47.5-1.204-27-1.5-35.102-1.5-103.403s.296-76.5 1.5-103.398c1.097-25 5.296-38.5 8.796-47.5C61.25 94.199 67.75 84.1 76.352 75.898c8.296-8.5 18.296-15 29.398-19.097 9-3.5 22.602-7.7 47.5-8.801 27-1.2 35.102-1.5 103.398-1.5 68.403 0 76.5.3 103.403 1.5 25 1.102 38.5 5.3 47.5 8.8 11.097 4.098 21.199 10.598 29.398 19.098 8.5 8.301 15 18.301 19.102 29.403 3.5 9 7.699 22.597 8.8 47.5 1.2 27 1.5 35.097 1.5 103.398s-.3 76.301-1.5 103.301zm0 0"/><path d="M256.45 124.5c-72.598 0-131.5 58.898-131.5 131.5s58.902 131.5 131.5 131.5c72.6 0 131.5-58.898 131.5-131.5s-58.9-131.5-131.5-131.5zm0 216.8c-47.098 0-85.302-38.198-85.302-85.3s38.204-85.3 85.301-85.3c47.102 0 85.301 38.198 85.301 85.3s-38.2 85.3-85.3 85.3zm167.402-222c0 16.954-13.747 30.7-30.704 30.7-16.953 0-30.699-13.746-30.699-30.7 0-16.956 13.746-30.698 30.7-30.698 16.956 0 30.703 13.742 30.703 30.699zm0 0"/></symbol><symbol viewBox="0 0 80 80" id="l-g1" xmlns="http://www.w3.org/2000/svg"><g clip-path="url(#fclip0)"><path d="M68.41 13.827c1.68-1.784 6.323-7.036 6.317-10.576a3.214 3.214 0 00-.918-2.34c-2.158-2.162-6.666.117-10.408 3.149C57.984 1.51 49.34 0 40 0S22.016 1.51 16.599 4.06C12.86 1.03 8.352-1.25 6.195.907a3.2 3.2 0 00-.916 2.333c0 3.555 4.636 8.807 6.312 10.59-4.823 14.283-4.823 38.2 0 52.343-1.682 1.783-6.324 7.027-6.318 10.575a3.213 3.213 0 00.918 2.341c2.156 2.159 6.666-.118 10.408-3.149C22.016 78.49 30.667 80 40 80s17.984-1.51 23.401-4.06c3.734 3.03 8.246 5.307 10.4 3.152a3.2 3.2 0 00.915-2.332c.007-3.559-4.632-8.8-6.31-10.587 4.667-13.716 4.834-37.017.289-51.466a23.21 23.21 0 00-.284-.88zM65.629 66.05a1.333 1.333 0 00.31 1.4c2.47 2.465 6.12 7.126 6.117 9.305 0 .32-.092.41-.127.444-.267.275-2.956 0-7.467-3.857a1.333 1.333 0 00-1.484-.168C57.992 75.78 49.407 77.333 40 77.333S22.008 75.78 17.032 73.18a1.333 1.333 0 00-1.484.168c-4.515 3.858-7.193 4.133-7.476 3.853-.036-.035-.133-.133-.133-.456 0-2.167 3.65-6.827 6.122-9.293.367-.367.488-.913.31-1.4-4.926-13.558-4.924-38.394 0-52.107a1.333 1.333 0 00-.312-1.393c-2.467-2.468-6.118-7.134-6.114-9.306 0-.321.092-.412.134-.449.266-.275 2.956 0 7.466 3.857.414.354 1.002.42 1.484.168C22.008 4.22 30.593 2.667 40 2.667S57.992 4.22 62.968 6.82c.482.253 1.07.186 1.484-.168 4.516-3.858 7.2-4.133 7.476-3.853.036.035.133.133.133.455 0 2.162-3.65 6.826-6.122 9.296a1.333 1.333 0 00-.312 1.392c.18.502.36 1.02.533 1.564 4.405 14.018 4.157 37.636-.532 50.544z"/><path d="M18.708 14.588a1.333 1.333 0 001.707-.8l.901-2.514A53.569 53.569 0 0136 9.334a1.333 1.333 0 100-2.667 55.638 55.638 0 00-16.097 2.24 1.333 1.333 0 00-.868.825l-1.131 3.151a1.333 1.333 0 00.804 1.705zm41.788 53.864C57.216 70.167 50.11 72 40 72s-17.216-1.833-20.496-3.548a1.333 1.333 0 10-1.237 2.361c3.561 1.864 11.141 3.854 21.733 3.854s18.172-1.99 21.733-3.854a1.333 1.333 0 10-1.237-2.361zM34.75 57.305c2.767.077 5.45-.956 7.451-2.87a10.266 10.266 0 002.896-7.466 17.299 17.299 0 00-5.416-11.933c-6.037-6.039-14.761-7.17-19.452-2.51A10.267 10.267 0 0017.333 40a17.294 17.294 0 005.419 11.932 17.436 17.436 0 0011.997 5.373zm-7.053-25.013A14.827 14.827 0 0137.8 36.924a14.83 14.83 0 014.632 10.05 8.701 8.701 0 01-.524 3.075 8.951 8.951 0 00-3.82-1.22 5.867 5.867 0 01-5.554-5.54 8.5 8.5 0 00-7.813-7.799 6.473 6.473 0 01-2.793-.848c.066-.072.114-.158.184-.228a7.74 7.74 0 015.586-2.122zM20 39.988a8.743 8.743 0 01.525-3.078 8.962 8.962 0 003.819 1.22 5.867 5.867 0 015.552 5.54 8.503 8.503 0 007.815 7.797 6.456 6.456 0 012.793.846c-.067.072-.115.16-.185.23-3.646 3.62-10.682 2.494-15.683-2.51A14.831 14.831 0 0120 39.988z"/><path d="M51.2 21.6a10.941 10.941 0 00-2.4-.267c-4.479.015-8.69 2.827-11.268 7.525a1.333 1.333 0 002.339 1.28c2.133-3.889 5.392-6.126 8.933-6.133.213 0 .43.01.648.028a7.529 7.529 0 01-1.716 3.408 9.74 9.74 0 000 12.697 6.942 6.942 0 011.82 4.759 6.831 6.831 0 01-1.816 4.736 9.508 9.508 0 00-2.36 6.101 1.333 1.333 0 001.025 1.33c.787.187 1.592.28 2.4.274 7.655-.014 13.867-8.089 13.855-18 .021-8.786-4.803-16.245-11.46-17.738zm-2.39 33.066c-.22 0-.434-.008-.643-.025a7.49 7.49 0 011.716-3.412 9.741 9.741 0 000-12.699 6.934 6.934 0 01-1.82-4.757 6.831 6.831 0 011.816-4.736 10.069 10.069 0 002.173-4.37c4.63 1.938 7.959 7.922 7.948 14.666.012 8.444-5.01 15.321-11.19 15.333zM41.333 9.334a1.333 1.333 0 100-2.667 1.333 1.333 0 000 2.667z"/></g><defs><clipPath id="fclip0"><path d="M0 0h80v80H0z"/></clipPath></defs></symbol><symbol viewBox="0 0 80 80" id="l-g2" xmlns="http://www.w3.org/2000/svg"><path d="M2.75 29.114l.649 8.242A2.643 2.643 0 00.952 40.21l2.104 26.666a2.68 2.68 0 002.657 2.458h.202l.557 6.996A3.99 3.99 0 0010.467 80H32.2a4 4 0 004-3.681l.552-6.985h.201a2.68 2.68 0 002.658-2.458l2.104-26.666a2.643 2.643 0 00-2.447-2.854l.65-8.242a3.992 3.992 0 002.749-3.78V22.49a4.013 4.013 0 00-3.734-3.991l-.266-.019v-3.813a4 4 0 00-4-4H8a4 4 0 00-4 4v1.541a3.97 3.97 0 00-4 3.983v5.143a3.99 3.99 0 002.75 3.78zm33.845 8.22H6.072l-.63-8h31.782l-.63 8zm-3.056 38.764a1.333 1.333 0 01-1.334 1.236H10.467a1.333 1.333 0 01-1.334-1.226l-.542-6.774h25.485l-.537 6.764zm3.414-9.431H5.715L3.61 40h35.445l-2.103 26.667zM8 13.334h26.667c.736 0 1.333.597 1.333 1.333v3.636L6.667 16.359v-1.692c0-.736.597-1.333 1.333-1.333zM2.667 20.19c0-.736.597-1.333 1.333-1.333h.096l1.21.08h.044l33.411 2.214c.7.049 1.243.632 1.241 1.334v2.848c0 .736-.596 1.333-1.333 1.333H4a1.333 1.333 0 01-1.333-1.333V20.19z"/><path d="M14.8 46.8c-4.64 4.624-5.481 11.334-1.874 14.952a8.031 8.031 0 005.78 2.236 13.285 13.285 0 009.161-4.121c4.639-4.624 5.48-11.333 1.873-14.95-3.606-3.618-10.321-2.76-14.94 1.883zm1.886 1.886a10.676 10.676 0 017.266-3.36 5.467 5.467 0 013.714 1.334 5.542 5.542 0 01-1.548.39 6.667 6.667 0 00-6.102 6.105 4.035 4.035 0 01-3.84 3.844 7.503 7.503 0 00-2.594.75c-.798-2.702.329-6.306 3.101-9.069l.003.006zm9.304 9.304c-3.503 3.514-8.371 4.389-10.99 2.034a5.557 5.557 0 011.558-.4 6.667 6.667 0 006.1-6.105 4.035 4.035 0 013.841-3.844 7.505 7.505 0 002.595-.75c.79 2.695-.338 6.298-3.107 9.06l.003.005zm-4.173-50a1.325 1.325 0 001.492-1.155l.531-4.168h45.312l-1.019 8h-1.466a1.333 1.333 0 100 2.666h1.124l-6.299 49.334H43.853a1.333 1.333 0 000 2.666h18.814c.147-.002.293-.029.432-.08.048-.017.09-.042.133-.064.059-.022.116-.049.17-.08l7.851-5.233 6.771-2.257A2.667 2.667 0 0079.82 54.7L71.985 1.14a.907.907 0 00-.036-.1 1.182 1.182 0 00-.082-.23 1.254 1.254 0 00-.148-.266c-.022-.03-.028-.065-.052-.093-.024-.028-.067-.043-.098-.071a1.41 1.41 0 00-.45-.283 1.276 1.276 0 00-.303-.065 1.418 1.418 0 00-.15-.032H23.84a2.667 2.667 0 00-2.64 2.325L20.667 6.5a1.333 1.333 0 001.15 1.49zm55.368 47.098L72 56.816V40a1.333 1.333 0 10-2.667 0v17.953L64.36 61.27l6.4-50.112 6.425 43.931z"/><path d="M61.334 10.667h-2.667a1.333 1.333 0 100 2.667h2.666a1.333 1.333 0 000-2.667zm-8 2.667a1.333 1.333 0 000-2.667h-2.667a1.333 1.333 0 100 2.667h2.666zM46.667 12c0-.736-.597-1.333-1.334-1.333h-2.666a1.333 1.333 0 100 2.667h2.666c.737 0 1.334-.597 1.334-1.334zm6.84 29.334h-7.974a1.333 1.333 0 100 2.666h7.974a2.681 2.681 0 002.64-2.29l2.294-16.014a2.666 2.666 0 00-2.64-3.029h-9.134a1.333 1.333 0 100 2.667H55.8l-2.293 16z"/></symbol><symbol viewBox="0 0 80 70" id="l-g3" xmlns="http://www.w3.org/2000/svg"><path d="M68 .333H12C5.376.341.008 5.709 0 12.333v32c.008 6.624 5.376 11.992 12 12h5.333v10.46a2.644 2.644 0 001.547 2.423 2.65 2.65 0 002.848-.385l14.761-12.498H68c6.624-.008 11.992-5.376 12-12v-32c-.008-6.624-5.376-11.992-12-12zm9.333 44A9.344 9.344 0 0168 53.666H36.49a2.67 2.67 0 00-1.725.632L20 66.793v-10.46a2.667 2.667 0 00-2.667-2.667H12a9.344 9.344 0 01-9.333-9.333v-32A9.344 9.344 0 0112 3h56a9.344 9.344 0 019.333 9.333v32z"/><path fill-rule="evenodd" clip-rule="evenodd" d="M73.333 43c-.736 0-1.333.597-1.333 1.333a4 4 0 01-4 4A1.333 1.333 0 0068 51a6.675 6.675 0 006.666-6.667c0-.736-.596-1.333-1.333-1.333zM12 5.666a6.675 6.675 0 00-6.667 6.667 1.333 1.333 0 102.667 0 4 4 0 014-4 1.333 1.333 0 100-2.667z"/><path d="M28.943 11.39c-.25-.25-.59-.39-.943-.39H16a2.667 2.667 0 00-2.667 2.667V43A2.667 2.667 0 0016 45.667h21.333A2.667 2.667 0 0040 43V23c0-.354-.14-.693-.39-.943L28.942 11.391zm.39 4.162l6.115 6.115h-6.115v-6.115zM16 43V13.667h10.667v8a2.667 2.667 0 002.666 2.666h8V43H16z"/><path fill-rule="evenodd" clip-rule="evenodd" d="M69.334 37.666v-6.667a1.333 1.333 0 10-2.667 0v6.667H48v-6.667a1.333 1.333 0 00-2.666 0v6.667A2.667 2.667 0 0048 40.333h18.667a2.667 2.667 0 002.666-2.667z"/><path fill-rule="evenodd" clip-rule="evenodd" d="M56.39 34.608c.521.52 1.365.52 1.886 0l4-4a1.333 1.333 0 00-1.885-1.885l-1.724 1.724V20.332a1.333 1.333 0 10-2.667 0v10.115l-1.724-1.724a1.333 1.333 0 00-1.885 1.885l4 4z"/></symbol><symbol viewBox="0 0 62 80" id="l-g4" xmlns="http://www.w3.org/2000/svg"><path d="M30.681 47.036c-6.037-6.037-14.761-7.169-19.45-2.51a10.267 10.267 0 00-2.898 7.466 17.29 17.29 0 005.418 11.932 17.429 17.429 0 0012 5.382 10.366 10.366 0 007.453-2.87 10.267 10.267 0 002.896-7.468 17.29 17.29 0 00-5.419-11.932zM15.636 62.04A14.829 14.829 0 0111 51.99a8.707 8.707 0 01.525-3.078 8.962 8.962 0 003.818 1.22 5.867 5.867 0 015.553 5.539 8.505 8.505 0 007.815 7.797 6.468 6.468 0 012.793.845c-.067.074-.116.162-.185.231-3.646 3.624-10.682 2.497-15.683-2.504zm17.27.01a8.934 8.934 0 00-3.818-1.218 5.867 5.867 0 01-5.555-5.54 8.503 8.503 0 00-7.813-7.8 6.482 6.482 0 01-2.793-.847c.066-.073.114-.16.185-.23a7.734 7.734 0 015.583-2.122 14.825 14.825 0 0110.102 4.634 14.823 14.823 0 014.632 10.048 8.7 8.7 0 01-.524 3.076z"/><path d="M29.067 42.667a1.334 1.334 0 001.81-.533c2.134-3.89 5.391-6.133 8.934-6.14.212 0 .428.01.648.028a7.522 7.522 0 01-1.716 3.407 9.741 9.741 0 000 12.698 6.944 6.944 0 011.82 4.759 6.826 6.826 0 01-1.816 4.736 9.514 9.514 0 00-2.36 6.101 1.334 1.334 0 001.024 1.334c.786.187 1.591.28 2.4.274 7.653-.013 13.866-8.089 13.854-18 .014-8.782-4.81-16.24-11.466-17.733a11.084 11.084 0 00-2.399-.264c-4.479.013-8.69 2.827-11.267 7.524a1.334 1.334 0 00.534 1.81zm13.985-6c4.63 1.94 7.959 7.924 7.948 14.667.01 8.443-5.01 15.321-11.19 15.333-.22 0-.434-.008-.643-.024a7.503 7.503 0 011.716-3.412 9.744 9.744 0 000-12.698 6.933 6.933 0 01-1.822-4.759 6.825 6.825 0 011.816-4.736 10.08 10.08 0 002.175-4.37z"/><path d="M1.555 40.807a44.18 44.18 0 00-.644 9.607A30.81 30.81 0 0014 74.862 30.533 30.533 0 0031 80a30.868 30.868 0 0028.736-19.923 35.83 35.83 0 001.717-12.11A43.407 43.407 0 0057.32 31.12 107.772 107.772 0 0043.903 9.795c-.788-1.013-1.586-2.126-2.4-3.258A63.526 63.526 0 0036.929.646a2 2 0 00-3.44.981c-.133.695-.266 1.458-.414 2.267-.934 5.2-2.826 16.01-6 15.852-1.442-.08-1.916-2.31-2.355-5.037a29.926 29.926 0 01-.335-3.256 1.993 1.993 0 00-3.748-.851 28.118 28.118 0 00-3.141 11.975 35.335 35.335 0 00.18 5.572 7.437 7.437 0 01-.643 4.774.968.968 0 01-.704.39 1.02 1.02 0 01-.822-.24c-1.384-1.134-1.734-5.16-1.856-6.478a37.86 37.86 0 01-.095-4.424 2 2 0 00-1.356-1.973 1.979 1.979 0 00-2.25.725 49.826 49.826 0 00-8.395 19.884zm9.312-16.497c.013.878.054 1.717.122 2.516.283 3.2.84 6.681 2.822 8.308a3.7 3.7 0 002.8.83 3.637 3.637 0 002.496-1.373c1.554-1.934 1.366-5.356 1.214-6.737a32.694 32.694 0 01-.166-5.15c.117-2.939.72-5.839 1.782-8.582.044.35.094.7.15 1.05.452 2.8 1.132 7.03 4.834 7.235 5.432.29 7.302-9.866 8.774-18.041l.16-.893c1.184 1.417 2.348 3.038 3.48 4.618.832 1.16 1.652 2.303 2.46 3.342a105.25 105.25 0 0113.094 20.8 40.772 40.772 0 013.895 15.813c.119 3.78-.41 7.553-1.564 11.155A28.17 28.17 0 0131 77.334a27.866 27.866 0 01-15.52-4.69A28.133 28.133 0 013.573 50.297c-.127-3.02.076-6.045.606-9.021 0-.023.01-.046.014-.068a47.08 47.08 0 016.674-16.9z"/></symbol><symbol viewBox="0 0 80 78" id="l-g5" xmlns="http://www.w3.org/2000/svg"><path d="M48.867 65.666h13.948c.147-.002.293-.029.432-.08.045-.019.09-.04.133-.065.058-.022.115-.048.17-.079l7.853-5.234 6.77-2.258a2.667 2.667 0 001.795-2.916L72.133 1.473c0-.036-.028-.064-.036-.1a1.33 1.33 0 00-.082-.23 1.245 1.245 0 00-.15-.267.872.872 0 00-.05-.091c-.027-.03-.066-.043-.095-.07a1.334 1.334 0 00-.441-.282 1.231 1.231 0 00-.328-.07 1.177 1.177 0 00-.138-.03H23.987a2.656 2.656 0 00-2.643 2.324l-4.533 35.481a1.334 1.334 0 002.646.338L23.987 3H69.3l-7.661 60H48.867a1.333 1.333 0 100 2.666zM70.904 11.49l6.43 43.931-5.187 1.733V40.333a1.333 1.333 0 00-2.667 0v17.953l-4.973 3.316 6.397-50.112z"/><path d="M62.667 13.666a1.333 1.333 0 000-2.667H60a1.333 1.333 0 000 2.667h2.667zm-8 0a1.333 1.333 0 000-2.667H52a1.333 1.333 0 000 2.667h2.667zm-8 0a1.333 1.333 0 000-2.667H44a1.333 1.333 0 000 2.667h2.667zm-8.122 0a1.333 1.333 0 000-2.667H35.88a1.333 1.333 0 000 2.667h2.666zm-8 0a1.333 1.333 0 000-2.667H27.88a1.333 1.333 0 000 2.667h2.666zm25.75 28.375l2.293-16.012A2.667 2.667 0 0055.947 23H31.625a2.679 2.679 0 00-2.64 2.292l-2.294 16.012a2.667 2.667 0 002.642 3.03h24.32a2.683 2.683 0 002.642-2.293zm-26.962-.374l2.294-16h24.32l-2.294 16h-24.32zm13.099 11.187c-4.684-4.652-13.408-3.524-19.444 2.512a17.301 17.301 0 00-5.419 11.936 9.883 9.883 0 0010.347 10.336 17.439 17.439 0 0012-5.38 17.293 17.293 0 005.417-11.925 10.267 10.267 0 00-2.901-7.479zm-17.562 4.4a14.824 14.824 0 0110.1-4.63 7.734 7.734 0 015.58 2.12c.07.07.12.158.187.233-.854.49-1.809.78-2.792.846a8.5 8.5 0 00-7.813 7.799 5.867 5.867 0 01-5.552 5.54 8.944 8.944 0 00-3.819 1.22 8.674 8.674 0 01-.525-3.076 14.834 14.834 0 014.634-10.052zm13.163 13.113c-5 5.003-12.036 6.134-15.677 2.514-.072-.072-.122-.16-.19-.235.855-.49 1.81-.78 2.793-.845a8.503 8.503 0 007.814-7.802 5.867 5.867 0 015.55-5.533 8.956 8.956 0 003.817-1.22 8.71 8.71 0 01.526 3.075 14.83 14.83 0 01-4.633 10.046z"/><path d="M22.79 50.466a1.333 1.333 0 002.34-1.28c-2.578-4.693-6.79-7.505-11.273-7.52a10.88 10.88 0 00-2.386.267C4.804 43.422-.015 50.88.004 59.666c-.019 9.91 6.196 17.985 13.853 18a10.05 10.05 0 002.4-.275 1.333 1.333 0 001.025-1.33 9.516 9.516 0 00-2.358-6.1 6.825 6.825 0 01-1.817-4.736 6.941 6.941 0 011.813-4.759 9.74 9.74 0 000-12.697 7.528 7.528 0 01-1.716-3.408 7.59 7.59 0 01.65-.028c3.545.012 6.802 2.249 8.937 6.133zm-8.18 3.64a6.933 6.933 0 01-1.82 4.76 9.741 9.741 0 000 12.699 7.496 7.496 0 011.715 3.412 7.724 7.724 0 01-.64.025c-6.189-.015-11.21-6.892-11.198-15.336-.011-6.743 3.318-12.727 7.948-14.667A10.068 10.068 0 0012.8 49.37a6.83 6.83 0 011.81 4.736zM36 32.333h13.333a1.333 1.333 0 000-2.667H36a1.333 1.333 0 000 2.667zM46.667 35h-9.334a1.333 1.333 0 000 2.667h9.334a1.333 1.333 0 000-2.667z"/></symbol><symbol viewBox="0 0 80 80" id="l-g6" xmlns="http://www.w3.org/2000/svg"><g clip-path="url(#kclip0)"><path d="M53.333 28a13.333 13.333 0 00-20.742-11.086 1.334 1.334 0 101.485 2.216 10.64 10.64 0 11-4.133 5.315 1.334 1.334 0 00-2.516-.888A13.333 13.333 0 1053.333 28zM19.29 22.69a1.333 1.333 0 00-1.558 1.06 22.87 22.87 0 00-.399 4.25A1.333 1.333 0 0020 28c0-1.259.118-2.514.352-3.75a1.333 1.333 0 00-1.061-1.56zM41.333 6.667c0-.736-.597-1.333-1.333-1.333a22.753 22.753 0 00-19.633 11.333 1.333 1.333 0 002.308 1.334A20.079 20.079 0 0140 8c.736 0 1.333-.597 1.333-1.334zM1.333 80H4a1.333 1.333 0 000-2.666H1.333a1.333 1.333 0 100 2.667zm77.334-2.666H76a1.333 1.333 0 100 2.667h2.667a1.333 1.333 0 000-2.667z"/><path d="M8 78.667C8 79.403 8.597 80 9.333 80h61.334a1.333 1.333 0 000-2.666H42.839C48.933 69.828 68 44.963 68 27.414 67.82 12.122 55.295-.141 40 0 24.706-.142 12.181 12.12 12 27.415c0 17.548 19.067 42.413 25.161 49.919H9.333c-.736 0-1.333.596-1.333 1.333zm32-76c13.823-.145 25.155 10.926 25.333 24.748 0 17.252-20.496 43.268-25.333 49.168-4.837-5.9-25.333-31.916-25.333-49.168C14.845 13.593 26.177 2.522 40 2.667zM8 0c-.736 0-1.333.597-1.333 1.333V4a1.333 1.333 0 102.666 0V1.333C9.333.597 8.736 0 8 0zM6.667 14.667a1.333 1.333 0 102.666 0V12a1.333 1.333 0 10-2.666 0v2.667zM1.333 9.334H4a1.333 1.333 0 100-2.667H1.333a1.333 1.333 0 000 2.667zm13.334 0a1.333 1.333 0 100-2.667H12a1.333 1.333 0 100 2.667h2.667z"/><path d="M69.333 56a1.333 1.333 0 10-2.666 0v2.667a1.333 1.333 0 102.666 0V56zM68 65.334c-.736 0-1.333.597-1.333 1.333v2.667a1.333 1.333 0 102.666 0v-2.667c0-.736-.597-1.333-1.333-1.333zm-6.667-4.001a1.333 1.333 0 000 2.667H64a1.333 1.333 0 000-2.667h-2.667zM74.667 64a1.333 1.333 0 000-2.667H72A1.333 1.333 0 0072 64h2.667z"/></g><defs><clipPath id="kclip0"><path d="M0 0h80v80H0z"/></clipPath></defs></symbol><symbol viewBox="0 0 86 120" id="l-p1" xmlns="http://www.w3.org/2000/svg"><path d="M86 35.146a6 6 0 00-.912-3.18L76 17.426V1.97a2.017 2.017 0 00-.136-.676c-.028-.054-.052-.094-.078-.156a2.014 2.014 0 00-.084-.188 2.003 2.003 0 00-.246-.302C75.434.624 75.42.6 75.4.572A2.03 2.03 0 0074.846.2a1.484 1.484 0 00-.156-.06A1.966 1.966 0 0074 0H12a1.976 1.976 0 00-.692.14c-.062.022-.118.05-.178.078a2 2 0 00-.456.308c-.036.032-.076.056-.108.09-.143.144-.263.31-.356.49L7.658 6.212A3.964 3.964 0 0010 11.782v5.646L.912 31.968A5.978 5.978 0 000 35.146V114a6 6 0 006 6h74a6 6 0 006-6V35.146zM14 12h54.764A3.944 3.944 0 0072 10.288V16H14v-4zm56.764-8l-2 4H11.236l2-4h57.528zM6 116a2 2 0 01-2-2V36h10a2 2 0 100-4H5.6l7.502-12H70.4l-7.48 11.966-.024.034H26a2 2 0 100 4h36v80H6zm74 0H66V35.146a2 2 0 01.304-1.06L74 21.774l7.696 12.312a2 2 0 01.304 1.06V114a2 2 0 01-2 2z"/></symbol><symbol viewBox="0 0 86 120" id="l-p2" xmlns="http://www.w3.org/2000/svg"><path d="M20 108h-8v-8a2 2 0 10-4 0v10a2 2 0 002 2h10a2 2 0 100-4z"/><path d="M86 35.146a6 6 0 00-.912-3.18L76 17.426V1.97a2.017 2.017 0 00-.136-.676c-.028-.054-.052-.094-.078-.156a1.988 1.988 0 00-.084-.188 1.997 1.997 0 00-.246-.302C75.434.624 75.42.6 75.4.572A2.03 2.03 0 0074.846.2a1.484 1.484 0 00-.156-.06A1.966 1.966 0 0074 0H12a1.976 1.976 0 00-.692.14c-.062.022-.118.05-.178.078a2.002 2.002 0 00-.456.308c-.036.032-.076.056-.108.09-.143.144-.263.31-.356.49L7.658 6.212A3.964 3.964 0 0010 11.782v5.646L.912 31.968A5.978 5.978 0 000 35.146V114a6 6 0 006 6h74a6 6 0 006-6V35.146zM14 12h54.764A3.944 3.944 0 0072 10.288V16H14v-4zm56.764-8l-2 4H11.236l2-4h57.528zM6 116a2 2 0 01-2-2V36h10a2 2 0 100-4H5.6l7.502-12H70.4l-7.48 11.966-.024.034H26a2 2 0 000 4h36v80H6zm74 0H66V35.146a2 2 0 01.304-1.06L74 21.774l7.696 12.312a2 2 0 01.304 1.06V114a2 2 0 01-2 2z"/><path d="M76 38a2 2 0 00-4 0v64a2 2 0 104 0V38zM49.614 58.366c-7.084-7.034-20.284-5.324-29.414 3.8A26.165 26.165 0 0012 80.224a14.948 14.948 0 0015.648 15.638A26.4 26.4 0 0045.8 87.716 26.17 26.17 0 0054 69.664a15.528 15.528 0 00-4.386-11.298zM23.024 65c4-4.235 9.487-6.75 15.306-7.016A11.73 11.73 0 0146.8 61.2c.112.112.19.252.298.37a9.814 9.814 0 01-4.252 1.298 12.854 12.854 0 00-11.816 11.8 8.896 8.896 0 01-8.422 8.4c-2.05.172-4.033.808-5.8 1.86a13.235 13.235 0 01-.8-4.69A22.47 22.47 0 0123.024 65zM42.98 84.88c-7.582 7.582-18.246 9.29-23.766 3.8-.112-.114-.19-.254-.298-.372a9.78 9.78 0 014.252-1.296 12.858 12.858 0 0011.816-11.8 8.9 8.9 0 018.422-8.4c2.05-.17 4.033-.806 5.8-1.858a13.23 13.23 0 01.8 4.69 22.46 22.46 0 01-7.026 15.238v-.002z"/></symbol><symbol viewBox="0 0 80 80" id="l-t1" xmlns="http://www.w3.org/2000/svg"><path d="M62.653 35.907a6.623 6.623 0 00-5.262-2.573H22.609a6.628 6.628 0 00-5.264 2.573L1.405 56.4A6.69 6.69 0 000 60.496v12.838A6.675 6.675 0 006.667 80h66.666A6.675 6.675 0 0080 73.334V60.496a6.698 6.698 0 00-1.404-4.096L62.653 35.907zm14.68 37.427a4 4 0 01-4 4H6.667a4 4 0 01-4-4V60.496a4.023 4.023 0 01.842-2.455l15.942-20.497A4.029 4.029 0 0122.609 36h34.782a4.03 4.03 0 013.158 1.544l15.942 20.498a4.02 4.02 0 01.842 2.454v12.838z"/><path d="M62.667 60h-6.352a3.979 3.979 0 00-3.578 2.21l-2.526 5.053a1.325 1.325 0 01-1.192.737H30.98a1.325 1.325 0 01-1.192-.737l-2.526-5.053A3.978 3.978 0 0023.685 60H9.333l14.4-19.2a1.333 1.333 0 00-2.133-1.6l-16 21.333a1.333 1.333 0 001.067 2.133h17.018c.506-.001.968.285 1.192.738l2.527 5.052a3.979 3.979 0 003.577 2.21H49.02a3.979 3.979 0 003.577-2.21l2.527-5.052a1.325 1.325 0 011.192-.738h6.352a1.333 1.333 0 100-2.666zM58.4 39.2a1.333 1.333 0 00-1.067-.534H30.667a1.333 1.333 0 000 2.667h26l15.6 20.8a1.333 1.333 0 102.133-1.6L58.4 39.2zm-35.733-9.867h34.666A5.333 5.333 0 0062.667 24V5.333a5.31 5.31 0 00-1.676-3.866c-.018-.02-.042-.027-.059-.046A5.301 5.301 0 0057.333 0H22.667a5.292 5.292 0 00-3.594 1.419c-.018.018-.042.025-.06.045a5.31 5.31 0 00-1.68 3.87V24a5.333 5.333 0 005.334 5.333zm0-2.666a2.71 2.71 0 01-.568-.064l7.849-6.934a1.334 1.334 0 00-1.765-2l-8.05 7.115A2.633 2.633 0 0120 24V5.333c0-.355.07-.707.21-1.034l16.26 14.368a5.333 5.333 0 007.066 0L59.803 4.305c.133.326.2.676.197 1.028V24a2.68 2.68 0 01-.133.784l-8.052-7.116a1.334 1.334 0 10-1.766 2l7.85 6.933a2.642 2.642 0 01-.566.066H22.667zm34.666-24c.086 0 .166.017.25.025L41.765 16.667a2.667 2.667 0 01-3.53 0L22.417 2.692c.084-.008.164-.025.25-.025h34.666z"/></symbol><symbol viewBox="0 0 78 80" id="l-t2" xmlns="http://www.w3.org/2000/svg"><path d="M37 13.334C20.063 13.334 6.333 27.064 6.333 44c0 16.937 13.73 30.667 30.667 30.667S67.667 60.937 67.667 44C67.648 27.071 53.929 13.352 37 13.334zM37 72C21.536 72 9 59.464 9 44s12.536-28 28-28 28 12.536 28 28c-.018 15.457-12.543 27.983-28 28z"/><path d="M14.333 44a1.333 1.333 0 00-2.666 0c0 1.894.211 3.782.632 5.63a1.333 1.333 0 102.598-.593A22.81 22.81 0 0114.333 44zM37 66.667a22.533 22.533 0 01-17.93-8.816 1.333 1.333 0 10-2.109 1.632 25.181 25.181 0 0020.04 9.85 1.333 1.333 0 000-2.666zm10.276-12.391c.52-.52.52-1.365 0-1.886l-8.943-8.942V24a1.333 1.333 0 00-2.666 0v20c0 .353.14.693.39.943l9.334 9.333c.52.52 1.364.52 1.885 0zM25.845 27.347a1.333 1.333 0 102.31-1.333l-2-3.467a1.333 1.333 0 00-2.31 1.333l2 3.467zm22.31 33.306a1.334 1.334 0 10-2.31 1.334l2 3.466a1.333 1.333 0 002.31-1.333l-2-3.467zm-28.476-25.32a1.333 1.333 0 00.666-2.488l-3.466-2a1.333 1.333 0 00-1.334 2.31l3.467 2c.203.117.433.179.667.178zm33.486 18a1.333 1.333 0 00.488 1.822l3.467 2a1.333 1.333 0 101.333-2.31l-3.467-2a1.333 1.333 0 00-1.82.488z"/><path d="M70.172 21.495a4 4 0 105.656-5.656L65.161 5.172a4 4 0 00-5.656 5.656l.618.617-2.85 2.848A35.503 35.503 0 0042.333 8.4V5.333a5.333 5.333 0 10-10.666 0V8.4C12.689 11.243-.723 28.472 1.177 47.566c1.9 19.096 18.443 33.344 37.608 32.392C57.951 79.008 73.001 63.19 73 44a35.6 35.6 0 00-6.293-20.267l2.848-2.849.617.61zM61.391 7.057c.52-.52 1.364-.52 1.885 0l10.667 10.667c.52.52.52 1.365 0 1.885a1.367 1.367 0 01-1.886 0l-1.534-1.534c-.008-.01-.011-.022-.02-.031-.01-.01-.022-.012-.031-.02l-7.496-7.49c-.008-.01-.01-.022-.02-.031-.01-.01-.021-.012-.03-.02l-1.535-1.54a1.333 1.333 0 010-1.886zM34.333 5.333a2.667 2.667 0 015.334 0v2.771A36.893 36.893 0 0037 8c-.895 0-1.785.044-2.667.11V5.332zm2.667 72C18.59 77.333 3.667 62.41 3.667 44 3.667 25.59 18.59 10.667 37 10.667a32.981 32.981 0 0119.65 6.42 32.96 32.96 0 017.255 7.254A32.981 32.981 0 0170.333 44C70.313 62.401 55.401 77.313 37 77.333zM65.123 21.54a35.522 35.522 0 00-5.662-5.662l2.547-2.544 5.659 5.659-2.544 2.547z"/></symbol><symbol viewBox="0 0 80 80" id="l-t3" xmlns="http://www.w3.org/2000/svg"><g clip-path="url(#pclip0)"><path d="M67.19 20.893a4.028 4.028 0 00-3.169-1.56H53.333v-6.666A9.344 9.344 0 0044 3.333H9.333A9.344 9.344 0 000 12.667v34.666a6.679 6.679 0 005.333 6.534V62a5.333 5.333 0 005.334 5.334H12a9.333 9.333 0 0018.667 0h22.666a9.333 9.333 0 0018.667 0h2.667A5.333 5.333 0 0080 62V38.908a4.018 4.018 0 00-.83-2.439L67.19 20.893zm10.143 18.015v4.425H60A1.333 1.333 0 0158.667 42V28.667c0-.737.597-1.334 1.333-1.334h8.78l8.277 10.762c.18.233.277.519.276.813zM2.667 47.333V12.668A6.675 6.675 0 019.333 6H44a6.675 6.675 0 016.667 6.667v38.666h-44a4 4 0 01-4-4zM21.333 74A6.667 6.667 0 1128 67.334 6.675 6.675 0 0121.333 74zm41.334 0a6.667 6.667 0 116.666-6.666A6.675 6.675 0 0162.667 74zm12-9.333H71.6a9.333 9.333 0 00-17.867 0h-23.46a9.333 9.333 0 00-17.873 0h-1.733A2.667 2.667 0 018 62v-8h57.333a1.333 1.333 0 000-2.666h-12V22h10.688c.414.002.803.193 1.056.52l1.651 2.147H60a4 4 0 00-4 4V42a4 4 0 004 4h17.333v16a2.667 2.667 0 01-2.666 2.667z"/><path d="M21.333 63.334a4 4 0 100 8 4 4 0 000-8zm0 5.333a1.333 1.333 0 110-2.667 1.333 1.333 0 010 2.667zm41.334-5.333a4 4 0 100 8 4 4 0 000-8zm0 5.333a1.333 1.333 0 110-2.667 1.333 1.333 0 010 2.667zm10.666-17.333h-2.666a1.333 1.333 0 000 2.666h2.666a1.333 1.333 0 000-2.666zM62.667 30c-.737 0-1.334.597-1.334 1.333v1.334a1.333 1.333 0 002.667 0v-1.334c0-.736-.597-1.333-1.333-1.333zm0 6.667c-.737 0-1.334.597-1.334 1.333v1.334a1.333 1.333 0 002.667 0V38c0-.736-.597-1.333-1.333-1.333zM8 11.334h2.667a1.333 1.333 0 000-2.667H8a1.333 1.333 0 100 2.667zm9.333 0h17.334a1.333 1.333 0 000-2.667H17.333a1.333 1.333 0 000 2.667zm18.667 48h-2.667a1.333 1.333 0 000 2.666H36a1.333 1.333 0 000-2.666zm14.667 0h-9.334a1.333 1.333 0 000 2.666h9.334a1.333 1.333 0 000-2.666z"/></g><defs><clipPath id="pclip0"><path d="M0 0h80v80H0z"/></clipPath></defs></symbol><symbol viewBox="0 0 20 18" id="tele" xmlns="http://www.w3.org/2000/svg"><path d="M7.848 11.65l-.331 4.654c.473 0 .678-.203.924-.448l2.219-2.12 4.598 3.367c.844.47 1.438.223 1.665-.776l3.019-14.143v-.001C20.21.936 19.492.449 18.67.755L.928 7.547c-1.21.47-1.192 1.145-.206 1.451l4.536 1.41 10.536-6.592c.496-.328.947-.146.576.182L7.847 11.65z"/></symbol><symbol viewBox="0 0 511.962 511.962" id="vk" xmlns="http://www.w3.org/2000/svg"><path d="M507.399 370.471c-1.376-2.304-9.888-20.8-50.848-58.816-42.88-39.808-37.12-33.344 14.528-102.176 31.456-41.92 44.032-67.52 40.096-78.464-3.744-10.432-26.88-7.68-26.88-7.68l-76.928.448s-5.696-.768-9.952 1.76c-4.128 2.496-6.784 8.256-6.784 8.256s-12.192 32.448-28.448 60.032c-34.272 58.208-48 61.28-53.6 57.664-13.024-8.416-9.76-33.856-9.76-51.904 0-56.416 8.544-79.936-16.672-86.016-8.384-2.016-14.528-3.36-35.936-3.584-27.456-.288-50.72.096-63.872 6.528-8.768 4.288-15.52 13.856-11.392 14.4 5.088.672 16.608 3.104 22.72 11.424 7.904 10.72 7.616 34.848 7.616 34.848s4.544 66.4-10.592 74.656c-10.4 5.664-24.64-5.888-55.2-58.72-15.648-27.04-27.488-56.96-27.488-56.96s-2.272-5.568-6.336-8.544c-4.928-3.616-11.84-4.768-11.84-4.768l-73.152.448s-10.976.32-15.008 5.088c-3.584 4.256-.288 13.024-.288 13.024s57.28 133.984 122.112 201.536c59.488 61.92 127.008 57.856 127.008 57.856h30.592s9.248-1.024 13.952-6.112c4.352-4.672 4.192-13.44 4.192-13.44s-.608-41.056 18.464-47.104c18.784-5.952 42.912 39.68 68.48 57.248 19.328 13.28 34.016 10.368 34.016 10.368l68.384-.96s35.776-2.208 18.816-30.336z"/></symbol></svg>