<?xml version="1.0" encoding="utf-8"?><svg xmlns="http://www.w3.org/2000/svg" xmlns:xlink="http://www.w3.org/1999/xlink"><symbol viewBox="0 0 75 75" id="bean" xmlns="http://www.w3.org/2000/svg"><path d="M37.42 1.001c-20.11 0-36.418 16.307-36.419 36.417 0 20.111 16.306 36.42 36.417 36.42s36.42-16.306 36.42-36.417S57.532 1 37.421 1zm-6.825 69.523a32.967 32.967 0 01-8.619-3.037C11.072 61.872 3.63 50.51 3.63 37.42c0-10.595 4.882-20.046 12.505-26.249a33.573 33.573 0 0121.107-7.54c3.167 4.325 4.88 9.157 4.93 14.348-.033 6.317-2.025 11.688-5.176 16.667-2.807 4.423-5.289 8.977-6.823 14.021-1.894 6.22-2.417 12.472-.426 18.773.229.75.588 1.469.8 2.22.05.245.098.604.05.865zm16.259-.636c-1.6.473-3.249.816-4.93 1.044-1.47.196-2.971.294-4.49.294h-.358c-.8 0-1.584-.049-2.367-.098-.343-.375-.67-.898-1.078-1.6-2.22-3.868-2.856-8.064-2.48-12.438.571-6.938 3.346-13.06 7.036-18.822 2.628-4.097 4.734-8.422 5.812-13.205 1.616-7.199.686-14.039-2.759-20.552-.097-.196-.277-.375-.293-.571 0-.033-.017-.082-.017-.115a33.868 33.868 0 016.954 1.47 34.014 34.014 0 015.322 2.253c10.724 5.664 18.02 16.928 18.02 29.905-.017 15.361-10.301 28.355-24.372 32.435z"/></symbol><symbol viewBox="0 0 24 24" id="close" xmlns="http://www.w3.org/2000/svg"><path d="M14.199 12l9.345-9.345a1.553 1.553 0 000-2.2 1.553 1.553 0 00-2.199 0L12 9.803 2.655.456a1.553 1.553 0 00-2.199 0 1.553 1.553 0 000 2.199L9.801 12 .456 21.346A1.553 1.553 0 001.556 24a1.55 1.55 0 001.099-.456L12 14.2l9.345 9.345a1.55 1.55 0 002.199 0 1.553 1.553 0 000-2.198L14.199 12z"/></symbol><symbol viewBox="0 0 55 55" id="free1" xmlns="http://www.w3.org/2000/svg"><path d="M50.039 2.075L3.457 15.214a2 2 0 00-.313 3.732l21.402 10.138a2 2 0 01.952.951l10.138 21.403a2 2 0 003.732-.313L52.507 4.543a2 2 0 00-2.468-2.468zM25.192 29.39l11.314-11.314"/></symbol><symbol viewBox="0 0 44 54" id="free2" xmlns="http://www.w3.org/2000/svg"><path d="M32 2H12v10h20V2z"/><path d="M32 6h8a2 2 0 012 2v42a2 2 0 01-2 2H4a2 2 0 01-2-2V8a2 2 0 012-2h8m2 28h16m-16 8h16M14 26h16"/></symbol><symbol viewBox="0 0 58 54" id="free3" xmlns="http://www.w3.org/2000/svg"><path d="M48 42H17.124a2 2 0 01-1.968-1.642L8.48 3.642A2 2 0 006.513 2H2"/><path d="M18 52a5 5 0 100-10 5 5 0 000 10zm30 0a5 5 0 100-10 5 5 0 000 10zM10 12h43.604a2 2 0 011.967 2.358l-3.272 18A2 2 0 0150.33 34H14"/></symbol><symbol viewBox="0 0 31 30" id="insta" xmlns="http://www.w3.org/2000/svg"><path d="M9.23 15.001c0 1.533.609 3.003 1.694 4.087a5.787 5.787 0 009.875-4.087 5.78 5.78 0 00-1.694-4.087 5.788 5.788 0 00-9.876 4.087zm9.541 0a3.753 3.753 0 01-3.758 3.755 3.76 3.76 0 01-3.758-3.755 3.753 3.753 0 013.758-3.755 3.76 3.76 0 013.758 3.755zm-8.406-6.008a1.348 1.348 0 10-2.696 0 1.348 1.348 0 002.696 0z"/><path d="M7.645 4.334a5.762 5.762 0 00-3.293 3.291 8.251 8.251 0 00-.525 2.733c-.053 1.203-.068 1.585-.068 4.637 0 3.053 0 3.444.068 4.638.018.933.196 1.856.525 2.73a5.75 5.75 0 003.293 3.29c.876.33 1.8.506 2.735.525 1.204.053 1.585.07 4.642.07 3.055 0 3.444 0 4.641-.07a8.258 8.258 0 002.736-.524 5.768 5.768 0 003.293-3.293 8.224 8.224 0 00.563-2.73c.053-1.205.069-1.586.069-4.638 0-3.053 0-3.444-.069-4.638a8.266 8.266 0 00-.524-2.732 5.767 5.767 0 00-3.294-3.292 8.245 8.245 0 00-2.735-.523c-1.204-.054-1.585-.07-4.642-.07-3.056 0-3.444 0-4.641.07a8.24 8.24 0 00-2.774.526zM19.57 5.856c.721.008 1.436.14 2.112.39a3.737 3.737 0 012.141 2.14c.248.668.38 1.374.389 2.087.055 1.187.069 1.522.069 4.567 0 3.048 0 3.359-.069 4.569a6.196 6.196 0 01-.389 2.086 3.731 3.731 0 01-2.14 2.149 6.362 6.362 0 01-2.089.389c-1.188.053-1.524.066-4.571.066-3.049 0-3.36 0-4.573-.066a6.308 6.308 0 01-2.11-.39 3.734 3.734 0 01-2.142-2.148 6.258 6.258 0 01-.39-2.086c-.053-1.189-.068-1.523-.068-4.569 0-3.046 0-3.359.069-4.567a6.18 6.18 0 01.389-2.088 3.739 3.739 0 012.142-2.14 6.36 6.36 0 012.088-.389c1.19-.053 1.523-.067 4.572-.067 3.048 0 3.376 0 4.572.054v.013h-.002z"/></symbol><symbol viewBox="0 0 12 16" id="loc" xmlns="http://www.w3.org/2000/svg"><path d="M6 .889A5.24 5.24 0 00.764 6.102c0 2.076 1.165 3.813 2.018 5.08l.156.231a44.28 44.28 0 002.729 3.556l.337.395.338-.395a44.374 44.374 0 002.73-3.556l.155-.235c.848-1.267 2.013-3 2.013-5.076A5.24 5.24 0 006 .889zm0 7.555a2.916 2.916 0 110-5.831 2.916 2.916 0 010 5.831z"/></symbol><symbol viewBox="0 0 99 92" id="o-prof1" xmlns="http://www.w3.org/2000/svg"><path d="M25 17.5v-14a3.5 3.5 0 017 0v14a3.5 3.5 0 11-7 0zM42.5 21a3.5 3.5 0 003.5-3.5v-14a3.5 3.5 0 10-7 0v14a3.5 3.5 0 003.5 3.5zm14 0a3.5 3.5 0 003.5-3.5v-14a3.5 3.5 0 10-7 0v14a3.5 3.5 0 003.5 3.5zm42 24.5V49a17.52 17.52 0 01-16.41 17.463A42.286 42.286 0 0170.265 84H81a3.5 3.5 0 010 7H58.61c-.017 0-.034.003-.05.003-.013 0-.025-.003-.037-.003H4a3.5 3.5 0 110-7h10.735A42.139 42.139 0 01.5 52.5v-21A3.5 3.5 0 014 28h77a17.52 17.52 0 0117.5 17.5zm-7 0a10.516 10.516 0 00-7-9.898V52.5a41.692 41.692 0 01-.526 6.569A10.517 10.517 0 0091.5 49v-3.5z"/></symbol><symbol viewBox="0 0 92 92" id="o-prof2" xmlns="http://www.w3.org/2000/svg"><path d="M46 .5A45.5 45.5 0 1091.5 46 45.552 45.552 0 0046 .5zm24.5 49H46a3.497 3.497 0 01-3.5-3.5V21.5a3.5 3.5 0 017 0v21h21a3.5 3.5 0 010 7z"/></symbol><symbol viewBox="0 0 96 96" id="o-prof3" xmlns="http://www.w3.org/2000/svg"><path d="M93.922 56.322l-3.92-5.882v-4.88l3.917-5.876a7.128 7.128 0 00.909-5.968 48.722 48.722 0 00-3.61-8.733 7.045 7.045 0 00-4.853-3.568l-6.938-1.388-3.453-3.452-1.387-6.938a7.038 7.038 0 00-3.575-4.857 48.947 48.947 0 00-8.723-3.606 7.066 7.066 0 00-5.968.905L50.442 6h-4.88l-5.883-3.92a7.034 7.034 0 00-5.96-.905 48.716 48.716 0 00-8.734 3.609 7.014 7.014 0 00-3.568 4.854l-1.388 6.938-3.452 3.452-6.945 1.388a7.023 7.023 0 00-4.85 3.572 48.958 48.958 0 00-3.61 8.726 7.049 7.049 0 00.906 5.964l3.924 5.882v4.881l-3.927 5.886a7.05 7.05 0 00-.903 5.96 48.681 48.681 0 003.61 8.72 7.01 7.01 0 004.853 3.579l6.942 1.388 3.452 3.452 1.388 6.935a6.997 6.997 0 003.568 4.86 48.483 48.483 0 008.726 3.603 6.97 6.97 0 005.968-.903L45.561 90h4.881l5.88 3.92a7.118 7.118 0 003.944 1.21 6.95 6.95 0 002.023-.304 48.771 48.771 0 008.72-3.606 6.99 6.99 0 003.574-4.853l1.388-6.942 3.456-3.453 6.941-1.387a7.05 7.05 0 004.854-3.575 48.757 48.757 0 003.606-8.723 7.125 7.125 0 00-.906-5.965zM48.001 69a21 21 0 110-42 21 21 0 010 42z"/></symbol><symbol viewBox="0 0 78 98" id="o-prof4" xmlns="http://www.w3.org/2000/svg"><path d="M77.5 59.5a38.5 38.5 0 11-77 0c0-10.157 3.361-20.581 9.99-30.983a3.5 3.5 0 015.088-.89l11.268 8.68L39.21 2.304A3.5 3.5 0 0144.649.737C45.99 1.78 77.5 26.666 77.5 59.5z"/></symbol><symbol viewBox="0 0 13 13" id="phone" xmlns="http://www.w3.org/2000/svg"><path d="M12.368 8.73L9.32 7.425a1.039 1.039 0 00-.988.09L6.7 8.602A4.983 4.983 0 014.407 6.32L5.49 4.665a1.04 1.04 0 00.086-.98L4.27.63A1.044 1.044 0 003.185.008 3.65 3.65 0 000 3.625C0 8.795 4.206 13 9.375 13a3.651 3.651 0 003.617-3.185 1.044 1.044 0 00-.624-1.084z"/></symbol><symbol viewBox="0 0 32 32" id="tele" xmlns="http://www.w3.org/2000/svg"><path d="M3.449 14.593l6.358 3.203a.807.807 0 00.771-.025l5.66-3.326-3.426 3.068a.826.826 0 00-.274.616v7.474c0 .788.996 1.12 1.463.494l2.748-3.694 6.797 3.913a.81.81 0 001.198-.552l4.24-21.354c.126-.642-.505-1.166-1.092-.927l-24.376 9.61c-.654.258-.697 1.183-.067 1.5zm23.65-9.034l-3.726 18.767-6.44-3.708a.809.809 0 00-1.053.22l-1.717 2.307v-4.647l9.264-8.297c.733-.655-.11-1.822-.947-1.325l-12.34 7.252-4.324-2.178 21.283-8.39z"/></symbol><symbol viewBox="0 0 16 16" id="teleg2" xmlns="http://www.w3.org/2000/svg"><path d="M8 16c4.42 0 8-3.58 8-8s-3.58-8-8-8-8 3.58-8 8 3.58 8 8 8zM3.66 7.827l7.714-2.974c.358-.13.67.087.555.628l-1.313 6.187c-.097.439-.358.545-.723.339l-2-1.474-.964.929c-.107.107-.197.197-.404.197l.142-2.036 3.707-3.348c.161-.142-.036-.222-.249-.081l-4.58 2.884-1.975-.616c-.429-.136-.438-.429.09-.635z"/></symbol><symbol viewBox="0 0 32 34" id="vk" xmlns="http://www.w3.org/2000/svg"><g clip-path="url(#oclip0)"><path d="M16.193 30.05c4.63 0 2.979-3.114 3.336-4.01-.005-.668-.01-1.312.011-1.703.293.088.985.46 2.415 1.937 2.206 2.366 2.77 3.775 4.553 3.775h3.281c1.04 0 1.582-.457 1.852-.841.262-.371.518-1.023.238-2.037-.732-2.443-5.002-6.66-5.267-7.105a4.11 4.11 0 01.137-.248h-.002c.842-1.183 4.058-6.303 4.532-8.351a.029.029 0 00.002-.011c.256-.935.022-1.542-.221-1.885-.365-.512-.947-.772-1.732-.772h-3.281c-1.099 0-1.932.588-2.354 1.66-.705 1.906-2.686 5.825-4.172 7.212a96.532 96.532 0 01.01-4.58c.048-2.175.202-4.292-1.922-4.292h-5.157c-1.33 0-2.604 1.545-1.225 3.378 1.205 1.606.433 2.502.693 6.958-1.013-1.154-2.816-4.272-4.09-8.257C7.471 9.799 6.93 8.8 5.406 8.8H2.125C.795 8.8 0 9.57 0 10.862c0 2.899 6.039 19.187 16.193 19.187zM5.407 10.925c.289 0 .318 0 .533.647C7.245 15.656 10.173 21.7 12.312 21.7c1.607 0 1.607-1.75 1.607-2.408l-.002-5.245c-.088-1.735-.682-2.6-1.073-3.124l4.677.006c.003.024-.026 5.801.014 7.2 0 1.989 1.485 3.128 3.804.634 2.446-2.934 4.138-7.32 4.206-7.498.1-.255.187-.342.502-.342h3.294l-.002.013c-.3 1.488-3.262 6.228-4.252 7.7-.016.022-.031.046-.046.07-.436.757-.79 1.593.06 2.769h.002c.077.099.278.331.572.654.912 1 4.04 4.42 4.317 5.78-.184.031-.384.009-3.484.016-.66 0-1.176-1.049-3.145-3.16-1.771-1.83-2.92-2.578-3.967-2.578-2.032 0-1.884 1.753-1.865 3.872.006 2.298-.007 1.571.008 1.716-.119.05-.459.148-1.346.148-8.46 0-13.969-14.267-14.181-16.994.073-.007 1.083-.003 3.395-.004z"/></g><defs><clipPath id="oclip0"><path d="M0 0h32v34H0z"/></clipPath></defs></symbol></svg>