<svg width="96" height="96" fill="none" xmlns="http://www.w3.org/2000/svg"><path d="M48 96c26.51 0 48-21.49 48-48S74.51 0 48 0 0 21.49 0 48s21.49 48 48 48z" fill="#fff"/><path d="M78.024 47.916c0 2.22-.696 6.468-.696 6.468s-23.352-22.02-29.652-21.612c-4.068.264-28.74 21.912-28.74 21.912s-.768-4.44-.768-6.78c0-16.536 13.404-29.928 29.928-29.928s29.928 13.404 29.928 29.94z" fill="#E6E6E6"/><path d="M80.22 15.78C71.976 7.536 60.576 2.436 48 2.436s-23.964 5.1-32.22 13.344C7.536 24.036 2.448 35.424 2.448 48s5.1 23.976 13.344 32.22 19.632 13.344 32.22 13.344c12.576 0 23.976-5.1 32.22-13.344S93.576 60.588 93.576 48c-.012-12.576-5.112-23.964-13.356-32.22zm-.588 63.84c-8.1 8.1-19.284 13.104-31.632 13.104-12.348 0-23.532-5.004-31.62-13.104C8.28 71.532 3.276 60.348 3.276 48c0-12.348 5.004-23.532 13.104-31.62C24.468 8.28 35.652 3.276 48 3.276c12.348 0 23.532 5.004 31.632 13.104C87.72 24.468 92.724 35.652 92.724 48c0 12.348-5.004 23.532-13.092 31.62zm.588-63.84C71.976 7.536 60.576 2.436 48 2.436s-23.964 5.1-32.22 13.344C7.536 24.036 2.448 35.424 2.448 48s5.1 23.976 13.344 32.22 19.632 13.344 32.22 13.344c12.576 0 23.976-5.1 32.22-13.344S93.576 60.588 93.576 48c-.012-12.576-5.112-23.964-13.356-32.22zm-.588 63.84c-8.1 8.1-19.284 13.104-31.632 13.104-12.348 0-23.532-5.004-31.62-13.104C8.28 71.532 3.276 60.348 3.276 48c0-12.348 5.004-23.532 13.104-31.62C24.468 8.28 35.652 3.276 48 3.276c12.348 0 23.532 5.004 31.632 13.104C87.72 24.468 92.724 35.652 92.724 48c0 12.348-5.004 23.532-13.092 31.62zm.588-63.84C71.976 7.536 60.576 2.436 48 2.436s-23.964 5.1-32.22 13.344C7.536 24.036 2.448 35.424 2.448 48s5.1 23.976 13.344 32.22 19.632 13.344 32.22 13.344c12.576 0 23.976-5.1 32.22-13.344S93.576 60.588 93.576 48c-.012-12.576-5.112-23.964-13.356-32.22zm-.588 63.84c-8.1 8.1-19.284 13.104-31.632 13.104-12.348 0-23.532-5.004-31.62-13.104C8.28 71.532 3.276 60.348 3.276 48c0-12.348 5.004-23.532 13.104-31.62C24.468 8.28 35.652 3.276 48 3.276c12.348 0 23.532 5.004 31.632 13.104C87.72 24.468 92.724 35.652 92.724 48c0 12.348-5.004 23.532-13.092 31.62zm.588-63.84C71.976 7.536 60.576 2.436 48 2.436s-23.964 5.1-32.22 13.344C7.536 24.036 2.448 35.424 2.448 48s5.1 23.976 13.344 32.22 19.632 13.344 32.22 13.344c12.576 0 23.976-5.1 32.22-13.344S93.576 60.588 93.576 48c-.012-12.576-5.112-23.964-13.356-32.22zm-.588 63.84c-8.1 8.1-19.284 13.104-31.632 13.104-12.348 0-23.532-5.004-31.62-13.104C8.28 71.532 3.276 60.348 3.276 48c0-12.348 5.004-23.532 13.104-31.62C24.468 8.28 35.652 3.276 48 3.276c12.348 0 23.532 5.004 31.632 13.104C87.72 24.468 92.724 35.652 92.724 48c0 12.348-5.004 23.532-13.092 31.62zm.588-63.84C71.976 7.536 60.576 2.436 48 2.436s-23.964 5.1-32.22 13.344C7.536 24.036 2.448 35.424 2.448 48s5.1 23.976 13.344 32.22 19.632 13.344 32.22 13.344c12.576 0 23.976-5.1 32.22-13.344S93.576 60.588 93.576 48c-.012-12.576-5.112-23.964-13.356-32.22zm-.588 63.84c-8.1 8.1-19.284 13.104-31.632 13.104-12.348 0-23.532-5.004-31.62-13.104C8.28 71.532 3.276 60.348 3.276 48c0-12.348 5.004-23.532 13.104-31.62C24.468 8.28 35.652 3.276 48 3.276c12.348 0 23.532 5.004 31.632 13.104C87.72 24.468 92.724 35.652 92.724 48c0 12.348-5.004 23.532-13.092 31.62zm.588-63.84C71.976 7.536 60.576 2.436 48 2.436s-23.964 5.1-32.22 13.344C7.536 24.036 2.448 35.424 2.448 48s5.1 23.976 13.344 32.22 19.632 13.344 32.22 13.344c12.576 0 23.976-5.1 32.22-13.344S93.576 60.588 93.576 48c-.012-12.576-5.112-23.964-13.356-32.22zm-.588 63.84c-8.1 8.1-19.284 13.104-31.632 13.104-12.348 0-23.532-5.004-31.62-13.104C8.28 71.532 3.276 60.348 3.276 48c0-12.348 5.004-23.532 13.104-31.62C24.468 8.28 35.652 3.276 48 3.276c12.348 0 23.532 5.004 31.632 13.104C87.72 24.468 92.724 35.652 92.724 48c0 12.348-5.004 23.532-13.092 31.62zm.588-63.84C71.976 7.536 60.576 2.436 48 2.436s-23.964 5.1-32.22 13.344C7.536 24.036 2.448 35.424 2.448 48s5.1 23.976 13.344 32.22 19.632 13.344 32.22 13.344c12.576 0 23.976-5.1 32.22-13.344S93.576 60.588 93.576 48c-.012-12.576-5.112-23.964-13.356-32.22zm-.588 63.84c-8.1 8.1-19.284 13.104-31.632 13.104-12.348 0-23.532-5.004-31.62-13.104C8.28 71.532 3.276 60.348 3.276 48c0-12.348 5.004-23.532 13.104-31.62C24.468 8.28 35.652 3.276 48 3.276c12.348 0 23.532 5.004 31.632 13.104C87.72 24.468 92.724 35.652 92.724 48c0 12.348-5.004 23.532-13.092 31.62zm.588-63.84C71.976 7.536 60.576 2.436 48 2.436s-23.964 5.1-32.22 13.344C7.536 24.036 2.448 35.424 2.448 48s5.1 23.976 13.344 32.22 19.632 13.344 32.22 13.344c12.576 0 23.976-5.1 32.22-13.344S93.576 60.588 93.576 48c-.012-12.576-5.112-23.964-13.356-32.22zm-.588 63.84c-8.1 8.1-19.284 13.104-31.632 13.104-12.348 0-23.532-5.004-31.62-13.104C8.28 71.532 3.276 60.348 3.276 48c0-12.348 5.004-23.532 13.104-31.62C24.468 8.28 35.652 3.276 48 3.276c12.348 0 23.532 5.004 31.632 13.104C87.72 24.468 92.724 35.652 92.724 48c0 12.348-5.004 23.532-13.092 31.62zm.588-63.84C71.976 7.536 60.576 2.436 48 2.436s-23.964 5.1-32.22 13.344C7.536 24.036 2.448 35.424 2.448 48s5.1 23.976 13.344 32.22 19.632 13.344 32.22 13.344c12.576 0 23.976-5.1 32.22-13.344S93.576 60.588 93.576 48c-.012-12.576-5.112-23.964-13.356-32.22zm-.588 63.84c-8.1 8.1-19.284 13.104-31.632 13.104-12.348 0-23.532-5.004-31.62-13.104C8.28 71.532 3.276 60.348 3.276 48c0-12.348 5.004-23.532 13.104-31.62C24.468 8.28 35.652 3.276 48 3.276c12.348 0 23.532 5.004 31.632 13.104C87.72 24.468 92.724 35.652 92.724 48c0 12.348-5.004 23.532-13.092 31.62zm.588-63.84C71.976 7.536 60.576 2.436 48 2.436s-23.964 5.1-32.22 13.344C7.536 24.036 2.448 35.424 2.448 48s5.1 23.976 13.344 32.22 19.632 13.344 32.22 13.344c12.576 0 23.976-5.1 32.22-13.344S93.576 60.588 93.576 48c-.012-12.576-5.112-23.964-13.356-32.22zm-.588 63.84c-8.1 8.1-19.284 13.104-31.632 13.104-12.348 0-23.532-5.004-31.62-13.104C8.28 71.532 3.276 60.348 3.276 48c0-12.348 5.004-23.532 13.104-31.62C24.468 8.28 35.652 3.276 48 3.276c12.348 0 23.532 5.004 31.632 13.104C87.72 24.468 92.724 35.652 92.724 48c0 12.348-5.004 23.532-13.092 31.62zm.588-63.84C71.976 7.536 60.576 2.436 48 2.436s-23.964 5.1-32.22 13.344C7.536 24.036 2.448 35.424 2.448 48s5.1 23.976 13.344 32.22 19.632 13.344 32.22 13.344c12.576 0 23.976-5.1 32.22-13.344S93.576 60.588 93.576 48c-.012-12.576-5.112-23.964-13.356-32.22zm-.588 63.84c-8.1 8.1-19.284 13.104-31.632 13.104-12.348 0-23.532-5.004-31.62-13.104C8.28 71.532 3.276 60.348 3.276 48c0-12.348 5.004-23.532 13.104-31.62C24.468 8.28 35.652 3.276 48 3.276c12.348 0 23.532 5.004 31.632 13.104C87.72 24.468 92.724 35.652 92.724 48c0 12.348-5.004 23.532-13.092 31.62zm.588-63.84C71.976 7.536 60.576 2.436 48 2.436s-23.964 5.1-32.22 13.344C7.536 24.036 2.448 35.424 2.448 48s5.1 23.976 13.344 32.22 19.632 13.344 32.22 13.344c12.576 0 23.976-5.1 32.22-13.344S93.576 60.588 93.576 48c-.012-12.576-5.112-23.964-13.356-32.22zm-.588 63.84c-8.1 8.1-19.284 13.104-31.632 13.104-12.348 0-23.532-5.004-31.62-13.104C8.28 71.532 3.276 60.348 3.276 48c0-12.348 5.004-23.532 13.104-31.62C24.468 8.28 35.652 3.276 48 3.276c12.348 0 23.532 5.004 31.632 13.104C87.72 24.468 92.724 35.652 92.724 48c0 12.348-5.004 23.532-13.092 31.62zm.588-63.84C71.976 7.536 60.576 2.436 48 2.436s-23.964 5.1-32.22 13.344C7.536 24.036 2.448 35.424 2.448 48s5.1 23.976 13.344 32.22 19.632 13.344 32.22 13.344c12.576 0 23.976-5.1 32.22-13.344S93.576 60.588 93.576 48c-.012-12.576-5.112-23.964-13.356-32.22zm-.588 63.84c-8.1 8.1-19.284 13.104-31.632 13.104-12.348 0-23.532-5.004-31.62-13.104C8.28 71.532 3.276 60.348 3.276 48c0-12.348 5.004-23.532 13.104-31.62C24.468 8.28 35.652 3.276 48 3.276c12.348 0 23.532 5.004 31.632 13.104C87.72 24.468 92.724 35.652 92.724 48c0 12.348-5.004 23.532-13.092 31.62zm.588-63.84C71.976 7.536 60.576 2.436 48 2.436s-23.964 5.1-32.22 13.344C7.536 24.036 2.448 35.424 2.448 48s5.1 23.976 13.344 32.22 19.632 13.344 32.22 13.344c12.576 0 23.976-5.1 32.22-13.344S93.576 60.588 93.576 48c-.012-12.576-5.112-23.964-13.356-32.22zm-.588 63.84c-8.1 8.1-19.284 13.104-31.632 13.104-12.348 0-23.532-5.004-31.62-13.104C8.28 71.532 3.276 60.348 3.276 48c0-12.348 5.004-23.532 13.104-31.62C24.468 8.28 35.652 3.276 48 3.276c12.348 0 23.532 5.004 31.632 13.104C87.72 24.468 92.724 35.652 92.724 48c0 12.348-5.004 23.532-13.092 31.62zm.588-63.84C71.976 7.536 60.576 2.436 48 2.436s-23.964 5.1-32.22 13.344C7.536 24.036 2.448 35.424 2.448 48s5.1 23.976 13.344 32.22 19.632 13.344 32.22 13.344c12.576 0 23.976-5.1 32.22-13.344S93.576 60.588 93.576 48c-.012-12.576-5.112-23.964-13.356-32.22zm-.588 63.84c-8.1 8.1-19.284 13.104-31.632 13.104-12.348 0-23.532-5.004-31.62-13.104C8.28 71.532 3.276 60.348 3.276 48c0-12.348 5.004-23.532 13.104-31.62C24.468 8.28 35.652 3.276 48 3.276c12.348 0 23.532 5.004 31.632 13.104C87.72 24.468 92.724 35.652 92.724 48c0 12.348-5.004 23.532-13.092 31.62zm.588-63.84C71.976 7.536 60.576 2.436 48 2.436s-23.964 5.1-32.22 13.344C7.536 24.036 2.448 35.424 2.448 48s5.1 23.976 13.344 32.22 19.632 13.344 32.22 13.344c12.576 0 23.976-5.1 32.22-13.344S93.576 60.588 93.576 48c-.012-12.576-5.112-23.964-13.356-32.22zm-.588 63.84c-8.1 8.1-19.284 13.104-31.632 13.104-12.348 0-23.532-5.004-31.62-13.104C8.28 71.532 3.276 60.348 3.276 48c0-12.348 5.004-23.532 13.104-31.62C24.468 8.28 35.652 3.276 48 3.276c12.348 0 23.532 5.004 31.632 13.104C87.72 24.468 92.724 35.652 92.724 48c0 12.348-5.004 23.532-13.092 31.62zm.588-63.84C71.976 7.536 60.576 2.436 48 2.436s-23.964 5.1-32.22 13.344C7.536 24.036 2.448 35.424 2.448 48s5.1 23.976 13.344 32.22 19.632 13.344 32.22 13.344c12.576 0 23.976-5.1 32.22-13.344S93.576 60.588 93.576 48c-.012-12.576-5.112-23.964-13.356-32.22zm-.588 63.84c-8.1 8.1-19.284 13.104-31.632 13.104-12.348 0-23.532-5.004-31.62-13.104C8.28 71.532 3.276 60.348 3.276 48c0-12.348 5.004-23.532 13.104-31.62C24.468 8.28 35.652 3.276 48 3.276c12.348 0 23.532 5.004 31.632 13.104C87.72 24.468 92.724 35.652 92.724 48c0 12.348-5.004 23.532-13.092 31.62zm.588-63.84C71.976 7.536 60.576 2.436 48 2.436s-23.964 5.1-32.22 13.344C7.536 24.036 2.448 35.424 2.448 48s5.1 23.976 13.344 32.22 19.632 13.344 32.22 13.344c12.576 0 23.976-5.1 32.22-13.344S93.576 60.588 93.576 48c-.012-12.576-5.112-23.964-13.356-32.22zm-.588 63.84c-8.1 8.1-19.284 13.104-31.632 13.104-12.348 0-23.532-5.004-31.62-13.104C8.28 71.532 3.276 60.348 3.276 48c0-12.348 5.004-23.532 13.104-31.62C24.468 8.28 35.652 3.276 48 3.276c12.348 0 23.532 5.004 31.632 13.104C87.72 24.468 92.724 35.652 92.724 48c0 12.348-5.004 23.532-13.092 31.62zM96 47.448v-.816c0-.12-.012-.252-.012-.372 0-.096-.012-.204-.012-.3s-.012-.204-.012-.3c0-.084-.012-.168-.012-.24 0-.108-.012-.228-.012-.336 0-.084-.012-.168-.012-.252l-.036-.516-.036-.432c-.012-.084-.012-.156-.024-.24l-.108-1.068c-.012-.144-.036-.276-.048-.42 0-.012 0-.036-.012-.06l-.036-.336v-.024c-.024-.144-.036-.3-.06-.444l-.072-.468-.036-.228c-.024-.18-.06-.36-.084-.54a6.564 6.564 0 00-.096-.516v-.036c-.024-.156-.06-.312-.084-.468l-.036-.18v-.024l-.072-.372-.036-.168-.072-.36c-.012-.084-.036-.156-.048-.24-.048-.192-.084-.396-.132-.588 0-.012-.012-.036-.012-.048-.036-.132-.06-.264-.096-.396l-.036-.144c-.012-.036-.024-.084-.036-.12-.036-.168-.084-.336-.12-.492-.024-.096-.048-.192-.072-.3a3.885 3.885 0 00-.084-.3c-.024-.096-.048-.192-.084-.288-.024-.096-.06-.192-.084-.288l-.144-.504c0-.012 0-.012-.012-.024-.012-.06-.036-.12-.048-.168-.024-.072-.048-.144-.072-.228a1.056 1.056 0 00-.06-.18c0-.012-.012-.036-.012-.048 0-.012-.012-.024-.012-.048-.024-.084-.06-.168-.084-.264-.024-.084-.06-.18-.084-.264 0-.012 0-.024-.012-.024-.036-.12-.084-.252-.12-.372-.06-.18-.12-.372-.192-.552-.048-.132-.096-.276-.144-.408 0-.012-.012-.024-.012-.036-.036-.108-.084-.216-.12-.324-.012-.036-.024-.072-.036-.096-.012-.036-.024-.084-.048-.12v-.012c-.072-.192-.144-.384-.228-.576-.024-.048-.036-.096-.06-.144-.06-.144-.108-.288-.168-.42v-.012a.585.585 0 01-.036-.084c-.072-.168-.132-.336-.204-.492-.156-.36-.312-.72-.468-1.068a34.24 34.24 0 00-.444-.96c-.024-.06-.06-.108-.084-.168l-.18-.36c-.096-.204-.204-.408-.312-.612-.084-.156-.168-.324-.252-.48 0-.012-.012-.024-.012-.024-.096-.168-.18-.348-.276-.516-.096-.168-.18-.336-.276-.504-.06-.12-.132-.24-.204-.348v-.012s0-.012-.012-.012c-.048-.084-.096-.168-.144-.24a.091.091 0 01-.024-.048c-.048-.084-.096-.18-.156-.264a.251.251 0 00-.048-.072c-.012-.024-.024-.036-.036-.06-.072-.12-.144-.252-.228-.372a.026.026 0 00-.024-.024c-.108-.18-.228-.372-.336-.552l-.252-.396c-.06-.084-.108-.18-.168-.264-.06-.096-.132-.192-.192-.3-.108-.156-.216-.324-.324-.48-.168-.252-.348-.504-.516-.756-.06-.096-.132-.18-.192-.264-.012-.012-.012-.024-.024-.036-.312-.432-.624-.864-.948-1.284a10.541 10.541 0 00-.336-.432.21.21 0 00-.048-.06c-.108-.144-.228-.288-.336-.42-.24-.3-.48-.6-.732-.888-.12-.144-.252-.288-.372-.444-.12-.144-.24-.276-.372-.42l-.036-.036c-.12-.132-.24-.264-.36-.408l-.384-.42c-.132-.144-.264-.276-.396-.42-.12-.12-.24-.252-.36-.372l-.072-.072c-.12-.12-.24-.24-.36-.372l-.384-.384c-.084-.084-.168-.156-.252-.24-.108-.096-.204-.204-.312-.3a1.846 1.846 0 00-.156-.144c-.156-.144-.3-.288-.456-.42-.06-.06-.132-.12-.192-.18-.108-.108-.228-.204-.336-.3l-.336-.3c-.06-.06-.132-.108-.192-.168-.012-.012-.036-.024-.048-.036-.156-.132-.312-.276-.48-.408a.666.666 0 00-.096-.072 6.26 6.26 0 00-.324-.264c-.072-.06-.156-.12-.228-.192a.166.166 0 00-.048-.036l-.036-.036c-.144-.108-.288-.228-.42-.336-.3-.24-.6-.468-.912-.708l-.408-.3c-.036-.036-.084-.06-.132-.096-.108-.084-.216-.156-.336-.24-.024-.024-.048-.036-.072-.06-.108-.072-.216-.144-.312-.228l-.24-.168c-.024-.012-.048-.036-.072-.048-.06-.036-.108-.084-.168-.12a1.456 1.456 0 01-.168-.12c-.048-.036-.108-.072-.156-.108-.096-.06-.192-.132-.3-.192a10.86 10.86 0 00-.48-.312l-.396-.252c-.024-.012-.036-.024-.06-.036-.012-.012-.036-.024-.048-.036 0 0-.012 0-.012-.012-.012-.012-.036-.024-.048-.036-.132-.084-.264-.168-.408-.252-.156-.096-.312-.192-.468-.276-.012 0-.024-.012-.036-.012a6.444 6.444 0 01-.384-.228c-.012 0-.024-.012-.024-.012-.06-.036-.108-.06-.168-.096a5.468 5.468 0 00-.36-.204c-.048-.024-.084-.048-.132-.072-.024-.012-.048-.024-.084-.048a.092.092 0 00-.06-.024 7.21 7.21 0 01-.312-.18c-.168-.096-.336-.18-.516-.276-.348-.18-.684-.36-1.032-.528-.156-.084-.324-.156-.48-.24-.36-.18-.732-.348-1.104-.516-.36-.156-.708-.312-1.068-.468-.18-.072-.36-.144-.54-.228-.36-.144-.72-.288-1.092-.432-.18-.072-.372-.144-.552-.204-.168-.06-.336-.12-.492-.18-.036-.012-.06-.024-.096-.036-.168-.06-.336-.12-.516-.18s-.372-.12-.564-.18c-.18-.06-.372-.12-.564-.18-.192-.06-.372-.12-.564-.168-.156-.048-.312-.096-.468-.132-.012 0-.012 0-.024-.012-.096-.024-.192-.06-.288-.084l-.144-.036a3.217 3.217 0 00-.324-.084c-.096-.024-.18-.048-.276-.072-.108-.024-.216-.06-.312-.084h-.012l-.444-.108c-.192-.048-.384-.096-.576-.132-.384-.084-.78-.18-1.164-.252l-.54-.108-.18-.036-.42-.072c-.048-.012-.084-.012-.132-.024a3.753 3.753 0 00-.36-.06c-.024 0-.048-.012-.072-.012l-.216-.036C55.692.624 55.596.6 55.5.588l-.132-.024c-.048-.012-.096-.012-.144-.024-.108-.012-.204-.036-.312-.048-.096-.012-.18-.024-.264-.036-.048-.012-.108-.012-.156-.024L54.24.396h-.012a.608.608 0 01-.156-.024c-.18-.024-.348-.048-.528-.06a37.676 37.676 0 00-1.212-.12c-.204-.012-.408-.036-.612-.048l-.576-.036c-.048 0-.096 0-.132-.012-.144-.012-.288-.012-.432-.024-.084 0-.156-.012-.24-.012-.084 0-.168-.012-.24-.012-.144-.012-.3-.012-.444-.012h-.084c-.084 0-.168 0-.24-.012h-2.568c-.084 0-.168 0-.24.012h-.084c-.144 0-.3.012-.444.012-.084 0-.168.012-.24.012-.084 0-.156.012-.24.012-.144.012-.288.012-.432.024-.048 0-.096.012-.132.012-.396.024-.792.06-1.176.096-.408.036-.804.084-1.212.12-.18.024-.348.036-.528.06-.144.024-.3.036-.444.06-.036 0-.084.012-.12.012a2.803 2.803 0 00-.312.048l-.288.036h-.012l-.228.036c-.024 0-.036.012-.048.012l-.252.036c-.024 0-.036 0-.06.012-.072.012-.144.024-.204.036-.024 0-.048.012-.072.012a3.29 3.29 0 00-.336.06h-.036c-.024 0-.06.012-.084.012-.024 0-.048.012-.072.012a2.654 2.654 0 00-.3.06c-.024 0-.06.012-.084.012a2.654 2.654 0 00-.3.06c-.132.024-.264.048-.396.084l-1.164.252c-.192.048-.384.096-.576.132l-.432.108c-.108.024-.228.06-.336.084-.096.024-.18.048-.276.072-.108.024-.216.06-.324.084l-.144.036a2.606 2.606 0 00-.288.084c-.012 0-.012 0-.024.012-.156.048-.312.096-.468.132-.192.06-.384.12-.564.168-.192.06-.372.12-.564.18-.18.06-.372.12-.552.18-.372.12-.744.252-1.104.384-.18.072-.372.132-.552.204-.36.144-.732.276-1.092.432-.18.072-.36.144-.54.228-.36.156-.72.312-1.068.468-.18.084-.36.168-.528.24-.156.072-.312.144-.48.228l-.144.072-.432.216c-.156.084-.312.156-.48.24-.012.012-.024.012-.036.024-.144.072-.3.156-.444.228-.036.024-.072.036-.108.06l-.468.252c-.168.096-.336.18-.504.276l-.504.288c-.288.168-.588.336-.876.516-.084.048-.168.096-.252.156-.084.048-.168.108-.252.156-.048.036-.096.06-.144.096-.144.096-.3.192-.444.288-.108.072-.216.132-.312.204a.262.262 0 00-.06.036l-.108.072c-.324.216-.636.432-.96.648-.156.108-.3.216-.456.312-.012.012-.036.024-.048.036-.144.096-.276.204-.42.3-.012.012-.024.024-.036.024-.012.012-.024.012-.024.024-.132.096-.264.192-.384.288-.024.024-.06.036-.084.06-.096.072-.192.144-.3.228a.21.21 0 00-.06.048.666.666 0 00-.096.072 9.248 9.248 0 01-.408.312c-.132.108-.264.204-.396.312-.168.132-.336.276-.504.408-.108.096-.228.18-.336.276l-.036.036c-.036.036-.084.072-.12.108-.06.048-.108.096-.168.144-.108.096-.216.192-.324.276l-.324.288c-.36.324-.708.648-1.056.972-.048.036-.084.084-.132.12a1.195 1.195 0 01-.132.12 5.358 5.358 0 01-.264.252l-.204.204-.132.132c-.06.06-.12.108-.168.168-.252.252-.504.516-.756.768-.12.132-.252.264-.372.396l-.36.396v.012c-.048.048-.096.108-.144.156-.048.048-.096.108-.144.156-.132.144-.252.288-.384.432-.024.036-.06.06-.084.096-.012.012-.024.024-.036.048-.096.108-.18.216-.276.324l-.144.18c-.024.024-.048.06-.072.084-.024.024-.048.06-.072.084-.036.048-.072.084-.108.132-.084.108-.18.216-.264.324a.318.318 0 00-.06.072c-.084.096-.156.192-.24.3-.168.204-.336.42-.492.624-.072.096-.144.18-.216.276-.096.132-.192.252-.288.384-.108.144-.216.288-.324.444-.12.168-.24.324-.36.492a42.2 42.2 0 00-.348.492c-.12.168-.228.336-.348.504-.108.168-.228.336-.336.504-.084.132-.18.264-.264.408-.084.12-.156.24-.24.372-.072.108-.132.216-.204.324-.048.072-.084.144-.132.216-.048.072-.084.144-.132.216l-.18.288-.108.18c-.06.096-.12.204-.18.3s-.12.192-.168.288v.012c-.012.024-.036.06-.048.084v.012c-.06.108-.12.204-.18.312-.06.12-.132.24-.192.348-.012.024-.024.06-.048.084-.06.12-.12.228-.192.348a.56.56 0 00-.06.12.56.56 0 00-.06.12c-.024.048-.048.084-.072.132-.072.132-.132.264-.204.384-.072.144-.144.276-.216.42l-.144.288c-.048.096-.096.18-.132.276-.156.324-.312.66-.456.984-.156.36-.312.708-.468 1.068-.072.18-.156.36-.228.54-.144.36-.288.72-.432 1.092-.06.156-.12.3-.168.456-.024.084-.06.156-.084.24-.048.132-.096.276-.144.408-.06.18-.132.372-.192.552-.048.12-.084.252-.12.372 0 .012-.012.024-.012.036 0 .012 0 .024-.012.024l-.108.324c-.024.084-.06.168-.084.252-.036.108-.06.216-.096.312a1.45 1.45 0 00-.06.216c-.024.096-.06.18-.084.276-.024.096-.06.192-.084.276-.036.12-.072.252-.108.372-.012.036-.024.06-.024.096l-.108.396c-.024.096-.048.18-.072.276-.024.084-.048.18-.072.264a2.09 2.09 0 00-.06.264c-.036.132-.06.252-.096.384-.024.096-.048.18-.06.276-.012.096-.048.18-.06.276-.072.3-.132.612-.192.912-.036.144-.06.3-.096.444a.602.602 0 00-.024.144c-.012.084-.036.18-.048.264 0 .012 0 .036-.012.048 0 .012 0 .024-.012.036 0 .024-.012.048-.012.072 0 .036-.012.072-.012.096-.024.156-.06.312-.084.468 0 .024-.012.048-.012.072-.024.12-.036.24-.06.36s-.036.24-.06.36a.926.926 0 00-.024.18c-.024.12-.036.24-.048.36l-.036.252a2.803 2.803 0 01-.048.312v.024c0 .036-.012.072-.012.108 0 .036-.012.072-.012.108-.012.132-.036.276-.048.408-.012.072-.012.144-.024.216l-.108 1.068c-.012.084-.012.156-.024.24l-.036.432-.036.516c0 .084-.012.168-.012.252-.012.108-.012.228-.012.336 0 .084-.012.168-.012.24 0 .108-.012.204-.012.3s-.012.204-.012.3c0 .12-.012.252-.012.372v2.664c0 .084 0 .168.012.24v.084c0 .144.012.3.012.444 0 .084.012.168.012.252 0 .072.012.156.012.228.012.156.012.3.024.456 0 .036 0 .072.012.108 0 .036 0 .084.012.132.024.36.048.708.084 1.056.036.408.072.804.12 1.212.024.18.036.348.06.528 0 .036.012.084.012.12v.072l.036.252c0 .036.012.072.012.096.012.108.024.216.048.336l.036.288c.012.06.012.108.024.168l.072.48c0 .036.012.06.012.096l.072.396v.036c.012.048.012.108.024.156l.072.42.036.18.108.54.252 1.164.144.576.108.444v.012c.024.108.06.216.084.312.024.096.048.18.072.264.012.072.036.132.048.204.024.072.036.132.06.204l.108.396c.036.144.084.276.12.42a.17.17 0 00.024.072c.048.18.108.36.168.54.06.192.12.372.18.564.06.192.12.372.18.564.06.168.108.324.168.492.012.036.024.072.036.12l.18.504c.072.18.132.372.204.552.144.36.288.732.432 1.092.072.18.144.36.228.54.156.36.312.72.468 1.068.156.36.324.708.492 1.056.168.348.336.696.516 1.044.084.168.18.348.264.516.18.348.36.684.552 1.02l.288.504.288.504c.096.168.192.336.3.492.096.168.204.336.3.492.204.324.408.648.624.972.216.324.432.636.648.96.216.312.444.624.672.936.228.312.456.624.696.924.228.3.468.612.708.912a.262.262 0 00.048.06c.12.156.252.312.384.468.024.036.048.06.084.096.072.084.132.168.204.252.036.036.072.084.108.12.036.036.072.084.108.12.096.108.192.228.288.336.036.036.072.084.108.12.048.06.096.108.144.168.048.048.084.096.132.156l.012.012c.036.036.06.072.096.108l.396.432c.072.084.144.156.216.24.072.084.144.156.216.24.072.072.132.144.204.216.084.084.156.168.24.252l.192.192c.084.084.168.18.264.264.276.276.54.54.828.804.276.264.552.528.84.78.288.264.576.516.864.768.108.096.228.192.336.288.108.096.228.192.336.288.192.156.384.324.576.48.168.144.348.276.516.408.06.036.108.084.156.12.132.108.264.204.396.312.012 0 .012.012.024.012.06.048.132.096.192.144.12.096.24.18.372.276.084.072.18.132.264.192.144.108.288.216.444.324.312.228.624.444.948.66.156.108.324.216.48.324.156.108.324.216.48.312.324.204.648.408.984.612.336.204.66.396.996.588l.504.288c.336.192.672.372 1.02.552.168.096.348.18.516.264.156.072.3.156.456.228.048.024.084.036.12.06l.432.216c.024.012.06.024.096.048.156.072.312.144.456.216.18.084.348.168.528.24.36.156.708.312 1.068.468.72.3 1.44.588 2.184.864.372.132.732.264 1.104.384.18.06.372.12.552.18.18.06.372.12.564.18h.012c.012 0 .036.012.048.012l.072.024c.144.048.3.096.444.132.192.06.372.108.564.168.024.012.048.012.072.024.168.048.336.096.504.132.192.048.384.108.576.156.384.096.768.192 1.152.276.192.048.384.084.588.132.192.048.384.084.588.12.12.024.252.048.384.072a.602.602 0 00.144.024.602.602 0 00.144.024c.168.036.336.06.504.096.192.036.396.072.588.096.792.132 1.584.24 2.388.336.396.048.804.084 1.212.12.396.036.792.06 1.176.096.048 0 .096.012.132.012.144.012.288.012.432.024.084 0 .156.012.24.012.084 0 .168.012.24.012.144.012.3.012.444.012h.084c.084 0 .168 0 .24.012h2.568c.084 0 .168 0 .24-.012h.084c.144 0 .3-.012.444-.012.084 0 .168-.012.24-.012.084 0 .156-.012.24-.012.144-.012.288-.012.432-.024.048 0 .096-.012.132-.012l.576-.036c.204-.012.408-.036.612-.048.408-.036.804-.084 1.212-.12a49.72 49.72 0 002.388-.336c.204-.036.396-.06.588-.096.204-.036.42-.072.624-.12.192-.036.372-.072.552-.108.192-.036.384-.084.588-.12.192-.036.384-.084.588-.132.384-.084.768-.18 1.152-.276.156-.036.324-.084.48-.132.084-.024.156-.048.24-.06.12-.036.24-.072.36-.096a.884.884 0 00.168-.048h.012c.156-.048.3-.084.456-.132.144-.048.288-.084.42-.132.06-.024.132-.036.192-.06.168-.048.336-.108.504-.156.192-.06.372-.12.564-.18.168-.06.336-.12.516-.18.036-.012.06-.024.096-.036.168-.06.336-.12.492-.18a37.498 37.498 0 002.184-.864c.36-.156.72-.312 1.068-.468.18-.084.348-.156.528-.24.024-.012.036-.024.06-.024.144-.072.288-.144.444-.204.012-.012.024-.012.036-.024.168-.084.348-.168.516-.252a27.74 27.74 0 001.032-.528c.336-.18.684-.36 1.02-.552l.504-.288c.336-.192.672-.384.996-.588.336-.204.66-.408.984-.612.156-.108.324-.204.48-.312.144-.096.288-.192.444-.288.012-.012.036-.024.048-.036.012-.012.024-.012.036-.024.144-.096.276-.192.408-.276.012 0 .012-.012.024-.012 0 0 .012 0 .012-.012.12-.084.228-.156.348-.24.072-.048.144-.096.216-.156.096-.072.192-.144.288-.204.048-.036.108-.072.156-.12.12-.096.252-.18.372-.276.012 0 .012-.012.024-.012l.444-.336c.156-.12.3-.24.456-.348.156-.108.3-.24.456-.36.144-.12.3-.24.444-.36.12-.096.24-.204.36-.3a.166.166 0 01.048-.036c.096-.072.18-.156.276-.228l.012-.012.252-.216.036-.036.276-.24c0-.012.012-.012.012-.012.036-.024.06-.06.096-.084.12-.108.252-.216.372-.336l.42-.384c.144-.132.276-.264.42-.396.12-.108.228-.216.336-.324.072-.072.144-.132.216-.204l.276-.276.36-.36.168-.168.024-.024c.084-.096.18-.18.264-.276.132-.144.264-.276.396-.42.12-.132.24-.264.36-.384.144-.156.3-.324.444-.492.12-.132.24-.276.36-.408.12-.144.252-.288.372-.444.252-.288.492-.588.732-.888.24-.3.48-.6.708-.912.24-.3.468-.612.696-.924.12-.156.228-.312.336-.468.228-.312.444-.624.66-.948.216-.324.432-.636.636-.972.108-.156.204-.324.312-.492.108-.18.228-.36.336-.54.084-.144.18-.3.264-.444a9104924001285.578 9104924001285.578 0 00.576-1.008c.192-.336.372-.672.552-1.02.18-.336.36-.684.528-1.032.096-.204.192-.396.288-.6.06-.132.12-.264.192-.396.096-.192.18-.384.264-.588.156-.36.312-.708.468-1.068.3-.72.588-1.44.864-2.184l.18-.504c.012-.036.024-.072.036-.12.06-.156.12-.324.168-.492.06-.18.12-.372.192-.564.06-.168.108-.336.156-.504.024-.06.036-.132.06-.192.048-.144.084-.288.132-.42.048-.156.096-.3.132-.456v-.024c.012-.06.036-.108.048-.168.036-.12.072-.24.096-.36.024-.084.048-.156.06-.24.048-.156.084-.312.132-.48l.144-.576.108-.468c.024-.096.048-.192.072-.3.024-.072.036-.156.048-.228.012-.072.036-.144.048-.216v-.024c0-.012.012-.036.012-.048.156-.732.3-1.476.42-2.232.132-.792.24-1.584.336-2.388.048-.408.084-.804.12-1.212.036-.348.06-.708.084-1.056 0-.048 0-.084.012-.132 0-.036 0-.072.012-.108.012-.144.024-.3.024-.456 0-.072.012-.156.012-.228 0-.084.012-.168.012-.252.012-.144.012-.288.012-.444v-.084c0-.084 0-.168.012-.24v-1.296c.036-.156.036-.348.036-.528zM80.904 80.904C72.48 89.328 60.852 94.536 48 94.536c-12.852 0-24.48-5.208-32.904-13.632C6.672 72.48 1.464 60.852 1.464 48c0-12.852 5.208-24.48 13.632-32.904C23.52 6.672 35.148 1.464 48 1.464c12.852 0 24.48 5.208 32.904 13.632C89.328 23.52 94.536 35.148 94.536 48c0 12.852-5.208 24.48-13.632 32.904zM48 2.436c-12.576 0-23.964 5.1-32.22 13.344C7.536 24.036 2.448 35.424 2.448 48s5.1 23.976 13.344 32.22 19.632 13.344 32.22 13.344c12.576 0 23.976-5.1 32.22-13.344S93.576 60.588 93.576 48c0-12.576-5.1-23.976-13.344-32.22C71.976 7.536 60.576 2.436 48 2.436zM79.632 79.62c-8.1 8.1-19.284 13.104-31.632 13.104-12.348 0-23.532-5.004-31.62-13.104C8.28 71.532 3.276 60.348 3.276 48c0-12.348 5.004-23.532 13.104-31.62C24.468 8.28 35.652 3.276 48 3.276c12.348 0 23.532 5.004 31.632 13.104C87.72 24.468 92.724 35.652 92.724 48c0 12.348-5.004 23.532-13.092 31.62zm.588-63.84C71.976 7.536 60.576 2.436 48 2.436s-23.964 5.1-32.22 13.344C7.536 24.036 2.448 35.424 2.448 48s5.1 23.976 13.344 32.22 19.632 13.344 32.22 13.344c12.576 0 23.976-5.1 32.22-13.344S93.576 60.588 93.576 48c-.012-12.576-5.112-23.964-13.356-32.22zm-.588 63.84c-8.1 8.1-19.284 13.104-31.632 13.104-12.348 0-23.532-5.004-31.62-13.104C8.28 71.532 3.276 60.348 3.276 48c0-12.348 5.004-23.532 13.104-31.62C24.468 8.28 35.652 3.276 48 3.276c12.348 0 23.532 5.004 31.632 13.104C87.72 24.468 92.724 35.652 92.724 48c0 12.348-5.004 23.532-13.092 31.62zm.588-63.84C71.976 7.536 60.576 2.436 48 2.436s-23.964 5.1-32.22 13.344C7.536 24.036 2.448 35.424 2.448 48s5.1 23.976 13.344 32.22 19.632 13.344 32.22 13.344c12.576 0 23.976-5.1 32.22-13.344S93.576 60.588 93.576 48c-.012-12.576-5.112-23.964-13.356-32.22zm-.588 63.84c-8.1 8.1-19.284 13.104-31.632 13.104-12.348 0-23.532-5.004-31.62-13.104C8.28 71.532 3.276 60.348 3.276 48c0-12.348 5.004-23.532 13.104-31.62C24.468 8.28 35.652 3.276 48 3.276c12.348 0 23.532 5.004 31.632 13.104C87.72 24.468 92.724 35.652 92.724 48c0 12.348-5.004 23.532-13.092 31.62zm.588-63.84C71.976 7.536 60.576 2.436 48 2.436s-23.964 5.1-32.22 13.344C7.536 24.036 2.448 35.424 2.448 48s5.1 23.976 13.344 32.22 19.632 13.344 32.22 13.344c12.576 0 23.976-5.1 32.22-13.344S93.576 60.588 93.576 48c-.012-12.576-5.112-23.964-13.356-32.22zm-.588 63.84c-8.1 8.1-19.284 13.104-31.632 13.104-12.348 0-23.532-5.004-31.62-13.104C8.28 71.532 3.276 60.348 3.276 48c0-12.348 5.004-23.532 13.104-31.62C24.468 8.28 35.652 3.276 48 3.276c12.348 0 23.532 5.004 31.632 13.104C87.72 24.468 92.724 35.652 92.724 48c0 12.348-5.004 23.532-13.092 31.62zm.588-63.84C71.976 7.536 60.576 2.436 48 2.436s-23.964 5.1-32.22 13.344C7.536 24.036 2.448 35.424 2.448 48s5.1 23.976 13.344 32.22 19.632 13.344 32.22 13.344c12.576 0 23.976-5.1 32.22-13.344S93.576 60.588 93.576 48c-.012-12.576-5.112-23.964-13.356-32.22zm-.588 63.84c-8.1 8.1-19.284 13.104-31.632 13.104-12.348 0-23.532-5.004-31.62-13.104C8.28 71.532 3.276 60.348 3.276 48c0-12.348 5.004-23.532 13.104-31.62C24.468 8.28 35.652 3.276 48 3.276c12.348 0 23.532 5.004 31.632 13.104C87.72 24.468 92.724 35.652 92.724 48c0 12.348-5.004 23.532-13.092 31.62zm.588-63.84C71.976 7.536 60.576 2.436 48 2.436s-23.964 5.1-32.22 13.344C7.536 24.036 2.448 35.424 2.448 48s5.1 23.976 13.344 32.22 19.632 13.344 32.22 13.344c12.576 0 23.976-5.1 32.22-13.344S93.576 60.588 93.576 48c-.012-12.576-5.112-23.964-13.356-32.22zm-.588 63.84c-8.1 8.1-19.284 13.104-31.632 13.104-12.348 0-23.532-5.004-31.62-13.104C8.28 71.532 3.276 60.348 3.276 48c0-12.348 5.004-23.532 13.104-31.62C24.468 8.28 35.652 3.276 48 3.276c12.348 0 23.532 5.004 31.632 13.104C87.72 24.468 92.724 35.652 92.724 48c0 12.348-5.004 23.532-13.092 31.62zm.588-63.84C71.976 7.536 60.576 2.436 48 2.436s-23.964 5.1-32.22 13.344C7.536 24.036 2.448 35.424 2.448 48s5.1 23.976 13.344 32.22 19.632 13.344 32.22 13.344c12.576 0 23.976-5.1 32.22-13.344S93.576 60.588 93.576 48c-.012-12.576-5.112-23.964-13.356-32.22zm-.588 63.84c-8.1 8.1-19.284 13.104-31.632 13.104-12.348 0-23.532-5.004-31.62-13.104C8.28 71.532 3.276 60.348 3.276 48c0-12.348 5.004-23.532 13.104-31.62C24.468 8.28 35.652 3.276 48 3.276c12.348 0 23.532 5.004 31.632 13.104C87.72 24.468 92.724 35.652 92.724 48c0 12.348-5.004 23.532-13.092 31.62zm.588-63.84C71.976 7.536 60.576 2.436 48 2.436s-23.964 5.1-32.22 13.344C7.536 24.036 2.448 35.424 2.448 48s5.1 23.976 13.344 32.22 19.632 13.344 32.22 13.344c12.576 0 23.976-5.1 32.22-13.344S93.576 60.588 93.576 48c-.012-12.576-5.112-23.964-13.356-32.22zm-.588 63.84c-8.1 8.1-19.284 13.104-31.632 13.104-12.348 0-23.532-5.004-31.62-13.104C8.28 71.532 3.276 60.348 3.276 48c0-12.348 5.004-23.532 13.104-31.62C24.468 8.28 35.652 3.276 48 3.276c12.348 0 23.532 5.004 31.632 13.104C87.72 24.468 92.724 35.652 92.724 48c0 12.348-5.004 23.532-13.092 31.62zm.588-63.84C71.976 7.536 60.576 2.436 48 2.436s-23.964 5.1-32.22 13.344C7.536 24.036 2.448 35.424 2.448 48s5.1 23.976 13.344 32.22 19.632 13.344 32.22 13.344c12.576 0 23.976-5.1 32.22-13.344S93.576 60.588 93.576 48c-.012-12.576-5.112-23.964-13.356-32.22zm-.588 63.84c-8.1 8.1-19.284 13.104-31.632 13.104-12.348 0-23.532-5.004-31.62-13.104C8.28 71.532 3.276 60.348 3.276 48c0-12.348 5.004-23.532 13.104-31.62C24.468 8.28 35.652 3.276 48 3.276c12.348 0 23.532 5.004 31.632 13.104C87.72 24.468 92.724 35.652 92.724 48c0 12.348-5.004 23.532-13.092 31.62zm.588-63.84C71.976 7.536 60.576 2.436 48 2.436s-23.964 5.1-32.22 13.344C7.536 24.036 2.448 35.424 2.448 48s5.1 23.976 13.344 32.22 19.632 13.344 32.22 13.344c12.576 0 23.976-5.1 32.22-13.344S93.576 60.588 93.576 48c-.012-12.576-5.112-23.964-13.356-32.22zm-.588 63.84c-8.1 8.1-19.284 13.104-31.632 13.104-12.348 0-23.532-5.004-31.62-13.104C8.28 71.532 3.276 60.348 3.276 48c0-12.348 5.004-23.532 13.104-31.62C24.468 8.28 35.652 3.276 48 3.276c12.348 0 23.532 5.004 31.632 13.104C87.72 24.468 92.724 35.652 92.724 48c0 12.348-5.004 23.532-13.092 31.62zm.588-63.84C71.976 7.536 60.576 2.436 48 2.436s-23.964 5.1-32.22 13.344C7.536 24.036 2.448 35.424 2.448 48s5.1 23.976 13.344 32.22 19.632 13.344 32.22 13.344c12.576 0 23.976-5.1 32.22-13.344S93.576 60.588 93.576 48c-.012-12.576-5.112-23.964-13.356-32.22zm-.588 63.84c-8.1 8.1-19.284 13.104-31.632 13.104-12.348 0-23.532-5.004-31.62-13.104C8.28 71.532 3.276 60.348 3.276 48c0-12.348 5.004-23.532 13.104-31.62C24.468 8.28 35.652 3.276 48 3.276c12.348 0 23.532 5.004 31.632 13.104C87.72 24.468 92.724 35.652 92.724 48c0 12.348-5.004 23.532-13.092 31.62zm.588-63.84C71.976 7.536 60.576 2.436 48 2.436s-23.964 5.1-32.22 13.344C7.536 24.036 2.448 35.424 2.448 48s5.1 23.976 13.344 32.22 19.632 13.344 32.22 13.344c12.576 0 23.976-5.1 32.22-13.344S93.576 60.588 93.576 48c-.012-12.576-5.112-23.964-13.356-32.22zm-.588 63.84c-8.1 8.1-19.284 13.104-31.632 13.104-12.348 0-23.532-5.004-31.62-13.104C8.28 71.532 3.276 60.348 3.276 48c0-12.348 5.004-23.532 13.104-31.62C24.468 8.28 35.652 3.276 48 3.276c12.348 0 23.532 5.004 31.632 13.104C87.72 24.468 92.724 35.652 92.724 48c0 12.348-5.004 23.532-13.092 31.62zm.588-63.84C71.976 7.536 60.576 2.436 48 2.436s-23.964 5.1-32.22 13.344C7.536 24.036 2.448 35.424 2.448 48s5.1 23.976 13.344 32.22 19.632 13.344 32.22 13.344c12.576 0 23.976-5.1 32.22-13.344S93.576 60.588 93.576 48c-.012-12.576-5.112-23.964-13.356-32.22zm-.588 63.84c-8.1 8.1-19.284 13.104-31.632 13.104-12.348 0-23.532-5.004-31.62-13.104C8.28 71.532 3.276 60.348 3.276 48c0-12.348 5.004-23.532 13.104-31.62C24.468 8.28 35.652 3.276 48 3.276c12.348 0 23.532 5.004 31.632 13.104C87.72 24.468 92.724 35.652 92.724 48c0 12.348-5.004 23.532-13.092 31.62zm.588-63.84C71.976 7.536 60.576 2.436 48 2.436s-23.964 5.1-32.22 13.344C7.536 24.036 2.448 35.424 2.448 48s5.1 23.976 13.344 32.22 19.632 13.344 32.22 13.344c12.576 0 23.976-5.1 32.22-13.344S93.576 60.588 93.576 48c-.012-12.576-5.112-23.964-13.356-32.22zm-.588 63.84c-8.1 8.1-19.284 13.104-31.632 13.104-12.348 0-23.532-5.004-31.62-13.104C8.28 71.532 3.276 60.348 3.276 48c0-12.348 5.004-23.532 13.104-31.62C24.468 8.28 35.652 3.276 48 3.276c12.348 0 23.532 5.004 31.632 13.104C87.72 24.468 92.724 35.652 92.724 48c0 12.348-5.004 23.532-13.092 31.62zm.588-63.84C71.976 7.536 60.576 2.436 48 2.436s-23.964 5.1-32.22 13.344C7.536 24.036 2.448 35.424 2.448 48s5.1 23.976 13.344 32.22 19.632 13.344 32.22 13.344c12.576 0 23.976-5.1 32.22-13.344S93.576 60.588 93.576 48c-.012-12.576-5.112-23.964-13.356-32.22zm-.588 63.84c-8.1 8.1-19.284 13.104-31.632 13.104-12.348 0-23.532-5.004-31.62-13.104C8.28 71.532 3.276 60.348 3.276 48c0-12.348 5.004-23.532 13.104-31.62C24.468 8.28 35.652 3.276 48 3.276c12.348 0 23.532 5.004 31.632 13.104C87.72 24.468 92.724 35.652 92.724 48c0 12.348-5.004 23.532-13.092 31.62zm.588-63.84C71.976 7.536 60.576 2.436 48 2.436s-23.964 5.1-32.22 13.344C7.536 24.036 2.448 35.424 2.448 48s5.1 23.976 13.344 32.22 19.632 13.344 32.22 13.344c12.576 0 23.976-5.1 32.22-13.344S93.576 60.588 93.576 48c-.012-12.576-5.112-23.964-13.356-32.22zm-.588 63.84c-8.1 8.1-19.284 13.104-31.632 13.104-12.348 0-23.532-5.004-31.62-13.104C8.28 71.532 3.276 60.348 3.276 48c0-12.348 5.004-23.532 13.104-31.62C24.468 8.28 35.652 3.276 48 3.276c12.348 0 23.532 5.004 31.632 13.104C87.72 24.468 92.724 35.652 92.724 48c0 12.348-5.004 23.532-13.092 31.62zm.588-63.84C71.976 7.536 60.576 2.436 48 2.436s-23.964 5.1-32.22 13.344C7.536 24.036 2.448 35.424 2.448 48s5.1 23.976 13.344 32.22 19.632 13.344 32.22 13.344c12.576 0 23.976-5.1 32.22-13.344S93.576 60.588 93.576 48c-.012-12.576-5.112-23.964-13.356-32.22zm-.588 63.84c-8.1 8.1-19.284 13.104-31.632 13.104-12.348 0-23.532-5.004-31.62-13.104C8.28 71.532 3.276 60.348 3.276 48c0-12.348 5.004-23.532 13.104-31.62C24.468 8.28 35.652 3.276 48 3.276c12.348 0 23.532 5.004 31.632 13.104C87.72 24.468 92.724 35.652 92.724 48c0 12.348-5.004 23.532-13.092 31.62z" fill="#332F2F"/><path d="M77.496 40.392l-.072-.288A30.551 30.551 0 0069.54 26.46a30.445 30.445 0 00-13.332-7.8 19.329 19.329 0 01-.408-.108c-.012 0-.024-.012-.048-.012-.012 0-.036-.012-.048-.012a7.335 7.335 0 00-.492-.12c-.132-.036-.264-.06-.408-.096h-.036c-.012 0-.024 0-.036-.012h-.012a.426.426 0 00-.12-.024h-.048a30.309 30.309 0 00-6.564-.708c-1.908 0-3.78.18-5.592.516h-.012c-.024 0-.048.012-.072.012-.012 0-.036 0-.048.012h-.024c-.3.048-.6.12-.888.18-.024 0-.036.012-.06.012s-.036.012-.048.012a30.683 30.683 0 00-5.436 1.788 30.715 30.715 0 00-9.336 6.372 30.322 30.322 0 00-8.916 21.54c0 2.028.204 4.008.576 5.928a30.163 30.163 0 003 8.412c.036.072.06.132.096.192a30.88 30.88 0 005.232 6.996 30.365 30.365 0 0021.528 8.916c8.412 0 16.02-3.408 21.54-8.916a30.353 30.353 0 008.436-16.116 31.12 31.12 0 00.48-5.424 30.04 30.04 0 00-.948-7.608zm-.288 8.268v.228c0 .156-.012.324-.024.48-.012.336-.036.672-.072 1.02-.012.204-.036.396-.048.588-.036.384-.084.756-.144 1.128v.024l-.036.228c0 .036-.012.06-.012.096l-.036.228c-.048.324-.108.636-.168.96 0 .024-.012.06-.012.096l-.024.096v.024c-.012.036-.012.072-.024.108-.012.036-.012.072-.024.108l-.18.792c-.012.036-.012.072-.024.108-.012.036-.012.072-.024.108a28.984 28.984 0 01-3.864 8.88s0 .012-.012.012v.012c-.324.504-.66.984-1.02 1.464-.012.024-.036.048-.048.072-.012.024-.036.048-.048.072-.024.036-.048.072-.072.096l-.036.036c-.024.024-.036.048-.048.072-.108.144-.228.288-.336.432a.318.318 0 01-.06.072.318.318 0 01-.06.072 31.39 31.39 0 01-2.064 2.304 29.967 29.967 0 01-2.616 2.328c-.024.012-.036.036-.06.048-.024.012-.036.036-.06.048-.216.168-.444.336-.66.504-.024.012-.036.036-.06.048a.262.262 0 00-.06.048l-.252.18c-.024.024-.048.036-.084.06-.024.024-.06.036-.084.06a29.124 29.124 0 01-7.176 3.66 28.636 28.636 0 01-5.664 1.332c-.012 0-.036 0-.048.012-1.248.156-2.52.252-3.804.252-3.576 0-6.996-.636-10.164-1.812a27.963 27.963 0 01-5.208-2.556 28.477 28.477 0 01-4.5-3.444.776.776 0 00-.108-.096c-.132-.132-.276-.252-.408-.384a2.741 2.741 0 01-.264-.264 29.376 29.376 0 01-3.024-3.552c0-.012-.012-.012-.012-.024-.024-.036-.048-.06-.072-.096-.012-.012-.024-.024-.024-.036-.012-.012-.024-.036-.036-.048a.166.166 0 01-.036-.048c-.072-.096-.132-.192-.204-.288-.036-.048-.072-.108-.108-.156-.024-.036-.048-.06-.06-.096-.012-.024-.024-.048-.048-.06-.024-.036-.036-.06-.06-.096-.024-.036-.048-.06-.06-.096-.42-.624-.804-1.26-1.164-1.908 0-.012-.012-.012-.012-.024-.084-.144-.156-.288-.228-.432-.18-.324-.336-.648-.504-.972-.024-.036-.036-.072-.06-.108-.012-.012-.012-.024-.024-.048l-.036-.072c-.012-.012-.012-.024-.024-.048a11.393 11.393 0 01-.3-.672c-.012-.036-.036-.072-.048-.12-.012-.048-.036-.072-.048-.108-.012-.012-.012-.036-.024-.048-.048-.108-.096-.216-.132-.324-.048-.096-.084-.204-.12-.3-.024-.072-.06-.144-.096-.228-.036-.084-.06-.156-.096-.24-.024-.048-.036-.096-.06-.144l-.252-.684c-.036-.12-.084-.228-.12-.348-.036-.12-.072-.228-.108-.348a.222.222 0 01-.024-.084c-.036-.132-.084-.264-.12-.396-.012-.024-.012-.048-.024-.084-.012-.024-.012-.06-.024-.084-.06-.18-.108-.372-.156-.564a3.993 3.993 0 01-.096-.36c-.012-.024-.012-.06-.024-.084l-.072-.288v-.012a29.348 29.348 0 01-.828-6.936c0-8.064 3.276-15.372 8.556-20.652a29.008 29.008 0 0112.48-7.392c.372-.108.756-.216 1.14-.3h.012c.192-.048.396-.096.6-.144.036-.012.072-.012.108-.024l.204-.036c1.968-.42 4.02-.648 6.12-.648 2.352 0 4.644.276 6.84.804h.012c.024 0 .036 0 .048.012.108.024.216.048.324.084h.036c.012 0 .024.012.024.012.12.024.24.06.348.096.156.048.312.084.468.132.012 0 .024 0 .036.012a.17.17 0 01.072.024 29.056 29.056 0 0112.432 7.38 29.987 29.987 0 011.86 2.04c.36.444.708.888 1.044 1.344.216.3.432.6.636.912.6.888 1.164 1.824 1.668 2.784.036.06.072.12.096.18.144.276.288.564.42.852.048.084.084.168.12.252.48 1.044.912 2.124 1.26 3.228.024.084.06.168.084.252.06.168.108.336.156.516.036.12.072.252.108.384.012.072.036.132.06.204a29.37 29.37 0 01.672 3.12c.024.12.036.252.06.372s.036.252.048.372c.024.204.06.408.072.6.036.3.06.6.084.9l.036.468a24.5 24.5 0 01.06 1.884 4.478 4.478 0 00-.036.6z" fill="#332F2F"/><path d="M39.756 25.896l-.048-.036.048-.06-5.7-3.3h-.012v-.024l-4.368 2.52c-.36.288-.72.588-1.068.9-.036.036-.084.072-.12.108-.048.036-.096.084-.144.12v6.228l-1.872 1.08V27.96s-.792.864-1.068 1.212c-.252.312-.888 1.14-.888 1.14v4.248l-1.848 1.068v-2.52a28.545 28.545 0 00-1.752 3.54c-.072.156-.132.324-.204.492-.288.744-.552 1.5-.792 2.28l.792-.456v3.3l-1.656.96a30.59 30.59 0 00-.276 2.376l3.852-2.232-.036-.024h.072v-5.508l1.848-1.068v7.548l-5.82 3.36v.144c0 .684.024 1.368.072 2.052l5.748-3.336v2.184l-5.532 3.192c.096.684.216 1.356.36 2.028l8.4-4.884-1.272-.732v-2.928l.792-.468-.792-.456V35.64l7.368-4.248.204-.108h.012l5.664 3.264.948-1.644-.9-.528v-6.48h-.012zm-9.528 5.388V26.88l3.804-2.196 3.816 2.208v4.392L35.94 30.18v-2.208l-1.908-1.092-1.908 1.104v2.196l-.036.024-.084.048-.204.108h.012l-1.584.924zm9.516-9.876l3.072-1.776v-.576c-.348.06-.684.132-1.02.204l-.204.036c-.036.012-.072.012-.108.024l-.6.144h-.012c-.384.096-.756.192-1.128.312-.612.18-1.212.372-1.8.588l-.024-.012s-.18.072-.408.156c-.264.108-.588.228-.744.288-.264.108-1.056.456-1.056.456l.024.012 6.384 3.684 1.188-1.5-3.564-2.04z" fill="#332F2F"/><path d="M34.044 33.48l-.048-.024-1.812 1.104-3.852 2.22v7.392h1.896v-6.3l3.816-2.196v-.012l4.188 2.412.936-1.632-5.124-2.952v-.012z" fill="#332F2F"/><path d="M32.136 38.952v2.196l-.324.18 1.932 1.08.3-.156 1.908-1.104V38.94l-1.908-1.08-1.908 1.092zM63.264 66.18l5.208 3.012 1.092-1.524-6.204-3.54-.096 2.052zm.816 4.32l2.136 1.788 1.092-1.536-3.444-1.848.216 1.596zm-1.5-11.064l-.168 1.992 9.204 5.544 1.092-1.524-10.128-6.012zm14.844-9.552c.048-.672.072-1.356.072-2.052v-.144l-5.82-3.36V36.78l1.848 1.068v5.508h.072l-.036.024 3.852 2.232a30.59 30.59 0 00-.276-2.376l-1.656-.96v-3.3l.792.456a24.341 24.341 0 00-.792-2.28c-.06-.168-.132-.324-.204-.492a29.402 29.402 0 00-1.752-3.54v2.52l-1.848-1.068v-4.248s-.636-.828-.888-1.14c-.276-.348-1.068-1.212-1.068-1.212v5.472l-1.872-1.08v-6.228a1.271 1.271 0 00-.144-.12c-.036-.036-.084-.072-.12-.108a24.93 24.93 0 00-1.068-.9l-4.368-2.52v.024h-.012l-5.7 3.288.048.06-.048.036v6.492l-.9.528.948 1.644 5.664-3.264h.012l.204.108 7.368 4.248v8.832l-.792.456.792.468v2.928l-1.272.732 8.4 4.884a28.66 28.66 0 00.36-2.028l-5.544-3.204v-2.184l5.748 3.348zm-11.472-18.6l-1.584-.912h.012l-.204-.108-.084-.048-.036-.024v-2.196l-1.908-1.104-1.908 1.092v2.208l-1.908 1.104v-4.392l3.816-2.208 3.804 2.196v4.392zm-5.46-10.02s-.792-.348-1.056-.456c-.156-.06-.48-.192-.744-.288-.228-.084-.408-.156-.408-.156l-.024.012a28.689 28.689 0 00-1.8-.588 39.479 39.479 0 00-1.128-.312h-.012l-.6-.144c-.036-.012-.072-.012-.108-.024a6.847 6.847 0 00-.204-.036 30.653 30.653 0 00-1.02-.204v.576l3.072 1.776-3.564 2.052 1.188 1.5 6.384-3.684.024-.024z" fill="#332F2F"/><path d="M64.008 34.56l-1.812-1.104-.048.024v.012l-5.124 2.952.936 1.632 4.188-2.412v.012l3.804 2.196v6.3h1.908V36.78l-3.852-2.22z" fill="#332F2F"/><path d="M64.044 38.952l-1.896-1.092-1.908 1.08v2.208l1.908 1.104.3.156 1.932-1.08-.336-.18v-2.196zm-51.324-2.76a2.325 2.325 0 00-.444-.876 1.578 1.578 0 00-.732-.516 1.756 1.756 0 00-.9-.072c-.312.06-.612.192-.9.396a3.15 3.15 0 00-.72.72 3.85 3.85 0 00-.504.96c-.132.36-.204.72-.228 1.068-.024.36.012.708.096 1.02.084.336.24.636.444.876.192.24.444.42.732.516.288.108.6.12.9.072.312-.06.612-.192.9-.396a3.15 3.15 0 00.72-.72c.204-.276.384-.6.504-.96.132-.36.204-.72.228-1.068a3.142 3.142 0 00-.096-1.02zM9.492 37.98c-.132.18-.24.384-.3.624-.048-.204-.06-.432-.048-.684.024-.264.072-.54.18-.816a3.34 3.34 0 01.384-.744c.156-.228.348-.408.54-.54.144-.108.3-.18.456-.228a.914.914 0 01.252-.036v-.348c.108.3.144.444.144.648.024.312-.048.552-.156.756-.156.264-.42.468-.672.66-.276.204-.564.42-.78.708zm2.472-.804c-.024.264-.072.54-.18.816-.108.276-.24.528-.384.744a2.097 2.097 0 01-.54.54c-.156.108-.312.18-.468.228a.914.914 0 01-.252.036v.372c-.12-.372-.144-.456-.156-.756v-.012c0-.228.048-.42.144-.576.144-.252.396-.444.648-.636.3-.228.588-.456.816-.756.144-.192.264-.42.324-.696.06.216.072.444.048.696zm74.94-.108a4.02 4.02 0 00-.348-1.032 3.06 3.06 0 00-.6-.828 2.406 2.406 0 00-.828-.54 1.603 1.603 0 00-.888-.072c-.3.06-.576.192-.804.396a2.29 2.29 0 00-.576.792 3.111 3.111 0 00-.252.996c-.036.348-.024.72.048 1.092.072.372.192.72.348 1.032.168.324.372.6.6.828.252.24.528.432.816.54a1.693 1.693 0 001.704-.324c.24-.204.432-.48.576-.792.132-.288.228-.636.264-.996.024-.348.012-.72-.06-1.092zm-1.836 2.064v.012c-.048.3-.096.372-.276.72.024-.144.048-.264.06-.36a.575.575 0 01-.24-.084 1.6 1.6 0 01-.42-.3 2.24 2.24 0 01-.444-.624 3.163 3.163 0 01-.264-.804 3.335 3.335 0 01-.036-.84c.024-.24.072-.468.156-.672.012.276.096.516.204.744.168.336.42.6.684.876.216.228.432.456.54.732.048.18.084.372.036.6zm1.044-1.068c-.024.24-.072.468-.156.66a1.922 1.922 0 00-.192-.66c-.168-.312-.408-.576-.66-.84-.216-.24-.444-.48-.552-.768-.084-.216-.108-.456-.036-.768.048-.204.096-.336.252-.612-.024.132-.048.24-.06.336.084.012.156.048.24.084a1.6 1.6 0 01.42.3c.168.168.324.384.444.624s.204.504.264.804c.048.288.06.576.036.84zM24.588 24.36l.996-1.032-6.444-6.192-3.072 3.192 6.444 6.192.972-1.008-5.52-5.304 1.104-1.152 5.52 5.304zm3.552-4.692l-1.896 1.5-1.62-2.052 1.512-1.2-.792-.996-1.512 1.2-1.548-1.944 1.908-1.5-.792-.996-3 2.376 5.544 6.996 3-2.376-.804-1.008zm-.552-7.14l1.26-.756-.66-1.092-3.732 2.232.66 1.092 1.26-.756 3.924 6.576 1.2-.72-3.912-6.576zM36 15.552l-2.22.972-1.044-2.4 1.764-.768-.504-1.176-1.764.768-.996-2.28 2.22-.972-.504-1.176-3.516 1.536 3.576 8.184 3.516-1.536L36 15.552zm3.252-5.448l-.324-1.116c-.204-.696-.528-1.176-.96-1.428-.432-.264-.996-.3-1.668-.096l-1.98.588 2.52 8.568 1.344-.396-.948-3.216.636-.18c.672-.204 1.128-.528 1.356-.984.216-.468.228-1.044.024-1.74zm-1.308 1.176c-.084.144-.228.252-.444.312l-.636.192-.852-2.904.636-.192c.216-.06.396-.048.54.024.144.084.264.276.36.588l.372 1.284c.096.312.108.552.024.696zm6.9 1.32l-.18-1.152c-.108-.72-.36-1.236-.756-1.548-.396-.312-.948-.42-1.644-.312l-.66.096-.312-2.052 2.28-.348-.192-1.26-3.66.552 1.344 8.832 2.04-.312c.696-.108 1.188-.372 1.476-.792.288-.42.372-.984.264-1.704zm-1.452.984c-.096.132-.264.216-.48.252l-.66.096-.456-2.988.66-.096c.216-.036.396 0 .528.096s.228.312.276.624l.204 1.32c.06.336.024.564-.072.696zm5.856-7.788l-1.26 5.232-1.56-5.22h-1.404l2.076 6.708c0 .192-.024.36-.06.48a.657.657 0 01-.168.3.534.534 0 01-.252.144 1.308 1.308 0 01-.312.036h-.24c-.084 0-.168 0-.24-.012v1.284c.12.012.228.024.336.024h.348c.264 0 .504-.012.72-.024.216-.024.42-.096.6-.24a.166.166 0 01.048-.036c.168-.144.336-.36.48-.672.036-.072.072-.144.096-.228.132-.312.264-.708.384-1.188l1.8-6.588h-1.392zm6.444 1.248c-.288-.42-.78-.684-1.476-.78l-2.052-.3L51 13.992l-.108.72-.012.084.468.072.924.132.06-.408.42-2.916.66.096c.696.096 1.248-.012 1.644-.336.396-.324.648-.84.744-1.56l.168-1.152c.108-.696.012-1.26-.276-1.68zM54.588 8.46l-.192 1.32c-.048.324-.132.528-.276.624-.132.096-.312.132-.528.108l-.66-.096.432-2.988.66.096c.216.036.384.12.48.252.108.132.132.36.084.684zm3.036-1.572l-2.388 8.604 1.356.372 2.04-7.38 2.232.612.336-1.224-3.576-.984zm8.016 3.288c-.18-.492-.576-.876-1.212-1.14-.636-.264-1.188-.288-1.668-.072-.48.216-.852.66-1.14 1.332l-1.8 4.284c-.276.66-.336 1.248-.156 1.74.18.492.576.876 1.212 1.14.636.264 1.188.288 1.668.072.48-.216.852-.66 1.14-1.332l.468-1.092-1.224-.516-.492 1.176c-.12.3-.276.48-.444.54a.77.77 0 01-.564-.024.717.717 0 01-.408-.384c-.072-.168-.048-.396.084-.696l1.872-4.44c.12-.3.276-.48.444-.552.168-.072.36-.06.564.024a.717.717 0 01.408.384c.072.168.048.408-.084.708l-.372.888 1.224.516.336-.804c.264-.684.324-1.26.144-1.752zm4.872 2.124l-3.588 2.4 1.98-3.348-1.212-.72-4.56 7.68 1.212.72 1.404-2.364.792-.48-.648 3.756 1.236.732.852-5.256 3.708-2.424-1.176-.696zm3.42 2.4l-6.756 6.012.996.816 1.212-1.104 1.332 1.092-.84 1.404 1.092.9 4.548-7.824-1.584-1.296zm-2.604 5.748l-1.044-.852 3.384-3.072-2.34 3.924zm7.824-.912c-.492-.54-.972-.816-1.452-.828-.468-.012-.96.216-1.476.684l-.516.468c-.672.624-.912 1.248-.72 1.896-.348-.168-.684-.192-1.02-.06-.336.12-.672.348-1.02.66l-1.02.924c-.168.144-.312.276-.444.372-.132.096-.288.18-.456.24l.96 1.056c.06-.024.108-.048.156-.072.048-.024.108-.048.168-.096.06-.036.144-.096.228-.18.096-.072.204-.18.336-.3l1.032-.948c.312-.276.576-.42.792-.432.228-.012.444.108.66.348l.324.36-2.688 2.448.948 1.032 6.6-6.024-1.392-1.548zm-2.496 3.228l-.372-.408c-.18-.192-.264-.396-.264-.6 0-.204.132-.42.396-.66l.648-.588c.24-.216.456-.336.636-.348.18-.012.36.072.528.252l.456.504-2.028 1.848zm-61.56 30.912l-4.104-1.32 3.852-.528-.192-1.392-8.844 1.212L6 53.04l2.712-.372.864.324-3.336 1.836.192 1.428 4.632-2.604 4.212 1.392-.18-1.368zm.9 3.42c-.192-.66-.516-1.116-.984-1.368-.468-.252-1.056-.276-1.752-.072l-4.464 1.26c-.696.192-1.176.528-1.452.984-.276.456-.312 1.02-.132 1.68.192.66.516 1.116.984 1.368.468.252 1.056.276 1.752.072l4.464-1.26c.696-.192 1.176-.528 1.452-.984.276-.456.324-1.02.132-1.68zm-1.272.912c-.096.156-.288.288-.6.372L9.48 59.7c-.312.084-.552.084-.708 0a.705.705 0 01-.336-.456c-.06-.216-.048-.396.048-.564.096-.168.288-.288.6-.372L13.716 57c.312-.084.552-.084.708 0 .156.096.276.24.336.456a.674.674 0 01-.036.552zm3.372 5.988l-.288-.6.456-.216-.612-1.26-.456.216-.288-.6c-.312-.636-.708-1.02-1.188-1.176-.492-.144-1.056-.06-1.704.252L11.82 61.68c-.648.312-1.068.708-1.26 1.176-.18.468-.12 1.032.18 1.668l.288.6-1.416.684.612 1.26 1.416-.684.288.6c.312.636.708 1.032 1.188 1.176.48.144 1.056.06 1.704-.252l2.196-1.056c.648-.312 1.068-.708 1.26-1.176.18-.492.12-1.044-.18-1.68zm-5.916.576l-.288-.6c-.096-.204-.12-.372-.06-.54.06-.156.228-.312.516-.456l2.352-1.14c.288-.144.516-.18.672-.132.156.06.288.18.384.384l.288.6-3.864 1.884zm4.824.516c-.06.156-.228.312-.516.444l-2.352 1.14c-.288.144-.516.18-.672.132-.156-.06-.288-.18-.384-.384l-.288-.6 3.864-1.872.288.6c.096.204.12.384.06.54zm2.736.768l-7.272 5.184 2.22 3.12 1.044-.744-1.404-1.968 2.136-1.512 1.116 1.572 1.044-.744-1.116-1.572 2.028-1.44 1.404 1.968 1.044-.744-2.244-3.12zm4.356 5.436l-4.872 2.628 3.876-3.672-.864-.912-6.48 6.144.996 1.044 5.892-3.18-4.692 4.452.864.912 6.48-6.144-1.2-1.272zm-.252-2.508l-.756.72 2.124 2.244.756-.72-2.124-2.244zm4.236 6l-2.352 3.012-1.26-.984L26.82 73.8l-1.104-.864-5.496 7.032 1.104.864 2.352-3.012 1.26.984-2.352 3.012 1.128.876 5.496-7.032-1.128-.876zm2.664 1.8l-5.628 7.068 1.116.636 1.008-1.296 1.5.852-.588 1.524 1.236.696 3.144-8.472-1.788-1.008zm-1.584 6.108l-1.176-.66 2.808-3.6-1.632 4.26zm6.924-3.516c-.684-.264-1.236-.288-1.668-.096-.432.204-.768.624-1.008 1.272l-.252.66c-.324.852-.252 1.536.216 2.016-.384.012-.696.144-.936.396-.24.264-.444.612-.612 1.044l-.492 1.284c-.084.204-.156.384-.228.528-.072.144-.18.288-.3.42l1.332.504c.036-.048.072-.096.108-.132a.678.678 0 00.108-.168c.036-.072.084-.156.132-.264.048-.108.096-.252.168-.408l.504-1.308c.144-.384.324-.636.516-.744.192-.108.444-.108.744.012l.456.168-1.296 3.396 1.308.504 3.18-8.34-1.98-.744zM34.8 82.992c-.252-.096-.42-.228-.504-.408-.096-.18-.072-.432.06-.768l.312-.816c.12-.3.252-.504.408-.588.156-.096.348-.096.588-.012l.636.24-.984 2.556-.516-.204zm9.912-1.752l-1.752 6.156-.216-6.42-1.932-.252-1.14 8.844 1.212.156.804-6.252.24 6.384 1.32.168 1.776-6.216-.816 6.348 1.32.168 1.14-8.844-1.956-.24zm5.712.06l-2.052.084-1.044 8.976 1.284-.06.168-1.632 1.716-.072.312 1.608 1.416-.06-1.8-8.844zm-1.512 6.168l.48-4.536.864 4.476-1.344.06zm7.62-7.116l-1.404.264.72 3.756-1.56.3-.72-3.756-1.38.264 1.692 8.76 1.38-.264-.72-3.756 1.56-.3.72 3.756 1.404-.264-1.692-8.76zm6.132 4.836l-.528-6.804-1.32.48.6 5.34-3.24-4.38-1.32.48 4.224 5.592c.06.18.108.336.108.468a.604.604 0 01-.06.336.484.484 0 01-.192.216 1.21 1.21 0 01-.276.144 2.762 2.762 0 00-.228.084 5.267 5.267 0 00-.228.072l.444 1.2c.12-.024.228-.06.324-.096.096-.036.204-.072.324-.12a9.63 9.63 0 00.672-.276c.204-.096.36-.228.492-.432.132-.192.216-.48.252-.84.024-.336.012-.84-.048-1.464zm7.884-5.748l-1.236-2.1c-.372-.624-.792-1.008-1.284-1.152-.48-.144-1.032-.036-1.644.312l-.576.336-.264-.444-1.212.708.264.444-.576.336c-.612.36-.96.792-1.068 1.284-.108.492.024 1.056.396 1.68l1.236 2.1c.372.624.792 1.008 1.284 1.152.492.144 1.032.036 1.644-.312l.576-.336.804 1.344 1.212-.708-.792-1.344.576-.336c.612-.36.96-.792 1.068-1.284.084-.504-.036-1.056-.408-1.68zm-3.684 3.252c-.192.108-.372.144-.528.108-.168-.048-.324-.204-.492-.48l-1.332-2.244c-.168-.276-.228-.504-.18-.66.048-.168.156-.3.348-.408l.576-.336 2.184 3.696-.576.324zm2.7-1.8c-.048.168-.156.3-.348.408l-.576.336-2.184-3.696.576-.336c.192-.108.372-.144.528-.108.168.048.324.204.492.48l1.332 2.256c.168.276.228.492.18.66zm.84-8.124l-1.56 1.332 4.704 7.716.984-.84-.864-1.392 1.308-1.116 1.236 1.068 1.08-.912-6.888-5.856zm2.604 5.784l-2.412-3.876 3.444 2.988-1.032.888zm8.496-4.596l-5.016-1.788-1.716-4.08-.9 1.032 1.704 3.96-2.928-2.556-.924 1.056 6.72 5.868.924-1.056-2.064-1.8-.324-.864 3.576 1.308.948-1.08zm-4.008-7.752l.792-1.236-1.068-.696-2.352 3.648 1.068.696.792-1.236 6.42 4.152.768-1.176-6.42-4.152zm8.904-1.032c-.048-.228-.192-.48-.42-.768-.228-.288-.588-.624-1.08-1.02l-5.256-4.356-.576 1.284 4.248 3.3-5.4-.72-.576 1.284 6.96.876c.18.084.324.168.42.252.096.084.168.18.204.276a.59.59 0 01.024.288.97.97 0 01-.096.3c-.036.072-.06.144-.096.216-.036.084-.072.144-.108.216l1.164.516c.06-.096.12-.204.156-.288.036-.096.084-.204.144-.312.108-.24.192-.468.264-.672.072-.228.084-.444.024-.672zm-.972-6.372l.18-.636c.192-.684.144-1.236-.12-1.668-.264-.432-.756-.744-1.452-.936l-1.116-.312c-.696-.192-1.272-.168-1.716.06-.456.228-.768.684-.96 1.368l-.552 1.992 8.604 2.364.372-1.356-3.24-.876zm-1.044-.972l-.18.636-2.916-.804.18-.636c.06-.216.156-.36.312-.444.144-.084.372-.084.684 0l1.296.36c.312.084.504.204.588.348.072.144.084.324.036.54zm5.688-5.22l.192-1.404-9.036.24-.276 2.04 8.652 2.592.168-1.272-1.572-.456.228-1.704 1.644-.036zm-3.048 1.404l-4.38-1.272 4.56-.072-.18 1.344z" fill="#332F2F"/><path fill-rule="evenodd" clip-rule="evenodd" d="M41.748 46.116h6.576l1.452-1.5a.52.52 0 01.36-.156h4.296v-3.768l-.84.648-2.172 1.632c-1.344.96-2.292 1.464-3.264 1.5h-.12c-.972-.036-1.92-.528-3.264-1.488-.852-.588-1.764-1.356-2.832-2.148l-.18-.144v5.424h-.012zm13.668-6.348v4.776l3.408 1.788-1.536-8.112h-.792a7.523 7.523 0 01-1.08 1.548z" fill="#E6E6E6"/><path d="M76.656 53.856c-.012.036-.012.084-.024.12-.012.036-.012.072-.024.108l-.492-.276-4.08-2.268c-.012 0-.024-.012-.036-.012l-3.888-2.172a.496.496 0 00-.732.432l-.012.756-.504-.264-6.408-3.36-1.68-8.064-.156-.756 13.02 7.272 5.016 8.484z" fill="#E6E6E6"/><path fill-rule="evenodd" clip-rule="evenodd" d="M71.784 52.08l-2.556 11.832 2.016 1.932c2.316-3.156 4.008-7.236 4.896-11.172l-4.356-2.592z" fill="#E6E6E6"/><path d="M37.968 38.58L34.62 56.556l-2.34 1.68-.468.06-8.916 1.152-1.668.216c-.012-.036-.036-.072-.048-.108-.012-.012-.012-.036-.024-.048a28.639 28.639 0 01-1.152-3.18l.06-.084 6.84-11.088 10.512-6.228.552-.348z" fill="#E6E6E6"/><path fill-rule="evenodd" clip-rule="evenodd" d="M32.244 59.256l-10.536 1.356c.564 1.248 1.368 2.868 2.1 4.008l8.16-3.516.276-1.848z" fill="#C2BEBE"/><path fill-rule="evenodd" clip-rule="evenodd" d="M61.116 55.812l-1.836-1.764.672 4.236v.036c.048.564.06 1.176.012 1.788-.012.096-.012.192-.024.276 0 .036-.012.072-.012.108 0 .024 0 .06-.012.084v.072c0 .036-.012.06-.012.096 0 .024-.012.06-.012.084 0 .036-.012.072-.012.108-.012.048-.012.096-.024.144v.036c0 .024 0 .036-.012.06v.012c0 .024-.012.06-.012.096-.024.12-.036.24-.072.36 0 .024-.012.048-.012.072v.012c-.012.024-.012.048-.012.072-.012.036-.012.072-.024.108-.012.06-.024.108-.036.156-.012.036-.012.06-.024.096-.012.036-.012.06-.024.096-.024.06-.036.132-.06.192a1.18 1.18 0 01-.06.192 7.29 7.29 0 01-.684 1.524c-.024.024-.036.06-.048.084a1.715 1.715 0 01-.168.24 2.818 2.818 0 01-.228.3c-.012.012-.012.024-.024.024-.024.024-.036.048-.06.072-.024.036-.06.06-.084.096l-.012.012s0 .012-.012.012l-.024.024-.024.024-.06.06-.132.132-.06.06c.024.024.048.036.072.06.072.06.144.132.204.204.084.084.168.168.252.264l.036.036c.012.012.024.036.048.048.048.048.096.108.132.156a7.547 7.547 0 011.404 2.544h.972c.036 0 .084 0 .12.012.036 0 .084 0 .12.012.06 0 .12.012.192.024.06.012.12.012.18.024s.12.012.168.024c.12.024.228.036.336.072.156.036.324.072.48.12.048.012.108.036.156.048.012 0 .012 0 .024.012.048.024.108.036.156.06.24.084.48.18.708.288l-2.532-13.5z" fill="#E6E6E6"/><path fill-rule="evenodd" clip-rule="evenodd" d="M68.52 63.096l2.4-11.424-2.868-1.596-.3 12.288.768.732z" fill="#C2BEBE"/><path fill-rule="evenodd" clip-rule="evenodd" d="M39.636 56.94l-.72.912-.456.576a9.998 9.998 0 00.144 2.808c.156.792.396 1.536.72 2.16h5.196v-1.428l-4.884-5.028zm18.96 1.488l-.864-5.508-1.524-1.8-.36-.432-7.656.42c-.276.024-.492-.216-.492-.492v-2.76c0-.108.036-.204.084-.276 0 0 0-.012.012-.012.024-.024.048-.06.072-.072l.384-.396h-8.004l-.96 6.072h17.52a.49.49 0 01.468.492v2.352a.485.485 0 01-.216.408l-6.6 5.556v1.428h2.148a7.485 7.485 0 014.104 1.32c.048-.048.108-.084.156-.132.564-.516 1.008-1.308 1.308-2.232.384-1.2.54-2.592.42-3.936zm-16.44-28.512s-2.58 3.156-2.292 4.872c.288 1.716.864 4.02 2.004 4.872 1.152.864 5.448 4.584 6.6 4.308 1.152-.276 6.312-3.444 7.464-5.16 1.152-1.716 1.44-3.156 1.152-4.872-.288-1.716-2.58-4.02-2.58-4.02l-1.44 1.716-.864-1.152h-6.6l-1.776.756-1.668-1.32z" fill="#6D5730"/><path fill-rule="evenodd" clip-rule="evenodd" d="M50.82 33.672a2.435 2.435 0 00-.684-.228c0 1.188-.024 2.22-1.404 3.096v6.888c.12-.024.24-.072.372-.12.492-.192 1.044-.528 1.728-1.008.348-2.892.312-5.748-.012-8.628zm2.856 1.596a6.443 6.443 0 01-1.8-.912c.228 2.364.252 4.752.024 7.128l.396-.3 1.356-1.044c.168-.78.264-1.572.276-2.4.012-.78-.072-1.608-.252-2.472zm1.668-4.284c-.012-.012-.012-.024-.024-.036v-.024c-.012-.012-.024-.024-.024-.036-.012-.012-.024-.024-.036-.048 0 0 0-.012-.012-.012-.024-.036-.048-.06-.072-.096l-.036-.036s0-.012-.012-.012c-.012-.012-.012-.024-.024-.024-.024-.036-.06-.072-.084-.108a.601.601 0 00-.084-.096h-.012l-1.32 1.008c.768 1.02 1.164 2.328 2.004 3.312a.503.503 0 01-.216.792.446.446 0 01-.252.012h-.012c-.132-.024-.252-.036-.372-.06.204 1.2.24 2.376.096 3.552.144-.168.288-.336.42-.504 1.764-2.34 1.752-5.304.072-7.584zm-9.012 2.556v-.096a2.788 2.788 0 00-.696.228c-.324 2.892-.372 5.736 0 8.616.864.612 1.512.984 2.1 1.128v-6.888c-1.344-.852-1.404-1.848-1.404-2.988zm-1.788 1.08c.012-.084.012-.168.024-.264-.456.312-.984.648-1.788.9-.18.864-.252 1.692-.252 2.484.012.816.108 1.62.276 2.4l1.752 1.344a2.526 2.526 0 01-.024-.3c-.204-2.184-.18-4.38.012-6.564zm-1.524-3.336c.036-.048.072-.096.096-.144l-1.104-.96c-2.232 2.496-2.736 6.3-.384 8.904-.024-.168-.036-.348-.048-.516a12.955 12.955 0 01.132-2.964c0-.024.012-.048.012-.072-.084.012-.18.036-.276.048-.048.012-.084.012-.132.024a.494.494 0 01-.456-.804c.804-.948 1.428-2.484 2.16-3.516z" fill="#33250E"/><path fill-rule="evenodd" clip-rule="evenodd" d="M48.24 32.773c2.268-.313 3-.085 3.924.587.48.349 1.008.72 1.932 1.008-.9-1.572-1.32-3.216-3.456-3.504-.684-.096-1.44-.348-2.22-.216l-.564-.06c-.216-.024-.42-.047-.612-.06h-.048c-.696-.06-1.632.325-2.148.517-1.488.551-1.932 2.015-2.676 3.311.924-.288 1.452-.672 1.932-1.008.912-.66 1.668-.887 3.936-.575z" fill="#33250E"/><path fill-rule="evenodd" clip-rule="evenodd" d="M67.932 52.776l-9.048-5.172-.048-.024-4.212-2.208H49.92L47.388 48l.516 2.844 7.932-.444c.12 0 .252.048.348.144l11.352 10.668.396-8.436zM55.644 19.8c-.036-.384-.18-.876-.444-1.392-.624-1.296-1.92-2.796-3.864-3.528-.144-.06-.3-.108-.456-.156a7.518 7.518 0 00-2.712-.288c-.096.012-.192.012-.288.024h-.096a6.48 6.48 0 00-.864.156c-.012 0-.024.012-.048.012-.012 0-.024 0-.036.012-.144.036-.288.084-.432.12-1.308.42-2.34 1.188-3.132 2.076l-.012.012v.012a9.095 9.095 0 00-.888 1.2c-.036.048-.06.096-.096.144 0 0 0 .012-.012.012-.252.408-.456.84-.624 1.248-.108.264-.216.528-.3.792 0 .012-.012.024-.012.036v4.596c1.332-1.116 3.456-1.728 4.896-.756.636.432 1.092 1.044 1.26 1.764a.602.602 0 01.024.144v3.816l.768.228c.072-.012-.024.036.036.024.468-.06.96-.264 1.44-.3.072-.012.144-.012.216-.012 1.032.036 2.028.288 2.82.948.072-.06.132-.12.204-.192 1.152-1.092 1.872-2.58 1.872-4.2v-.276c-.108-.456-.42-.852-.84-1.14-.048-.036-.096-.06-.144-.096l-.072-.036c-.024-.012-.06-.024-.084-.048-.036-.012-.072-.036-.096-.048-.024-.012-.06-.024-.084-.036-.024-.012-.06-.024-.084-.036a.827.827 0 00-.096-.036c-.024-.012-.048-.012-.072-.024a.226.226 0 00-.096-.024c-.036-.012-.06-.012-.096-.024l-.18-.036a1.05 1.05 0 00-.192-.024c-.036 0-.072-.012-.096-.012-.036 0-.06 0-.096-.012h.012-.024c-1.104-.072-2.256.396-2.688 1.308 1.008.36 2.268.972 3.276.588.612-.228.864.084.252.312-1.38.528-2.256.264-3.588-.384a.484.484 0 01-.264-.54c.24-1.188 1.068-1.644 2.076-1.92.924-.252 2.484-.252 3.552.372h.012c.048.024.096.06.144.084.024.024.06.036.084.06.012.012.024.012.024.024a.323.323 0 01.096.084l.156-4.584s0-.024-.012-.048zm-11.868 6.696c-.612-.228-.18-.492.432-.264 1.008.384 1.26.096 2.268-.276a.091.091 0 00-.024-.048c-.384-.9-1.44-1.392-2.508-1.416h-.024c-.612-.012-1.236.144-1.728.468-.432.288-.732.684-.84 1.14v.276c0 1.584.9 3.408 2.052 4.548.096.096.192.192.3.276l.024-.024c.864-.708 1.692-1.176 2.808-1.188V26.76c-1.164.384-1.608.168-2.76-.264zm4.824 9.168c.912-.612.912-1.392.912-2.292a7.938 7.938 0 00-.84.084.292.292 0 01-.144 0 8.055 8.055 0 00-.828-.084c-.012.9-.012 1.68.9 2.292zM28.128 67.392a4.018 4.018 0 013.948-4.008l-.948-1.128-6.912 2.88a29.272 29.272 0 003.912 4.62v-2.364z" fill="#E3C8B8"/><path d="M77.172 52.944l-.276-.468-.012-.024-4.32-7.368-.288-.372a2.857 2.857 0 00-.276-.264l-13.92-7.74-.408-.408c.036-.18.06-.372.072-.552.024-.204.036-.396.036-.6a7.406 7.406 0 00-.348-2.28 8.419 8.419 0 00-1.332-2.532 4.515 4.515 0 00-.3-.372l.012-.024-.156-.132s.228-.312.42-1.2c.132-.6.228-1.32.276-1.74v-.012c.012-.156.024-.312.024-.48v-4.572c-.012-.336-.06-.816-.108-1.332-.036-.144-.06-.288-.096-.42-.012-.048-.024-.084-.036-.132-.072-.276-.132-.504-.144-.564-.06-.24-.132-.48-.216-.708-.012-.048-.036-.084-.048-.132a7.668 7.668 0 00-3.372-3.924 8.396 8.396 0 00-1.332-.612 7.677 7.677 0 00-2.532-.42h-.024c-.924 0-1.812.168-2.64.468a7.777 7.777 0 00-4.476 4.236c-.024.048-.036.084-.06.132-.108.264-.204.54-.276.816 0 .036-.024.204-.036.42 0 .036-.012.084-.012.12-.024.3-.048.636-.012.744-.036.612-.084 1.272-.12 1.932v3.948c0 .504.06.996.168 1.476 0 .012.204.744.312.996v-.012c.108.264.24.528.384.78-.048.06-.912 1.152-.924 1.152-.888 1.332-1.38 2.832-1.368 4.356 0 .3.024.6.072.9-.084.108-.72.828-.72.828l-1.896 1.32-10.776 6.468-6.372 10.68-.024.036-.024.048c.036.18.084.36.132.54.048.192.096.384.156.576l.024-.036.024-.036.024-.036.036-.048 6.84-11.088 10.512-6.228.552-.324.024-.012-3.348 17.976-2.364 1.668-.468.06-8.916 1.152-1.62.204h-.096l-.096.012c.108.264.216.528.336.78.012.036.036.072.048.108 0 .012.012.036.024.048l.12-.012h.048l.06-.012.06-.012L31.788 59.4h.012l.384-.048-.276 1.476-.336.144-.024.012-7.8 3.252-.06.024-.06.024h-.012l-.048.024-.132.06c.036.06.072.108.108.168.024.036.036.06.06.096.096.144.192.3.3.444.024.036.036.06.06.096.012.012.024.024.024.048l.132-.06.06-.024.06-.024.072-.024 6.348-2.64.072-.024.3-.12.012.024.924 1.092.012.012c-.156 0-.312.012-.468.036-.024 0-.06.012-.084.012h-.012a3.786 3.786 0 00-.636.156h-.024a4.014 4.014 0 00-1.536.96 4.01 4.01 0 00-1.176 2.832v2.34a30.261 30.261 0 004.608 3.336 31.728 31.728 0 005.208 2.436 30.792 30.792 0 0010.368 1.776c1.224 0 2.424-.072 3.6-.204.012 0 .036 0 .048-.012a30.464 30.464 0 005.664-1.212A30.19 30.19 0 0065.1 72.3c-.072-.06-.132-.12-.204-.18a.215.215 0 00-.084-.06c-.024-.024-.06-.036-.084-.06-1.368-.996-3.18-1.2-4.152-1.2h-.204a6.766 6.766 0 00-.108-1.116h.36c1.104 0 2.136.288 3.024.804a6.053 6.053 0 011.488 1.2.318.318 0 01.06.072.318.318 0 01.06.072l.18.216c.276-.192.54-.372.816-.564a3.757 3.757 0 00-.204-.252c-.024-.024-.036-.048-.06-.072-.024-.024-.036-.048-.06-.072a7.85 7.85 0 00-1.14-1.044l-2.436-13.056 4.812 4.608-.024 1.068a.467.467 0 00.156.384l3.444 3.312.06.048.06.048.3.288.108.096c.204-.264.408-.528.6-.792l-.108-.096-.288-.276-.012-.012-.048-.048-.048-.048-1.608-1.548 2.388-11.316 3.948 2.196.024.012.252.144.024.012.024.012.24.132.132.072c.144-.624.264-1.26.36-1.896a8.11 8.11 0 01.084-.528l-.06.084zM57.804 38.22l1.536 8.1-.564-.3-2.844-1.488v-4.776a7.737 7.737 0 001.092-1.548h.78v.012zm9.528 14.22l-.156 7.812L56.76 50.28a.474.474 0 00-.336-.144h-8.1V48.06l2.532-2.616h4.704l4.224 2.208a.091.091 0 00.048.024l7.536 3.948-.036.816zM52.776 65.508h-1.548l-.024-.012h-.06l-.012-.012h-.012l-.012-.012-.024-.012h-.012l-.012-.012-.012-.012h-.024l-.012-.012-.012-.012V65.4h-.012l-.012-.012h-.012l-.036-.036-.012-.012v-.012l-.012-.012v-.012l-.012-.012v-.912h2.004c1.8 0 3.432.732 4.62 1.92a6.767 6.767 0 011.404 2.064c.048.096.48.912.516 2.544v1.068c-.048-1.632-.528-2.4-.564-2.496a6.625 6.625 0 00-1.404-2.064c-1.26-1.164-2.892-1.908-4.692-1.908zm-8.964 6.012l.012-.012-.012.036v-.024zm6.828-27.06a.52.52 0 00-.36.156l-1.452 1.5h-6.576v-5.412l.144.108h.012c.012.012.024.012.036.024.42.324.528.408.66.504.828.636 1.524 1.176 2.136 1.608.012.012.024.012.036.024 1.248.9 2.148 1.392 3.048 1.476.072.012.132.012.204.012h.12c.972-.036 1.92-.528 3.264-1.5.012-.012.024-.012.036-.024.612-.444 1.308-.984 2.136-1.608.084-.06.156-.12.336-.252.084-.072.192-.144.324-.252.012-.012.024-.024.036-.024l.144-.108v3.768H50.64zm-9.072-5.892c-.78-1.068-1.152-2.256-1.164-3.444-.012-1.464.516-2.94 1.488-4.2.12-.156.252-.312.384-.468.12.144.24.3.372.432.12.132.24.252.372.372.072.072.144.132.216.204-.36.468-.636 1.008-.912 1.548-.312.6-.636 1.224-1.08 1.764a.472.472 0 00-.108.396c.036.18.156.336.324.384.072.024.156.036.24.024h.024c.132-.024.264-.048.384-.072-.132.768-.192 1.5-.18 2.22 0 .456.036.9.084 1.332a2.889 2.889 0 01-.444-.492zm1.08-13.584a.026.026 0 00.024-.024c.348-.24.78-.408 1.26-.468h.024a3.23 3.23 0 012.22.468l.12.084.216.18.084.084c0 .012.012.012.024.024.024.036.06.06.084.096.024.036.06.072.084.108.048.072.096.144.132.228l-.108.036c-.06.012-.108.036-.168.048-.06.012-.108.036-.168.048a4.67 4.67 0 01-2.736-.156.476.476 0 00-.456.06.48.48 0 00-.18.228.498.498 0 00.288.636c.384.144.78.24 1.188.3.336.048.672.06 1.008.048a5.51 5.51 0 001.44-.24v3.036c-.156 0-.312 0-.456.012-.384.024-.72.072-1.044.156-.084.024-.18.048-.264.072l-.036.012-.024.012a4.003 4.003 0 00-1.272.684 5.655 5.655 0 01-1.224-1.428 5.645 5.645 0 01-.636-1.428 5.771 5.771 0 01-.216-1.524V26.1c.036-.168.108-.336.204-.48.12-.24.324-.456.588-.636zm8.412 5.88c.12.024.228.036.336.06 1.464.348 2.016 1.416 2.604 2.568.144.288.3.576.468.876-.168-.048-.312-.108-.456-.156-.648-.264-1.08-.564-1.476-.852-.924-.66-1.668-1.2-3.936-.888-1.416-.192-2.244-.06-2.88.24-.384.18-.696.408-1.044.648-.48.348-1.02.732-1.944 1.008.036-.048.06-.108.096-.168.132-.24.252-.468.372-.708.54-1.044 1.044-2.016 2.208-2.448h.012c.096-.036.204-.06.312-.096.468-.12 1.02-.168 1.716-.12h.048c.192.012.396.036.612.06h.3l.048.012h.156l.108-.012h.264c.48-.06.9-.084 1.284-.072.24 0 .456.024.672.048h.12zm-2.46 4.8c0 .012 0 .012 0 0a1.826 1.826 0 01-.42-.36 1.754 1.754 0 01-.192-.252c-.024-.048-.048-.096-.072-.132l-.036-.072c0-.012-.012-.024-.012-.036 0-.012-.012-.024-.012-.036 0-.012 0-.012-.012-.024s-.012-.036-.012-.048c-.012-.024-.012-.048-.024-.072l-.036-.144c-.012-.024-.012-.06-.024-.096 0-.024-.012-.06-.012-.084-.012-.036-.012-.084-.012-.12-.036-.252-.036-.516-.036-.804v-.012h.084c.192.012.396.036.636.06.036 0 .084.012.12.012.036 0 .072.012.108 0h.036c.084-.012.156-.024.228-.036h.108c.036 0 .072-.012.108-.012.072-.012.132-.012.204-.024h.192v.012c0 .444 0 .864-.12 1.248a1.1 1.1 0 01-.108.276c-.084.156-.18.312-.324.456l-.012.012-.036.036c-.024.012-.036.036-.06.048a.166.166 0 01-.048.036c-.024.012-.036.036-.06.048-.024.012-.036.036-.06.048a.225.225 0 01-.084.072zm-3.672 5.832c-.132-.096-.264-.204-.396-.3-.264-.204-.528-.408-.816-.624l-.54-.408a12.153 12.153 0 01-.276-2.4c0-.792.072-1.62.252-2.484a6.443 6.443 0 001.404-.648c.144-.084.264-.168.396-.252a39.729 39.729 0 00-.18 3.6c-.012 1.164.036 2.34.156 3.516zm3.18 1.8v.132a6.579 6.579 0 01-.372-.12c-.492-.192-1.044-.528-1.716-1.008-.18-1.44-.264-2.88-.264-4.32 0-1.428.096-2.856.264-4.296a2.435 2.435 0 01.684-.228c0 1.176.024 2.22 1.404 3.096v6.744zm.984-6.768c1.344-.852 1.404-1.848 1.404-2.988v-.096c.264.048.492.132.684.228.168 1.44.252 2.88.264 4.296.012 1.44-.072 2.88-.264 4.32-.864.6-1.512.984-2.1 1.128v-6.888h.012zm3.204 4.656a36.24 36.24 0 00.144-3.216c0-1.116-.06-2.232-.156-3.336-.012-.084-.012-.168-.024-.252.456.312.996.636 1.8.9.18.864.252 1.68.252 2.484 0 .828-.108 1.62-.276 2.4l-.54.408c-.444.336-.84.648-1.212.936 0-.12.012-.216.012-.324zm2.904-2.088c.024-.168.036-.336.048-.504a9.35 9.35 0 00.036-.828c0-.696-.048-1.416-.168-2.16 0-.024-.012-.048-.012-.06.096.012.18.036.264.048.036 0 .072.012.096.012.144.036.3 0 .432-.108a.506.506 0 00.06-.696c-.456-.528-.768-1.152-1.08-1.764-.288-.552-.564-1.08-.912-1.548.168-.144.324-.3.48-.456l.024-.024c.156-.168.312-.336.444-.516.024.036.06.06.084.096.024.036.06.072.084.108l.024.024s0 .012.012.012l.036.036c.012.012.024.036.036.048.012.012.024.036.036.048l.012.012c.012.012.024.024.036.048.012.012.012.024.024.036v.024c.012.012.012.024.024.036.948 1.248 1.464 2.7 1.452 4.152.012 1.344-.492 2.724-1.572 3.924zm1.44 16.188H37.992v-1.116H56.64v1.116zm-16.956 8.124a8.169 8.169 0 01-.732-2.16 10.467 10.467 0 01-.144-2.808l.096-.576 4.908 4.128v1.428l-4.128-.012zm4.152 7.008a3.686 3.686 0 013.624-3.024c1.8 0 3.312 1.308 3.612 3.024a4.013 4.013 0 00-3.612-2.268 4.03 4.03 0 00-3.624 2.268zm7.26 1.08l.012.012v.024l-.012-.036zm5.964-6.768c-.072-.048-.132-.096-.204-.132a7.484 7.484 0 00-4.032-1.176H50.82v-1.428l6.6-5.556a.5.5 0 00.216-.408v-2.352a.494.494 0 00-.492-.492H39.648l.96-6.072h7.26l-.384.396a.538.538 0 00-.168.372v2.76c0 .276.216.492.492.492h8.4l1.884 1.8.864 5.508c.12 1.332-.036 2.736-.432 3.924-.312 1.008-.816 1.86-1.464 2.364zM43.296 16.86l.012-.012c.84-.912 1.92-1.668 3.156-2.076.132-.048.276-.084.408-.12.012 0 .024 0 .036-.012.012 0 .024-.012.048-.012.012 0 .024 0 .036-.012h.012c.012 0 .012 0 .024-.012.036-.012.06-.012.096-.024.228-.048.456-.096.696-.12h.096c.192-.024.384-.024.576-.024 2.208 0 4.176.996 5.448 2.58l.012.012.012.012c0 .012.012.012.012.024s.012.012.012.024c.252.324.48.672.672 1.056.012.012.012.024.024.036.024.036.036.084.06.12.024.036.036.084.06.132.096.204.168.408.24.624.036.084.12.312.192.648a.426.426 0 01.024.12c.048.216.084.456.12.744v3.792c-.024-.024-.06-.048-.084-.072h-.012c-.06-.048-.132-.096-.192-.144-.048-.036-.096-.06-.144-.096h-.012c-.012 0-.012-.012-.024-.012-.024-.024-.06-.036-.084-.048a4.128 4.128 0 00-2.04-.528c-.864 0-1.68.252-2.304.684-.66.444-1.116 1.08-1.272 1.812a.491.491 0 00.264.54c.66.324 1.404.492 2.148.528.24.012.468 0 .708-.012a5.336 5.336 0 001.5-.336.498.498 0 00.288-.636.47.47 0 00-.372-.312.403.403 0 00-.264.024 4.67 4.67 0 01-3.18.024c.156-.312.408-.588.72-.816a3.01 3.01 0 011.5-.492h.24c.6 0 1.14.144 1.584.408a.68.68 0 01.156.096c.204.132.372.288.504.468.084.108.144.216.204.324.06.108.096.228.132.348v.276c0 .108 0 .216-.012.312 0 .036 0 .084-.012.132l-.036.324c0 .036-.012.084-.012.12a.702.702 0 00-.024.156l-.036.156c-.012.048-.024.096-.036.132-.024.096-.048.192-.084.288-.024.072-.048.132-.06.204a.734.734 0 01-.06.144v.012a.426.426 0 01-.048.108l-.036.072a.17.17 0 00-.024.072c-.012.024-.024.048-.024.06l-.072.144c-.024.06-.06.12-.096.18-.024.048-.06.108-.084.156-.036.06-.072.108-.096.168-.036.06-.084.12-.12.192a6.901 6.901 0 01-.648.816c0 .012-.012.012-.024.024-.06.06-.108.12-.168.168l-.06.06c-.072.06-.132.12-.204.18-.084-.06-.168-.132-.252-.192-.384-.264-.84-.468-1.416-.612-.144-.036-.312-.06-.48-.084h-.036a7.678 7.678 0 00-1.092-.06c-.072 0-.144 0-.216.012h-.012c-.336.012-.684.048-1.068.096h-.024l-.06.012h-.048c-.072-.012-.132-.012-.204-.024a4.523 4.523 0 01-.372-.048v-3.816a.602.602 0 00-.024-.144c-.156-.72-.612-1.332-1.26-1.764a4.106 4.106 0 00-2.304-.684c-.84 0-1.62.24-2.244.648-.024.012-.036.024-.06.036l-.288.216v-3.984c.012-.24.024-.552.048-.828 0-.036 0-.084.012-.12.012-.204.036-.372.06-.444a5.4 5.4 0 01.36-.756s0-.012.012-.012c0 0 0-.012.012-.012.024-.048.048-.096.072-.132.264-.432.564-.828.912-1.212zm-8.928 46.548L39.06 38.22h1.116c.276.54.636 1.056 1.092 1.548v6.348h-1.08a.49.49 0 00-.492.468l-1.044 6.6H37.5a.487.487 0 00-.492.492v2.352a.5.5 0 00.216.408l.816.684-.18 1.188v.036a11.12 11.12 0 00.156 3.096c.132.708.336 1.38.6 1.98l-4.248-.012zm-1.872-1.752a.509.509 0 00.3-.396l.444-2.388 1.104-.804-.996 5.328h-.108l-1.296-1.524.552-.216zm-.468 2.736h11.796v.9l-.012.012v.048l-.012.012v.048l-.012.012-.012.012v.012l-.012.012-.012.012v.012l-.048.048-.012.012-.012.012-.012.012-.012.012h-.024l-.012.012-.012.012h-.036l-.012.012h-.012l-.012.012h-.024l-.012.012h-.012l-.048.012h-.084l-11.352-.132c-.828 0-1.584.336-2.136.888a2.988 2.988 0 00-.84 1.608v-.588c0-.828.336-1.584.888-2.124a2.89 2.89 0 012.112-.912zm31.62 4.968a12.531 12.531 0 00-.708-.3c-.048-.024-.108-.036-.156-.06-.012 0-.012 0-.024-.012-.048-.012-.108-.036-.156-.048-.156-.048-.324-.084-.48-.12l-.336-.072c-.06-.012-.12-.012-.168-.024-.06-.012-.12-.012-.18-.024s-.12-.012-.192-.024c-.036 0-.084-.012-.12-.012-.036 0-.084-.012-.12-.012h-.972l-.072-.216a4.375 4.375 0 00-.168-.42 7.975 7.975 0 00-.516-1.008 6.19 6.19 0 00-.516-.732l-.132-.168c-.048-.06-.096-.108-.132-.156-.012-.012-.024-.036-.048-.048l-.036-.036c-.084-.084-.168-.18-.252-.264a1.438 1.438 0 00-.144-.132l-.072-.072a.318.318 0 00-.072-.06c.024-.024.048-.036.06-.06a.688.688 0 00.132-.132l.06-.06.024-.024c.012-.012.012-.024.024-.024 0 0 0-.012.012-.012l.012-.012c.024-.036.06-.06.084-.096.024-.024.036-.048.06-.072l.024-.024c.036-.048.084-.096.12-.144l.108-.156c.036-.06.072-.108.108-.168.012-.024.036-.06.048-.084.012-.024.036-.06.048-.084.264-.456.492-.972.684-1.524a1.18 1.18 0 00.06-.192c.024-.06.036-.132.06-.192.012-.036.024-.06.024-.096.012-.036.024-.06.024-.096.012-.06.024-.108.036-.156.012-.036.024-.072.024-.108 0-.024.012-.048.012-.072v-.012c0-.024.012-.048.012-.072.012-.036.012-.084.024-.12a.602.602 0 00.024-.144.264.264 0 00.012-.096c0-.024.012-.06.012-.096V61.2c0-.024.012-.036.012-.06v-.036c0-.024.012-.06.012-.084 0-.024 0-.048.012-.06 0-.036.012-.072.012-.108 0-.024.012-.06.012-.084 0-.024.012-.06.012-.084v-.216c0-.024.012-.048.012-.072.012-.096.012-.192.024-.276 0-.048 0-.096.012-.144v-.264c.012-.468 0-.936-.036-1.368v-.036l-.672-4.248 1.836 1.752 2.592 13.548zm4.932-6.444l-.024-.024-.432-.42.228-11.868 2.496 1.392.024.012.348.192-2.328 11.016-.312-.3zm8.268-8.7l-.216-.12-.024-.012-.024-.012-.48-.264-4.08-2.268c-.012 0-.024-.012-.036-.024L68.1 49.344a.497.497 0 00-.732.432l-.012.756-.504-.264-6.408-3.36-1.68-8.064-.156-.756 13.032 7.284 4.992 8.448.024.024.012.024.18.312.024.036h-.024z" fill="#332F2F"/><path d="M49.188 21.696a17.256 17.256 0 00-1.764-.024c-.588.012-1.176.048-1.752.12a.384.384 0 00-.336.408.366.366 0 00.408.324c.564-.06 1.128-.096 1.692-.12.564-.012 1.128 0 1.704.024a.375.375 0 00.396-.348.371.371 0 00-.348-.384zm-4.452-.444c1.14-.192 2.304-.3 3.468-.3 1.164 0 2.328.096 3.468.3a.379.379 0 00.432-.3.379.379 0 00-.3-.432 21.205 21.205 0 00-3.588-.312c-1.2 0-2.4.108-3.588.312a.37.37 0 00-.3.432c.012.204.204.336.408.3zm6 .6c-.096-.012-.192-.024-.252-.036-.06 0-.144-.012-.276-.024a.375.375 0 00-.408.324.367.367 0 00.336.408c.06 0 .144.012.252.036.096.012.18.024.24.024a.375.375 0 00.42-.312c.024-.204-.108-.396-.312-.42z" fill="#332F2F"/><path fill-rule="evenodd" clip-rule="evenodd" d="M55.368 26.1v.276a5.57 5.57 0 01-.96 3.132 6.901 6.901 0 01-.648.816c0 .012-.012.012-.024.024-.132.144-.276.276-.432.42-.084-.06-.168-.132-.252-.192 1.152-1.092 1.872-2.58 1.872-4.2V26.1c-.108-.456-.42-.852-.84-1.14a3.054 3.054 0 00-1.512-.492c.072 0 .156-.012.228-.012.6 0 1.14.144 1.584.408a.68.68 0 01.156.096c.192.132.372.288.504.468.144.204.264.432.324.672zm-8.364.684v3.036c-.156 0-.312 0-.468.012v-2.928c.168-.036.324-.072.468-.12zm-.108-1.008c-.144.048-.288.096-.432.132-.384-.9-1.44-1.392-2.508-1.416a3.23 3.23 0 012.22.468c.312.216.564.504.72.816z" fill="#fff"/><path d="M55.392 24.396s.012-3.696 0-3.948c-.012-.252-.18-1.26-.624-2.088-.444-.828-.864-1.368-.864-1.368s.576.864.792 1.704c.216.84.228 2.64.228 2.928v2.436l.468.336z" fill="#fff"/></svg>