<svg height="512pt" viewBox="0 -23 512.001 512" width="512pt" xmlns="http://www.w3.org/2000/svg"><path d="M428.324 39.977H59.964c-11.019 0-19.987 8.968-19.987 19.992v255.465C16.71 307.184 0 284.964 0 258.906V59.97C0 26.902 26.902 0 59.965 0h311.828c26.059 0 48.277 16.71 56.531 39.977zm-3.086 252.234l-28.27 28.27 38.321 38.32H286.84v39.98h148.82l-38.69 38.689 28.27 28.27L512 378.972zm-285.316 66.64h105.941v39.926H139.922c-33.067 0-59.965-26.847-59.965-59.914V139.922c0-33.067 26.898-59.965 59.965-59.965H451.75c33.066 0 59.965 26.898 59.965 59.965V321.82l-39.977-39.976V150.066l-175.902 130.84-175.902-130.84v188.797c0 11.024 8.968 19.989 19.988 19.989zm155.914-127.769l149.43-111.148h-298.86zm0 0"/></svg>