<svg width="80" height="80" fill="none" xmlns="http://www.w3.org/2000/svg"><g clip-path="url(#clip0)" fill="#009688"><path d="M68.41 13.827c1.68-1.784 6.323-7.036 6.317-10.576a3.214 3.214 0 00-.918-2.34c-2.158-2.162-6.666.117-10.408 3.149C57.984 1.51 49.34 0 40 0S22.016 1.51 16.599 4.06C12.86 1.03 8.352-1.25 6.195.907a3.2 3.2 0 00-.916 2.333c0 3.555 4.636 8.807 6.312 10.59-4.823 14.283-4.823 38.2 0 52.343-1.682 1.783-6.324 7.027-6.318 10.575a3.213 3.213 0 00.918 2.341c2.156 2.159 6.666-.118 10.408-3.149C22.016 78.49 30.667 80 40 80s17.984-1.51 23.401-4.06c3.734 3.03 8.246 5.307 10.4 3.152a3.2 3.2 0 00.915-2.332c.007-3.559-4.632-8.8-6.31-10.587 4.667-13.716 4.834-37.017.289-51.466a23.21 23.21 0 00-.284-.88zM65.629 66.05a1.333 1.333 0 00.31 1.4c2.47 2.465 6.12 7.126 6.117 9.305 0 .32-.092.41-.127.444-.267.275-2.956 0-7.467-3.857a1.333 1.333 0 00-1.484-.168C57.992 75.78 49.407 77.333 40 77.333S22.008 75.78 17.032 73.18a1.333 1.333 0 00-1.484.168c-4.515 3.858-7.193 4.133-7.476 3.853-.036-.035-.133-.133-.133-.456 0-2.167 3.65-6.827 6.122-9.293.367-.367.488-.913.31-1.4-4.926-13.558-4.924-38.394 0-52.107a1.333 1.333 0 00-.312-1.393c-2.467-2.468-6.118-7.134-6.114-9.306 0-.321.092-.412.134-.449.266-.275 2.956 0 7.466 3.857.414.354 1.002.42 1.484.168C22.008 4.22 30.593 2.667 40 2.667S57.992 4.22 62.968 6.82c.482.253 1.07.186 1.484-.168 4.516-3.858 7.2-4.133 7.476-3.853.036.035.133.133.133.455 0 2.162-3.65 6.826-6.122 9.296a1.333 1.333 0 00-.312 1.392c.18.502.36 1.02.533 1.564 4.405 14.018 4.157 37.636-.532 50.544z"/><path d="M18.708 14.588a1.333 1.333 0 001.707-.8l.901-2.514A53.569 53.569 0 0136 9.334a1.333 1.333 0 100-2.667 55.638 55.638 0 00-16.097 2.24 1.333 1.333 0 00-.868.825l-1.131 3.151a1.333 1.333 0 00.804 1.705zm41.788 53.864C57.216 70.167 50.11 72 40 72s-17.216-1.833-20.496-3.548a1.333 1.333 0 10-1.237 2.361c3.561 1.864 11.141 3.854 21.733 3.854s18.172-1.99 21.733-3.854a1.333 1.333 0 10-1.237-2.361zM34.75 57.305c2.767.077 5.45-.956 7.451-2.87a10.266 10.266 0 002.896-7.466 17.299 17.299 0 00-5.416-11.933c-6.037-6.039-14.761-7.17-19.452-2.51A10.267 10.267 0 0017.333 40a17.294 17.294 0 005.419 11.932 17.436 17.436 0 0011.997 5.373zm-7.053-25.013A14.827 14.827 0 0137.8 36.924a14.83 14.83 0 014.632 10.05 8.701 8.701 0 01-.524 3.075 8.951 8.951 0 00-3.82-1.22 5.867 5.867 0 01-5.554-5.54 8.5 8.5 0 00-7.813-7.799 6.473 6.473 0 01-2.793-.848c.066-.072.114-.158.184-.228a7.74 7.74 0 015.586-2.122zM20 39.988a8.743 8.743 0 01.525-3.078 8.962 8.962 0 003.819 1.22 5.867 5.867 0 015.552 5.54 8.503 8.503 0 007.815 7.797 6.456 6.456 0 012.793.846c-.067.072-.115.16-.185.23-3.646 3.62-10.682 2.494-15.683-2.51A14.831 14.831 0 0120 39.988z"/><path d="M51.2 21.6a10.941 10.941 0 00-2.4-.267c-4.479.015-8.69 2.827-11.268 7.525a1.333 1.333 0 002.339 1.28c2.133-3.889 5.392-6.126 8.933-6.133.213 0 .43.01.648.028a7.529 7.529 0 01-1.716 3.408 9.74 9.74 0 000 12.697 6.942 6.942 0 011.82 4.759 6.831 6.831 0 01-1.816 4.736 9.508 9.508 0 00-2.36 6.101 1.333 1.333 0 001.025 1.33c.787.187 1.592.28 2.4.274 7.655-.014 13.867-8.089 13.855-18 .021-8.786-4.803-16.245-11.46-17.738zm-2.39 33.066c-.22 0-.434-.008-.643-.025a7.49 7.49 0 011.716-3.412 9.741 9.741 0 000-12.699 6.934 6.934 0 01-1.82-4.757 6.831 6.831 0 011.816-4.736 10.069 10.069 0 002.173-4.37c4.63 1.938 7.959 7.922 7.948 14.666.012 8.444-5.01 15.321-11.19 15.333zM41.333 9.334a1.333 1.333 0 100-2.667 1.333 1.333 0 000 2.667z"/></g><defs><clipPath id="clip0"><path fill="#fff" d="M0 0h80v80H0z"/></clipPath></defs></svg>