<svg width="80" height="80" fill="none" xmlns="http://www.w3.org/2000/svg"><path d="M2.75 29.114l.649 8.242A2.643 2.643 0 00.952 40.21l2.104 26.666a2.68 2.68 0 002.657 2.458h.202l.557 6.996A3.99 3.99 0 0010.467 80H32.2a4 4 0 004-3.681l.552-6.985h.201a2.68 2.68 0 002.658-2.458l2.104-26.666a2.643 2.643 0 00-2.447-2.854l.65-8.242a3.992 3.992 0 002.749-3.78V22.49a4.013 4.013 0 00-3.734-3.991l-.266-.019v-3.813a4 4 0 00-4-4H8a4 4 0 00-4 4v1.541a3.97 3.97 0 00-4 3.983v5.143a3.99 3.99 0 002.75 3.78zm33.845 8.22H6.072l-.63-8h31.782l-.63 8zm-3.056 38.764a1.333 1.333 0 01-1.334 1.236H10.467a1.333 1.333 0 01-1.334-1.226l-.542-6.774h25.485l-.537 6.764zm3.414-9.431H5.715L3.61 40h35.445l-2.103 26.667zM8 13.334h26.667c.736 0 1.333.597 1.333 1.333v3.636L6.667 16.359v-1.692c0-.736.597-1.333 1.333-1.333zM2.667 20.19c0-.736.597-1.333 1.333-1.333h.096l1.21.08h.044l33.411 2.214c.7.049 1.243.632 1.241 1.334v2.848c0 .736-.596 1.333-1.333 1.333H4a1.333 1.333 0 01-1.333-1.333V20.19z" fill="#009688"/><path d="M14.8 46.8c-4.64 4.624-5.481 11.334-1.874 14.952a8.031 8.031 0 005.78 2.236 13.285 13.285 0 009.161-4.121c4.639-4.624 5.48-11.333 1.873-14.95-3.606-3.618-10.321-2.76-14.94 1.883zm1.886 1.886a10.676 10.676 0 017.266-3.36 5.467 5.467 0 013.714 1.334 5.542 5.542 0 01-1.548.39 6.667 6.667 0 00-6.102 6.105 4.035 4.035 0 01-3.84 3.844 7.503 7.503 0 00-2.594.75c-.798-2.702.329-6.306 3.101-9.069l.003.006zm9.304 9.304c-3.503 3.514-8.371 4.389-10.99 2.034a5.557 5.557 0 011.558-.4 6.667 6.667 0 006.1-6.105 4.035 4.035 0 013.841-3.844 7.505 7.505 0 002.595-.75c.79 2.695-.338 6.298-3.107 9.06l.003.005zm-4.173-50a1.325 1.325 0 001.492-1.155l.531-4.168h45.312l-1.019 8h-1.466a1.333 1.333 0 100 2.666h1.124l-6.299 49.334H43.853a1.333 1.333 0 000 2.666h18.814c.147-.002.293-.029.432-.08.048-.017.09-.042.133-.064.059-.022.116-.049.17-.08l7.851-5.233 6.771-2.257A2.667 2.667 0 0079.82 54.7L71.985 1.14a.907.907 0 00-.036-.1 1.182 1.182 0 00-.082-.23 1.254 1.254 0 00-.148-.266c-.022-.03-.028-.065-.052-.093-.024-.028-.067-.043-.098-.071a1.41 1.41 0 00-.45-.283 1.276 1.276 0 00-.303-.065 1.418 1.418 0 00-.15-.032H23.84a2.667 2.667 0 00-2.64 2.325L20.667 6.5a1.333 1.333 0 001.15 1.49zm55.368 47.098L72 56.816V40a1.333 1.333 0 10-2.667 0v17.953L64.36 61.27l6.4-50.112 6.425 43.931z" fill="#009688"/><path d="M61.334 10.667h-2.667a1.333 1.333 0 100 2.667h2.666a1.333 1.333 0 000-2.667zm-8 2.667a1.333 1.333 0 000-2.667h-2.667a1.333 1.333 0 100 2.667h2.666zM46.667 12c0-.736-.597-1.333-1.334-1.333h-2.666a1.333 1.333 0 100 2.667h2.666c.737 0 1.334-.597 1.334-1.334zm6.84 29.334h-7.974a1.333 1.333 0 100 2.666h7.974a2.681 2.681 0 002.64-2.29l2.294-16.014a2.666 2.666 0 00-2.64-3.029h-9.134a1.333 1.333 0 100 2.667H55.8l-2.293 16z" fill="#009688"/></svg>