<svg width="80" height="70" fill="none" xmlns="http://www.w3.org/2000/svg"><path d="M68 .333H12C5.376.341.008 5.709 0 12.333v32c.008 6.624 5.376 11.992 12 12h5.333v10.46a2.644 2.644 0 001.547 2.423 2.65 2.65 0 002.848-.385l14.761-12.498H68c6.624-.008 11.992-5.376 12-12v-32c-.008-6.624-5.376-11.992-12-12zm9.333 44A9.344 9.344 0 0168 53.666H36.49a2.67 2.67 0 00-1.725.632L20 66.793v-10.46a2.667 2.667 0 00-2.667-2.667H12a9.344 9.344 0 01-9.333-9.333v-32A9.344 9.344 0 0112 3h56a9.344 9.344 0 019.333 9.333v32z" fill="#009688"/><path fill-rule="evenodd" clip-rule="evenodd" d="M73.333 43c-.736 0-1.333.597-1.333 1.333a4 4 0 01-4 4A1.333 1.333 0 0068 51a6.675 6.675 0 006.666-6.667c0-.736-.596-1.333-1.333-1.333zM12 5.666a6.675 6.675 0 00-6.667 6.667 1.333 1.333 0 102.667 0 4 4 0 014-4 1.333 1.333 0 100-2.667z" fill="#009688"/><path d="M28.943 11.39c-.25-.25-.59-.39-.943-.39H16a2.667 2.667 0 00-2.667 2.667V43A2.667 2.667 0 0016 45.667h21.333A2.667 2.667 0 0040 43V23c0-.354-.14-.693-.39-.943L28.942 11.391zm.39 4.162l6.115 6.115h-6.115v-6.115zM16 43V13.667h10.667v8a2.667 2.667 0 002.666 2.666h8V43H16z" fill="#009688"/><path fill-rule="evenodd" clip-rule="evenodd" d="M69.334 37.666v-6.667a1.333 1.333 0 10-2.667 0v6.667H48v-6.667a1.333 1.333 0 00-2.666 0v6.667A2.667 2.667 0 0048 40.333h18.667a2.667 2.667 0 002.666-2.667z" fill="#009688"/><path fill-rule="evenodd" clip-rule="evenodd" d="M56.39 34.608c.521.52 1.365.52 1.886 0l4-4a1.333 1.333 0 00-1.885-1.885l-1.724 1.724V20.332a1.333 1.333 0 10-2.667 0v10.115l-1.724-1.724a1.333 1.333 0 00-1.885 1.885l4 4z" fill="#009688"/></svg>