<svg width="62" height="80" fill="none" xmlns="http://www.w3.org/2000/svg"><path d="M30.681 47.036c-6.037-6.037-14.761-7.169-19.45-2.51a10.267 10.267 0 00-2.898 7.466 17.29 17.29 0 005.418 11.932 17.429 17.429 0 0012 5.382 10.366 10.366 0 007.453-2.87 10.267 10.267 0 002.896-7.468 17.29 17.29 0 00-5.419-11.932zM15.636 62.04A14.829 14.829 0 0111 51.99a8.707 8.707 0 01.525-3.078 8.962 8.962 0 003.818 1.22 5.867 5.867 0 015.553 5.539 8.505 8.505 0 007.815 7.797 6.468 6.468 0 012.793.845c-.067.074-.116.162-.185.231-3.646 3.624-10.682 2.497-15.683-2.504zm17.27.01a8.934 8.934 0 00-3.818-1.218 5.867 5.867 0 01-5.555-5.54 8.503 8.503 0 00-7.813-7.8 6.482 6.482 0 01-2.793-.847c.066-.073.114-.16.185-.23a7.734 7.734 0 015.583-2.122 14.825 14.825 0 0110.102 4.634 14.823 14.823 0 014.632 10.048 8.7 8.7 0 01-.524 3.076z" fill="#009688"/><path d="M29.067 42.667a1.334 1.334 0 001.81-.533c2.134-3.89 5.391-6.133 8.934-6.14.212 0 .428.01.648.028a7.522 7.522 0 01-1.716 3.407 9.741 9.741 0 000 12.698 6.944 6.944 0 011.82 4.759 6.826 6.826 0 01-1.816 4.736 9.514 9.514 0 00-2.36 6.101 1.334 1.334 0 001.024 1.334c.786.187 1.591.28 2.4.274 7.653-.013 13.866-8.089 13.854-18 .014-8.782-4.81-16.24-11.466-17.733a11.084 11.084 0 00-2.399-.264c-4.479.013-8.69 2.827-11.267 7.524a1.334 1.334 0 00.534 1.81zm13.985-6c4.63 1.94 7.959 7.924 7.948 14.667.01 8.443-5.01 15.321-11.19 15.333-.22 0-.434-.008-.643-.024a7.503 7.503 0 011.716-3.412 9.744 9.744 0 000-12.698 6.933 6.933 0 01-1.822-4.759 6.825 6.825 0 011.816-4.736 10.08 10.08 0 002.175-4.37z" fill="#009688"/><path d="M1.555 40.807a44.18 44.18 0 00-.644 9.607A30.81 30.81 0 0014 74.862 30.533 30.533 0 0031 80a30.868 30.868 0 0028.736-19.923 35.83 35.83 0 001.717-12.11A43.407 43.407 0 0057.32 31.12 107.772 107.772 0 0043.903 9.795c-.788-1.013-1.586-2.126-2.4-3.258A63.526 63.526 0 0036.929.646a2 2 0 00-3.44.981c-.133.695-.266 1.458-.414 2.267-.934 5.2-2.826 16.01-6 15.852-1.442-.08-1.916-2.31-2.355-5.037a29.926 29.926 0 01-.335-3.256 1.993 1.993 0 00-3.748-.851 28.118 28.118 0 00-3.141 11.975 35.335 35.335 0 00.18 5.572 7.437 7.437 0 01-.643 4.774.968.968 0 01-.704.39 1.02 1.02 0 01-.822-.24c-1.384-1.134-1.734-5.16-1.856-6.478a37.86 37.86 0 01-.095-4.424 2 2 0 00-1.356-1.973 1.979 1.979 0 00-2.25.725 49.826 49.826 0 00-8.395 19.884zm9.312-16.497c.013.878.054 1.717.122 2.516.283 3.2.84 6.681 2.822 8.308a3.7 3.7 0 002.8.83 3.637 3.637 0 002.496-1.373c1.554-1.934 1.366-5.356 1.214-6.737a32.694 32.694 0 01-.166-5.15c.117-2.939.72-5.839 1.782-8.582.044.35.094.7.15 1.05.452 2.8 1.132 7.03 4.834 7.235 5.432.29 7.302-9.866 8.774-18.041l.16-.893c1.184 1.417 2.348 3.038 3.48 4.618.832 1.16 1.652 2.303 2.46 3.342a105.25 105.25 0 0113.094 20.8 40.772 40.772 0 013.895 15.813c.119 3.78-.41 7.553-1.564 11.155A28.17 28.17 0 0131 77.334a27.866 27.866 0 01-15.52-4.69A28.133 28.133 0 013.573 50.297c-.127-3.02.076-6.045.606-9.021 0-.023.01-.046.014-.068a47.08 47.08 0 016.674-16.9z" fill="#009688"/></svg>