<svg width="80" height="78" fill="none" xmlns="http://www.w3.org/2000/svg"><path d="M48.867 65.666h13.948c.147-.002.293-.029.432-.08.045-.019.09-.04.133-.065.058-.022.115-.048.17-.079l7.853-5.234 6.77-2.258a2.667 2.667 0 001.795-2.916L72.133 1.473c0-.036-.028-.064-.036-.1a1.33 1.33 0 00-.082-.23 1.245 1.245 0 00-.15-.267.872.872 0 00-.05-.091c-.027-.03-.066-.043-.095-.07a1.334 1.334 0 00-.441-.282 1.231 1.231 0 00-.328-.07 1.177 1.177 0 00-.138-.03H23.987a2.656 2.656 0 00-2.643 2.324l-4.533 35.481a1.334 1.334 0 002.646.338L23.987 3H69.3l-7.661 60H48.867a1.333 1.333 0 100 2.666zM70.904 11.49l6.43 43.931-5.187 1.733V40.333a1.333 1.333 0 00-2.667 0v17.953l-4.973 3.316 6.397-50.112z" fill="#009688"/><path d="M62.667 13.666a1.333 1.333 0 000-2.667H60a1.333 1.333 0 000 2.667h2.667zm-8 0a1.333 1.333 0 000-2.667H52a1.333 1.333 0 000 2.667h2.667zm-8 0a1.333 1.333 0 000-2.667H44a1.333 1.333 0 000 2.667h2.667zm-8.122 0a1.333 1.333 0 000-2.667H35.88a1.333 1.333 0 000 2.667h2.666zm-8 0a1.333 1.333 0 000-2.667H27.88a1.333 1.333 0 000 2.667h2.666zm25.75 28.375l2.293-16.012A2.667 2.667 0 0055.947 23H31.625a2.679 2.679 0 00-2.64 2.292l-2.294 16.012a2.667 2.667 0 002.642 3.03h24.32a2.683 2.683 0 002.642-2.293zm-26.962-.374l2.294-16h24.32l-2.294 16h-24.32zm13.099 11.187c-4.684-4.652-13.408-3.524-19.444 2.512a17.301 17.301 0 00-5.419 11.936 9.883 9.883 0 0010.347 10.336 17.439 17.439 0 0012-5.38 17.293 17.293 0 005.417-11.925 10.267 10.267 0 00-2.901-7.479zm-17.562 4.4a14.824 14.824 0 0110.1-4.63 7.734 7.734 0 015.58 2.12c.07.07.12.158.187.233-.854.49-1.809.78-2.792.846a8.5 8.5 0 00-7.813 7.799 5.867 5.867 0 01-5.552 5.54 8.944 8.944 0 00-3.819 1.22 8.674 8.674 0 01-.525-3.076 14.834 14.834 0 014.634-10.052zm13.163 13.113c-5 5.003-12.036 6.134-15.677 2.514-.072-.072-.122-.16-.19-.235.855-.49 1.81-.78 2.793-.845a8.503 8.503 0 007.814-7.802 5.867 5.867 0 015.55-5.533 8.956 8.956 0 003.817-1.22 8.71 8.71 0 01.526 3.075 14.83 14.83 0 01-4.633 10.046z" fill="#009688"/><path d="M22.79 50.466a1.333 1.333 0 002.34-1.28c-2.578-4.693-6.79-7.505-11.273-7.52a10.88 10.88 0 00-2.386.267C4.804 43.422-.015 50.88.004 59.666c-.019 9.91 6.196 17.985 13.853 18a10.05 10.05 0 002.4-.275 1.333 1.333 0 001.025-1.33 9.516 9.516 0 00-2.358-6.1 6.825 6.825 0 01-1.817-4.736 6.941 6.941 0 011.813-4.759 9.74 9.74 0 000-12.697 7.528 7.528 0 01-1.716-3.408 7.59 7.59 0 01.65-.028c3.545.012 6.802 2.249 8.937 6.133zm-8.18 3.64a6.933 6.933 0 01-1.82 4.76 9.741 9.741 0 000 12.699 7.496 7.496 0 011.715 3.412 7.724 7.724 0 01-.64.025c-6.189-.015-11.21-6.892-11.198-15.336-.011-6.743 3.318-12.727 7.948-14.667A10.068 10.068 0 0012.8 49.37a6.83 6.83 0 011.81 4.736zM36 32.333h13.333a1.333 1.333 0 000-2.667H36a1.333 1.333 0 000 2.667zM46.667 35h-9.334a1.333 1.333 0 000 2.667h9.334a1.333 1.333 0 000-2.667z" fill="#009688"/></svg>