<svg width="80" height="80" fill="none" xmlns="http://www.w3.org/2000/svg"><g clip-path="url(#clip0)" fill="#009688"><path d="M53.333 28a13.333 13.333 0 00-20.742-11.086 1.334 1.334 0 101.485 2.216 10.64 10.64 0 11-4.133 5.315 1.334 1.334 0 00-2.516-.888A13.333 13.333 0 1053.333 28zM19.29 22.69a1.333 1.333 0 00-1.558 1.06 22.87 22.87 0 00-.399 4.25A1.333 1.333 0 0020 28c0-1.259.118-2.514.352-3.75a1.333 1.333 0 00-1.061-1.56zM41.333 6.667c0-.736-.597-1.333-1.333-1.333a22.753 22.753 0 00-19.633 11.333 1.333 1.333 0 002.308 1.334A20.079 20.079 0 0140 8c.736 0 1.333-.597 1.333-1.334zM1.333 80H4a1.333 1.333 0 000-2.666H1.333a1.333 1.333 0 100 2.667zm77.334-2.666H76a1.333 1.333 0 100 2.667h2.667a1.333 1.333 0 000-2.667z"/><path d="M8 78.667C8 79.403 8.597 80 9.333 80h61.334a1.333 1.333 0 000-2.666H42.839C48.933 69.828 68 44.963 68 27.414 67.82 12.122 55.295-.141 40 0 24.706-.142 12.181 12.12 12 27.415c0 17.548 19.067 42.413 25.161 49.919H9.333c-.736 0-1.333.596-1.333 1.333zm32-76c13.823-.145 25.155 10.926 25.333 24.748 0 17.252-20.496 43.268-25.333 49.168-4.837-5.9-25.333-31.916-25.333-49.168C14.845 13.593 26.177 2.522 40 2.667zM8 0c-.736 0-1.333.597-1.333 1.333V4a1.333 1.333 0 102.666 0V1.333C9.333.597 8.736 0 8 0zM6.667 14.667a1.333 1.333 0 102.666 0V12a1.333 1.333 0 10-2.666 0v2.667zM1.333 9.334H4a1.333 1.333 0 100-2.667H1.333a1.333 1.333 0 000 2.667zm13.334 0a1.333 1.333 0 100-2.667H12a1.333 1.333 0 100 2.667h2.667z"/><path d="M69.333 56a1.333 1.333 0 10-2.666 0v2.667a1.333 1.333 0 102.666 0V56zM68 65.334c-.736 0-1.333.597-1.333 1.333v2.667a1.333 1.333 0 102.666 0v-2.667c0-.736-.597-1.333-1.333-1.333zm-6.667-4.001a1.333 1.333 0 000 2.667H64a1.333 1.333 0 000-2.667h-2.667zM74.667 64a1.333 1.333 0 000-2.667H72A1.333 1.333 0 0072 64h2.667z"/></g><defs><clipPath id="clip0"><path fill="#fff" d="M0 0h80v80H0z"/></clipPath></defs></svg>