<svg width="86" height="120" fill="none" xmlns="http://www.w3.org/2000/svg"><path d="M86 35.146a6 6 0 00-.912-3.18L76 17.426V1.97a2.017 2.017 0 00-.136-.676c-.028-.054-.052-.094-.078-.156a2.014 2.014 0 00-.084-.188 2.003 2.003 0 00-.246-.302C75.434.624 75.42.6 75.4.572A2.03 2.03 0 0074.846.2a1.484 1.484 0 00-.156-.06A1.966 1.966 0 0074 0H12a1.976 1.976 0 00-.692.14c-.062.022-.118.05-.178.078a2 2 0 00-.456.308c-.036.032-.076.056-.108.09-.143.144-.263.31-.356.49L7.658 6.212A3.964 3.964 0 0010 11.782v5.646L.912 31.968A5.978 5.978 0 000 35.146V114a6 6 0 006 6h74a6 6 0 006-6V35.146zM14 12h54.764A3.944 3.944 0 0072 10.288V16H14v-4zm56.764-8l-2 4H11.236l2-4h57.528zM6 116a2 2 0 01-2-2V36h10a2 2 0 100-4H5.6l7.502-12H70.4l-7.48 11.966-.024.034H26a2 2 0 100 4h36v80H6zm74 0H66V35.146a2 2 0 01.304-1.06L74 21.774l7.696 12.312a2 2 0 01.304 1.06V114a2 2 0 01-2 2z" fill="#000"/></svg>