<svg width="86" height="120" fill="none" xmlns="http://www.w3.org/2000/svg"><path d="M20 108h-8v-8a2 2 0 10-4 0v10a2 2 0 002 2h10a2 2 0 100-4z" fill="#000"/><path d="M86 35.146a6 6 0 00-.912-3.18L76 17.426V1.97a2.017 2.017 0 00-.136-.676c-.028-.054-.052-.094-.078-.156a1.988 1.988 0 00-.084-.188 1.997 1.997 0 00-.246-.302C75.434.624 75.42.6 75.4.572A2.03 2.03 0 0074.846.2a1.484 1.484 0 00-.156-.06A1.966 1.966 0 0074 0H12a1.976 1.976 0 00-.692.14c-.062.022-.118.05-.178.078a2.002 2.002 0 00-.456.308c-.036.032-.076.056-.108.09-.143.144-.263.31-.356.49L7.658 6.212A3.964 3.964 0 0010 11.782v5.646L.912 31.968A5.978 5.978 0 000 35.146V114a6 6 0 006 6h74a6 6 0 006-6V35.146zM14 12h54.764A3.944 3.944 0 0072 10.288V16H14v-4zm56.764-8l-2 4H11.236l2-4h57.528zM6 116a2 2 0 01-2-2V36h10a2 2 0 100-4H5.6l7.502-12H70.4l-7.48 11.966-.024.034H26a2 2 0 000 4h36v80H6zm74 0H66V35.146a2 2 0 01.304-1.06L74 21.774l7.696 12.312a2 2 0 01.304 1.06V114a2 2 0 01-2 2z" fill="#000"/><path d="M76 38a2 2 0 00-4 0v64a2 2 0 104 0V38zM49.614 58.366c-7.084-7.034-20.284-5.324-29.414 3.8A26.165 26.165 0 0012 80.224a14.948 14.948 0 0015.648 15.638A26.4 26.4 0 0045.8 87.716 26.17 26.17 0 0054 69.664a15.528 15.528 0 00-4.386-11.298zM23.024 65c4-4.235 9.487-6.75 15.306-7.016A11.73 11.73 0 0146.8 61.2c.112.112.19.252.298.37a9.814 9.814 0 01-4.252 1.298 12.854 12.854 0 00-11.816 11.8 8.896 8.896 0 01-8.422 8.4c-2.05.172-4.033.808-5.8 1.86a13.235 13.235 0 01-.8-4.69A22.47 22.47 0 0123.024 65zM42.98 84.88c-7.582 7.582-18.246 9.29-23.766 3.8-.112-.114-.19-.254-.298-.372a9.78 9.78 0 014.252-1.296 12.858 12.858 0 0011.816-11.8 8.9 8.9 0 018.422-8.4c2.05-.17 4.033-.806 5.8-1.858a13.23 13.23 0 01.8 4.69 22.46 22.46 0 01-7.026 15.238v-.002z" fill="#000"/></svg>