<svg width="80" height="80" fill="none" xmlns="http://www.w3.org/2000/svg"><path d="M62.653 35.907a6.623 6.623 0 00-5.262-2.573H22.609a6.628 6.628 0 00-5.264 2.573L1.405 56.4A6.69 6.69 0 000 60.496v12.838A6.675 6.675 0 006.667 80h66.666A6.675 6.675 0 0080 73.334V60.496a6.698 6.698 0 00-1.404-4.096L62.653 35.907zm14.68 37.427a4 4 0 01-4 4H6.667a4 4 0 01-4-4V60.496a4.023 4.023 0 01.842-2.455l15.942-20.497A4.029 4.029 0 0122.609 36h34.782a4.03 4.03 0 013.158 1.544l15.942 20.498a4.02 4.02 0 01.842 2.454v12.838z" fill="#fff"/><path d="M62.667 60h-6.352a3.979 3.979 0 00-3.578 2.21l-2.526 5.053a1.325 1.325 0 01-1.192.737H30.98a1.325 1.325 0 01-1.192-.737l-2.526-5.053A3.978 3.978 0 0023.685 60H9.333l14.4-19.2a1.333 1.333 0 00-2.133-1.6l-16 21.333a1.333 1.333 0 001.067 2.133h17.018c.506-.001.968.285 1.192.738l2.527 5.052a3.979 3.979 0 003.577 2.21H49.02a3.979 3.979 0 003.577-2.21l2.527-5.052a1.325 1.325 0 011.192-.738h6.352a1.333 1.333 0 100-2.666zM58.4 39.2a1.333 1.333 0 00-1.067-.534H30.667a1.333 1.333 0 000 2.667h26l15.6 20.8a1.333 1.333 0 102.133-1.6L58.4 39.2zm-35.733-9.867h34.666A5.333 5.333 0 0062.667 24V5.333a5.31 5.31 0 00-1.676-3.866c-.018-.02-.042-.027-.059-.046A5.301 5.301 0 0057.333 0H22.667a5.292 5.292 0 00-3.594 1.419c-.018.018-.042.025-.06.045a5.31 5.31 0 00-1.68 3.87V24a5.333 5.333 0 005.334 5.333zm0-2.666a2.71 2.71 0 01-.568-.064l7.849-6.934a1.334 1.334 0 00-1.765-2l-8.05 7.115A2.633 2.633 0 0120 24V5.333c0-.355.07-.707.21-1.034l16.26 14.368a5.333 5.333 0 007.066 0L59.803 4.305c.133.326.2.676.197 1.028V24a2.68 2.68 0 01-.133.784l-8.052-7.116a1.334 1.334 0 10-1.766 2l7.85 6.933a2.642 2.642 0 01-.566.066H22.667zm34.666-24c.086 0 .166.017.25.025L41.765 16.667a2.667 2.667 0 01-3.53 0L22.417 2.692c.084-.008.164-.025.25-.025h34.666z" fill="#fff"/></svg>