<svg width="78" height="80" fill="none" xmlns="http://www.w3.org/2000/svg"><path d="M37 13.334C20.063 13.334 6.333 27.064 6.333 44c0 16.937 13.73 30.667 30.667 30.667S67.667 60.937 67.667 44C67.648 27.071 53.929 13.352 37 13.334zM37 72C21.536 72 9 59.464 9 44s12.536-28 28-28 28 12.536 28 28c-.018 15.457-12.543 27.983-28 28z" fill="#fff"/><path d="M14.333 44a1.333 1.333 0 00-2.666 0c0 1.894.211 3.782.632 5.63a1.333 1.333 0 102.598-.593A22.81 22.81 0 0114.333 44zM37 66.667a22.533 22.533 0 01-17.93-8.816 1.333 1.333 0 10-2.109 1.632 25.181 25.181 0 0020.04 9.85 1.333 1.333 0 000-2.666zm10.276-12.391c.52-.52.52-1.365 0-1.886l-8.943-8.942V24a1.333 1.333 0 00-2.666 0v20c0 .353.14.693.39.943l9.334 9.333c.52.52 1.364.52 1.885 0zM25.845 27.347a1.333 1.333 0 102.31-1.333l-2-3.467a1.333 1.333 0 00-2.31 1.333l2 3.467zm22.31 33.306a1.334 1.334 0 10-2.31 1.334l2 3.466a1.333 1.333 0 002.31-1.333l-2-3.467zm-28.476-25.32a1.333 1.333 0 00.666-2.488l-3.466-2a1.333 1.333 0 00-1.334 2.31l3.467 2c.203.117.433.179.667.178zm33.486 18a1.333 1.333 0 00.488 1.822l3.467 2a1.333 1.333 0 101.333-2.31l-3.467-2a1.333 1.333 0 00-1.82.488z" fill="#fff"/><path d="M70.172 21.495a4 4 0 105.656-5.656L65.161 5.172a4 4 0 00-5.656 5.656l.618.617-2.85 2.848A35.503 35.503 0 0042.333 8.4V5.333a5.333 5.333 0 10-10.666 0V8.4C12.689 11.243-.723 28.472 1.177 47.566c1.9 19.096 18.443 33.344 37.608 32.392C57.951 79.008 73.001 63.19 73 44a35.6 35.6 0 00-6.293-20.267l2.848-2.849.617.61zM61.391 7.057c.52-.52 1.364-.52 1.885 0l10.667 10.667c.52.52.52 1.365 0 1.885a1.367 1.367 0 01-1.886 0l-1.534-1.534c-.008-.01-.011-.022-.02-.031-.01-.01-.022-.012-.031-.02l-7.496-7.49c-.008-.01-.01-.022-.02-.031-.01-.01-.021-.012-.03-.02l-1.535-1.54a1.333 1.333 0 010-1.886zM34.333 5.333a2.667 2.667 0 015.334 0v2.771A36.893 36.893 0 0037 8c-.895 0-1.785.044-2.667.11V5.332zm2.667 72C18.59 77.333 3.667 62.41 3.667 44 3.667 25.59 18.59 10.667 37 10.667a32.981 32.981 0 0119.65 6.42 32.96 32.96 0 017.255 7.254A32.981 32.981 0 0170.333 44C70.313 62.401 55.401 77.313 37 77.333zM65.123 21.54a35.522 35.522 0 00-5.662-5.662l2.547-2.544 5.659 5.659-2.544 2.547z" fill="#fff"/></svg>