<svg width="80" height="80" fill="none" xmlns="http://www.w3.org/2000/svg"><g clip-path="url(#clip0)" fill="#fff"><path d="M67.19 20.893a4.028 4.028 0 00-3.169-1.56H53.333v-6.666A9.344 9.344 0 0044 3.333H9.333A9.344 9.344 0 000 12.667v34.666a6.679 6.679 0 005.333 6.534V62a5.333 5.333 0 005.334 5.334H12a9.333 9.333 0 0018.667 0h22.666a9.333 9.333 0 0018.667 0h2.667A5.333 5.333 0 0080 62V38.908a4.018 4.018 0 00-.83-2.439L67.19 20.893zm10.143 18.015v4.425H60A1.333 1.333 0 0158.667 42V28.667c0-.737.597-1.334 1.333-1.334h8.78l8.277 10.762c.18.233.277.519.276.813zM2.667 47.333V12.668A6.675 6.675 0 019.333 6H44a6.675 6.675 0 016.667 6.667v38.666h-44a4 4 0 01-4-4zM21.333 74A6.667 6.667 0 1128 67.334 6.675 6.675 0 0121.333 74zm41.334 0a6.667 6.667 0 116.666-6.666A6.675 6.675 0 0162.667 74zm12-9.333H71.6a9.333 9.333 0 00-17.867 0h-23.46a9.333 9.333 0 00-17.873 0h-1.733A2.667 2.667 0 018 62v-8h57.333a1.333 1.333 0 000-2.666h-12V22h10.688c.414.002.803.193 1.056.52l1.651 2.147H60a4 4 0 00-4 4V42a4 4 0 004 4h17.333v16a2.667 2.667 0 01-2.666 2.667z"/><path d="M21.333 63.334a4 4 0 100 8 4 4 0 000-8zm0 5.333a1.333 1.333 0 110-2.667 1.333 1.333 0 010 2.667zm41.334-5.333a4 4 0 100 8 4 4 0 000-8zm0 5.333a1.333 1.333 0 110-2.667 1.333 1.333 0 010 2.667zm10.666-17.333h-2.666a1.333 1.333 0 000 2.666h2.666a1.333 1.333 0 000-2.666zM62.667 30c-.737 0-1.334.597-1.334 1.333v1.334a1.333 1.333 0 002.667 0v-1.334c0-.736-.597-1.333-1.333-1.333zm0 6.667c-.737 0-1.334.597-1.334 1.333v1.334a1.333 1.333 0 002.667 0V38c0-.736-.597-1.333-1.333-1.333zM8 11.334h2.667a1.333 1.333 0 000-2.667H8a1.333 1.333 0 100 2.667zm9.333 0h17.334a1.333 1.333 0 000-2.667H17.333a1.333 1.333 0 000 2.667zm18.667 48h-2.667a1.333 1.333 0 000 2.666H36a1.333 1.333 0 000-2.666zm14.667 0h-9.334a1.333 1.333 0 000 2.666h9.334a1.333 1.333 0 000-2.666z"/></g><defs><clipPath id="clip0"><path fill="#fff" d="M0 0h80v80H0z"/></clipPath></defs></svg>